<?xml version="1.0" encoding="UTF-8" standalone="no"?>
<!-- Created with Inkscape (http://www.inkscape.org/) -->

<svg
   xmlns:dc="http://purl.org/dc/elements/1.1/"
   xmlns:cc="http://creativecommons.org/ns#"
   xmlns:rdf="http://www.w3.org/1999/02/22-rdf-syntax-ns#"
   xmlns:svg="http://www.w3.org/2000/svg"
   xmlns="http://www.w3.org/2000/svg"
   xmlns:sodipodi="http://sodipodi.sourceforge.net/DTD/sodipodi-0.dtd"
   xmlns:inkscape="http://www.inkscape.org/namespaces/inkscape"
   version="1.1"
   width="858.63214"
   height="218.4718"
   id="svg2"
   inkscape:version="0.48.4 r9939"
   sodipodi:docname="banner-resized.svg">
  <sodipodi:namedview
     pagecolor="#ffffff"
     bordercolor="#666666"
     borderopacity="1"
     objecttolerance="10"
     gridtolerance="10"
     guidetolerance="10"
     inkscape:pageopacity="0"
     inkscape:pageshadow="2"
     inkscape:window-width="1920"
     inkscape:window-height="1020"
     id="namedview11"
     showgrid="false"
     fit-margin-top="20"
     fit-margin-left="20"
     fit-margin-right="20"
     fit-margin-bottom="20"
     inkscape:zoom="0.55625733"
     inkscape:cx="167.34118"
     inkscape:cy="-208.06231"
     inkscape:window-x="0"
     inkscape:window-y="25"
     inkscape:window-maximized="1"
     inkscape:current-layer="svg2" />
  <defs
     id="defs4" />
  <metadata
     id="metadata7">
    <rdf:RDF>
      <cc:Work
         rdf:about="">
        <dc:format>image/svg+xml</dc:format>
        <dc:type
           rdf:resource="http://purl.org/dc/dcmitype/StillImage" />
        <dc:title></dc:title>
      </cc:Work>
    </rdf:RDF>
  </metadata>
  <path
     inkscape:connector-curvature="0"
     style="fill:none;stroke:#65ac4f;stroke-width:7.47159576;stroke-opacity:1"
     id="path3818"
     d="m 145.59031,168.12861 c -23.53646,15.14819 8.60544,19.10648 -18.69262,25.29119 -27.298022,6.18475 -9.4e-4,-11.24025 -27.767822,-14.76502 -27.76706,-3.52473 -5.68929,20.1679 -30.57626,7.35884 -24.88694,-12.80909 7.22451,-8.61106 -11.78062,-29.15947 -19.00512,-20.54845 -17.3219,11.79248 -28.15289,-14.01685 -10.83103,-25.80934 11.06935,-1.95263 9.71884,-29.90989 -1.35048,-27.957287 -20.84939,-2.10074 -12.55651,-28.833887 8.29291,-26.73312 9.73474,5.61947 26.67078,-16.66511 16.93605,-22.28461 -14.62124,-15.01103 8.91521,-30.15922 23.53645,-15.14822 3.84514,10.56211 31.14315,4.37741 27.298022,-6.18473 -1.55165,-20.89746 26.215412,-17.37273 27.76705,3.52476 -3.84367,10.56268 21.04329,23.37174 24.88697,12.80907 12.24399,-17.00577 31.24915,3.54267 19.00513,20.5484 -9.73396,5.6208 1.09703,31.43013 10.83099,25.809357 20.31053,-5.15685 21.66103,22.800397 1.35048,27.9573 -11.06966,-1.95107 -19.36253,24.78208 -8.29289,26.73315 18.87357,9.10495 1.93752,31.38955 -16.93606,22.2846 -7.22572,-8.61002 -30.76216,6.53817 z" />
  <path
     d="m 64.482128,85.258023 88.650392,0 0,47.955807 -88.650392,0 z"
     id="path3822"
     style="fill:none;stroke:#65ac4f;stroke-width:4.48295736;stroke-linejoin:round;stroke-opacity:1"
     inkscape:connector-curvature="0" />
  <path
     d="m 101.50372,108.13321 -37.020812,25.08034 88.649772,0 -37.02078,-25.08034"
     id="path3824"
     style="fill:none;stroke:#65ac4f;stroke-width:4.48295736;stroke-linecap:round;stroke-linejoin:bevel;stroke-opacity:1"
     inkscape:connector-curvature="0" />
  <path
     d="M 153.13252,85.258023 113.2572,109.90079 c 0,0 -2.13484,1.58086 -4.44986,1.51915 -2.31499,-0.0616 -4.43349,-1.51915 -4.43349,-1.51915 L 64.482128,85.258023"
     id="path3826"
     style="fill:none;stroke:#65ac4f;stroke-width:4.48295736;stroke-linecap:round;stroke-linejoin:bevel;stroke-opacity:1"
     inkscape:connector-curvature="0" />
  <g
     id="text8070"
     style="font-size:15px;font-style:normal;font-weight:normal;line-height:125%;letter-spacing:0px;word-spacing:0px;fill:#65ac4f;fill-opacity:1;stroke:none;font-family:sans-serif"
     transform="translate(-181.16694,-75.45579)">
    <path
       inkscape:connector-curvature="0"
       id="path8072"
       style="font-size:75px;font-style:normal;font-variant:normal;font-weight:bold;font-stretch:normal;fill:#65ac4f;fill-opacity:1;font-family:Fira Mono;-inkscape-font-specification:Fira Mono Bold"
       d="m 435.10494,174.50205 c 0,-11.4 -8.025,-16.95 -22.2,-16.95 l -16.35,0 0,51.975 12.3,0 0,-17.325 5.7,0 c 12.225,0 20.55,-5.625 20.55,-17.7 z m -12.6,0 c 0,6.15 -3.3,8.85 -8.775,8.85 l -4.875,0 0,-17.025 4.275,0 c 6.225,0 9.375,2.625 9.375,8.175 z" />
    <path
       inkscape:connector-curvature="0"
       id="path8074"
       style="font-size:75px;font-style:normal;font-variant:normal;font-weight:bold;font-stretch:normal;fill:#65ac4f;fill-opacity:1;font-family:Fira Mono;-inkscape-font-specification:Fira Mono Bold"
       d="m 476.25064,157.55205 -33.75,0 0,9 10.725,0 0,33.9 -10.725,0 0,9.075 33.75,0 0,-9.075 -10.725,0 0,-33.9 10.725,0 0,-9 z" />
    <path
       inkscape:connector-curvature="0"
       id="path8076"
       style="font-size:75px;font-style:normal;font-variant:normal;font-weight:bold;font-stretch:normal;fill:#65ac4f;fill-opacity:1;font-family:Fira Mono;-inkscape-font-specification:Fira Mono Bold"
       d="m 488.82134,209.52705 33.6,0 1.2,-9.75 -22.5,0 0,-42.225 -12.3,0 0,51.975 z" />
    <path
       inkscape:connector-curvature="0"
       id="path8078"
       style="font-size:75px;font-style:normal;font-variant:normal;font-weight:bold;font-stretch:normal;fill:#65ac4f;fill-opacity:1;font-family:Fira Mono;-inkscape-font-specification:Fira Mono Bold"
       d="m 552.99205,209.52705 14.925,0 0,-51.975 -10.425,0 0,19.875 c 0,9.375 1.05,16.95 1.8,21.75 l -13.2,-41.625 -15.375,0 0,51.975 10.425,0 0,-19.575 c 0,-9.15 -1.2,-17.775 -1.8,-22.2 l 13.65,41.775 z" />
    <path
       inkscape:connector-curvature="0"
       id="path8080"
       style="font-size:75px;font-style:normal;font-variant:normal;font-weight:bold;font-stretch:normal;fill:#65ac4f;fill-opacity:1;font-family:Fira Mono;-inkscape-font-specification:Fira Mono Bold"
       d="m 613.63775,157.55205 -12.375,0 0,30 c 0,9.3 -1.05,14.1 -6.975,14.1 -5.925,0 -6.975,-4.8 -6.975,-14.1 l 0,-30 -12.375,0 0,34.575 c 0,11.1 6.375,18.675 19.35,18.675 12.9,0 19.35,-8.025 19.35,-18.675 l 0,-34.575 z" />
    <path
       inkscape:connector-curvature="0"
       id="path8082"
       style="font-size:75px;font-style:normal;font-variant:normal;font-weight:bold;font-stretch:normal;fill:#65ac4f;fill-opacity:1;font-family:Fira Mono;-inkscape-font-specification:Fira Mono Bold"
       d="m 656.28345,157.55205 -28.2,0 0,9 15.9,0 0,24.375 c 0,7.275 -4.05,10.575 -9.3,10.575 -3.975,0 -6.75,-0.9 -10.35,-3.3 l -4.65,7.575 c 4.5,3.075 9,4.875 15.675,4.875 13.275,0 20.925,-7.725 20.925,-19.8 l 0,-33.3 z" />
    <path
       inkscape:connector-curvature="0"
       id="path8084"
       style="font-size:75px;font-style:normal;font-variant:normal;font-weight:bold;font-stretch:normal;fill:#65ac4f;fill-opacity:1;font-family:Fira Mono;-inkscape-font-specification:Fira Mono Bold"
       d="m 681.00416,166.32705 20.4,0 1.275,-8.775 -33.975,0 0,51.975 33.975,0 0,-8.85 -21.675,0 0,-13.275 18,0 0,-8.55 -18,0 0,-12.525 z" />
    <path
       inkscape:connector-curvature="0"
       id="path8086"
       style="font-size:75px;font-style:normal;font-variant:normal;font-weight:bold;font-stretch:normal;fill:#65ac4f;fill-opacity:1;font-family:Fira Mono;-inkscape-font-specification:Fira Mono Bold"
       d="m 747.49986,157.55205 -12.675,0 -5.475,33.6 -5.775,-33.6 -12.675,0 -2.925,51.975 10.575,0 0.375,-22.05 c 0.15,-8.325 -0.15,-12.9 -0.75,-19.5 l 6.375,32.7 9.3,0 5.85,-32.7 c -0.525,6.975 -0.9,11.1 -0.675,19.275 l 0.6,22.275 10.8,0 -2.925,-51.975 z" />
    <path
       inkscape:connector-curvature="0"
       id="path8088"
       style="font-size:75px;font-style:normal;font-variant:normal;font-weight:bold;font-stretch:normal;fill:#65ac4f;fill-opacity:1;font-family:Fira Mono;-inkscape-font-specification:Fira Mono Bold"
       d="m 780.32056,190.02705 16.95,-32.475 -12.975,0 -9.9,22.35 -9.825,-22.35 -13.5,0 16.95,32.55 0,19.425 12.3,0 0,-19.5 z" />
    <path
       inkscape:connector-curvature="0"
       id="path8090"
       style="font-size:75px;font-style:normal;font-variant:normal;font-weight:bold;font-stretch:normal;fill:#65ac4f;fill-opacity:1;font-family:Fira Mono;-inkscape-font-specification:Fira Mono Bold"
       d="m 810.81627,202.40205 c 0,4.575 3.675,8.4 8.325,8.4 4.65,0 8.325,-3.825 8.325,-8.4 0,-4.5 -3.675,-8.325 -8.325,-8.325 -4.65,0 -8.325,3.825 -8.325,8.325 z" />
    <path
       inkscape:connector-curvature="0"
       id="path8092"
       style="font-size:75px;font-style:normal;font-variant:normal;font-weight:bold;font-stretch:normal;fill:#65ac4f;fill-opacity:1;font-family:Fira Mono;-inkscape-font-specification:Fira Mono Bold"
       d="m 880.98697,157.55205 -33.75,0 0,9 10.725,0 0,33.9 -10.725,0 0,9.075 33.75,0 0,-9.075 -10.725,0 0,-33.9 10.725,0 0,-9 z" />
    <path
       inkscape:connector-curvature="0"
       id="path8094"
       style="font-size:75px;font-style:normal;font-variant:normal;font-weight:bold;font-stretch:normal;fill:#65ac4f;fill-opacity:1;font-family:Fira Mono;-inkscape-font-specification:Fira Mono Bold"
       d="m 912.75767,209.52705 14.925,0 0,-51.975 -10.425,0 0,19.875 c 0,9.375 1.05,16.95 1.8,21.75 l -13.2,-41.625 -15.375,0 0,51.975 10.425,0 0,-19.575 c 0,-9.15 -1.2,-17.775 -1.8,-22.2 l 13.65,41.775 z" />
    <path
       inkscape:connector-curvature="0"
       id="path8096"
       style="font-size:75px;font-style:normal;font-variant:normal;font-weight:bold;font-stretch:normal;fill:#65ac4f;fill-opacity:1;font-family:Fira Mono;-inkscape-font-specification:Fira Mono Bold"
       d="m 952.02838,166.32705 20.55,0 1.2,-8.775 -34.125,0 0,51.975 12.375,0 0,-20.625 18.15,0 0,-8.85 -18.15,0 0,-13.725 z" />
    <path
       inkscape:connector-curvature="0"
       id="path8098"
       style="font-size:75px;font-style:normal;font-variant:normal;font-weight:bold;font-stretch:normal;fill:#65ac4f;fill-opacity:1;font-family:Fira Mono;-inkscape-font-specification:Fira Mono Bold"
       d="m 1019.7991,183.50205 c 0,-16.875 -7.125,-27.3 -20.77502,-27.3 -13.65,0 -20.775,10.8 -20.775,27.3 0,16.875 7.125,27.3 20.775,27.3 13.65002,0 20.77502,-10.8 20.77502,-27.3 z m -12.6,0 c 0,12.6 -2.175,18.3 -8.17502,18.3 -5.775,0 -8.175,-5.55 -8.175,-18.3 0,-12.75 2.325,-18.3 8.175,-18.3 5.85002,0 8.17502,5.55 8.17502,18.3 z" />
  </g>
</svg>
