<svg xmlns="http://www.w3.org/2000/svg" width="858.632" height="218.472"><path d="M145.59 168.13c-23.536 15.147 8.606 19.105-18.692 25.29-27.298 6.185 0-11.24-27.768-14.765-27.767-3.525-5.69 20.168-30.576 7.36-24.887-12.81 7.224-8.612-11.78-29.16-19.006-20.55-17.323 11.792-28.154-14.018-10.83-25.81 11.07-1.952 9.72-29.91-1.352-27.957-20.85-2.1-12.558-28.833 8.293-26.734 9.735 5.62 26.67-16.666 16.937-22.284-14.62-15.01 8.916-30.16 23.537-15.147 3.846 10.563 31.144 4.38 27.298-6.186-1.552-20.9 26.215-17.374 27.767 3.525-3.844 10.563 21.043 23.372 24.887 12.81 12.244-17.006 31.25 3.542 19.005 20.55-9.735 5.62 1.096 31.43 10.83 25.81 20.31-5.156 21.66 22.8 1.352 27.958-11.068-1.95-19.36 24.783-8.294 26.734 18.873 9.106 1.936 31.39-16.936 22.285-7.225-8.61-30.762 6.54z" fill="none" stroke="#65ac4f" stroke-width="7.472"/><path d="M64.482 85.258h88.65v47.956h-88.65z" fill="none" stroke="#65ac4f" stroke-width="4.483" stroke-linejoin="round"/><path d="M101.504 108.133l-37.02 25.08h88.65l-37.022-25.08" fill="none" stroke="#65ac4f" stroke-width="4.483" stroke-linecap="round" stroke-linejoin="bevel"/><path d="M153.133 85.258L113.257 109.9s-2.135 1.582-4.45 1.52c-2.315-.062-4.433-1.52-4.433-1.52L64.482 85.26" fill="none" stroke="#65ac4f" stroke-width="4.483" stroke-linecap="round" stroke-linejoin="bevel"/><g style="line-height:125%" font-size="75" font-weight="700" letter-spacing="0" word-spacing="0" fill="#65ac4f" font-family="Fira Mono"><path style="-inkscape-font-specification:Fira Mono Bold" d="M253.938 99.046c0-11.4-8.025-16.95-22.2-16.95h-16.35v51.975h12.3v-17.324h5.7c12.225 0 20.55-5.625 20.55-17.7zm-12.6 0c0 6.15-3.3 8.85-8.775 8.85h-4.875V90.87h4.275c6.225 0 9.375 2.626 9.375 8.176zM295.084 82.096h-33.75v9h10.725v33.9h-10.726v9.075h33.75v-9.074H284.36v-33.9h10.724v-9zM307.654 134.07h33.6l1.2-9.75h-22.5V82.097h-12.3v51.975zM371.825 134.07h14.925V82.097h-10.425v19.875c0 9.376 1.05 16.95 1.8 21.75l-13.2-41.624H349.55v51.975h10.425v-19.574c0-9.15-1.2-17.775-1.8-22.2l13.65 41.775zM432.47 82.096h-12.374v30c0 9.3-1.05 14.1-6.975 14.1-5.924 0-6.974-4.8-6.974-14.1v-30H393.77v34.575c0 11.1 6.376 18.676 19.35 18.676 12.9 0 19.35-8.025 19.35-18.675V82.097zM475.117 82.096h-28.2v9h15.9v24.375c0 7.276-4.05 10.576-9.3 10.576-3.975 0-6.75-.9-10.35-3.3l-4.65 7.575c4.5 3.076 9 4.876 15.675 4.876 13.275 0 20.925-7.725 20.925-19.8v-33.3zM499.837 90.87h20.4l1.275-8.774h-33.975v51.975h33.975v-8.85h-21.675v-13.274h18v-8.55h-18V90.87zM566.333 82.096h-12.675l-5.475 33.6-5.775-33.6h-12.675l-2.925 51.975h10.575l.375-22.05c.15-8.324-.15-12.9-.75-19.5l6.375 32.7h9.3l5.85-32.7c-.525 6.976-.9 11.1-.675 19.276l.6 22.275h10.8l-2.925-51.974zM599.154 114.57l16.95-32.474H603.13l-9.9 22.35-9.826-22.35h-13.5l16.95 32.55v19.425h12.3v-19.5zM629.65 126.946c0 4.575 3.674 8.4 8.324 8.4s8.325-3.825 8.325-8.4c0-4.5-3.676-8.325-8.326-8.325s-8.325 3.826-8.325 8.326zM699.82 82.096h-33.75v9h10.725v33.9H666.07v9.075h33.75v-9.074h-10.725v-33.9h10.725v-9zM731.59 134.07h14.926V82.097H736.09v19.875c0 9.376 1.05 16.95 1.8 21.75l-13.2-41.624h-15.374v51.975h10.425v-19.574c0-9.15-1.2-17.775-1.8-22.2l13.65 41.775zM770.86 90.87h20.55l1.2-8.774h-34.124v51.975h12.375v-20.624h18.15v-8.85h-18.15V90.87zM838.632 108.046c0-16.875-7.125-27.3-20.775-27.3-13.65 0-20.775 10.8-20.775 27.3 0 16.875 7.125 27.3 20.775 27.3 13.65 0 20.775-10.8 20.775-27.3zm-12.6 0c0 12.6-2.175 18.3-8.175 18.3-5.775 0-8.175-5.55-8.175-18.3s2.325-18.3 8.175-18.3c5.85 0 8.175 5.55 8.175 18.3z"/></g></svg>