<svg xmlns="http://www.w3.org/2000/svg" width="391.615" height="127.689"><defs><clipPath id="a"><path d="M0 841.89h595.28V0H0v841.89z"/></clipPath></defs><g clip-path="url(#a)" transform="matrix(1.25 0 0 -1.25 -163.523 625.025)"><path d="M155.01 470.853c0-2.037-1.525-2.934-3.5-2.934-2.166-.002-3.924.22-3.924.22v1.716s1.72-.216 3.587-.216c.91 0 1.376.276 1.376 1.02 0 1.95-5.6 1.637-5.6 5.194 0 2.035 1.51 2.926 3.48 2.926 2.187 0 3.943-.21 3.943-.21v-1.717s-1.95.187-3.838.187c-.804 0-1.164-.317-1.164-.99 0-1.762 5.64-1.66 5.64-5.198M157.22 478.57h2.442v-10.58h-2.44v10.58zm1.208 3.69c1.21 0 1.36-.103 1.36-1.23 0-1-.126-1.254-1.36-1.254-1.253 0-1.356.234-1.356 1.254 0 1.06.103 1.23 1.356 1.23M164.475 474.288h4.18c-.086 2.436-.32 2.885-2.144 2.885-1.947 0-1.947-.85-2.035-2.885m6.443-1.616h-.756c-1.91-.02-3.797-.02-5.705-.043.018-1.442.123-2.164.523-2.65.404-.507 1.32-.507 2.126-.507.548 0 1.8.064 3.202.208v-1.48c-1.4-.237-2.838-.405-4.157-.405-3.413 0-4.048 1.358-4.048 5.513 0 4.265.527 5.515 4.41 5.515 3.73 0 4.406-1.207 4.406-5.49v-.66zM179.647 483.192l-2.12-3.576-1.482.777 2.012 3.627 1.59-.828zm-1.4-13.655c.8 0 2.077.103 3.03.187l.002-1.483c-1.102-.25-2.8-.445-3.924-.445-2.945 0-4.305.528-4.305 4.965 0 4.752.444 6.044 4.305 6.044.322 0 2.528-.105 3.817-.342v-1.63c-2.478.19-3.327.232-3.54.232-2.124 0-2.162-.81-2.162-4.366 0-2.908.698-3.16 2.777-3.16M194.79 473.286c0 3.31-.212 3.928-2.16 3.928-1.977 0-2.144-.706-2.144-3.928 0-3.2.167-3.857 2.143-3.857 1.99 0 2.16.655 2.16 3.856m-6.66 0c0 4.348.64 5.492 4.5 5.492 3.9 0 4.54-1.228 4.54-5.492 0-4.26-.64-5.49-4.54-5.49-3.925 0-4.5 1.25-4.5 5.49M204.133 476.978c-.596 0-1.363-.127-2.086-.3v-7.056c.45-.025 1.042-.025 1.572-.025h.086c2.014 0 2.034 1.318 2.034 4.323 0 2.19-.147 3.058-1.607 3.058m-.384-9.164c-1.044 0-2.76.13-4.035.298v14.548h2.314v-4.26c.83.21 2.035.362 2.604.362 2.568 0 3.505-1.34 3.505-4.728 0-4.31-.43-6.22-4.39-6.22M214.637 463.957h-2.17l1.272 4.027h-.633l-3.627 10.603h2.46l2.564-8.04 2.57 8.04h2.456l-4.893-14.63zM220.45 478.587h2.375l1.567-7.182 2.04 7.182h2.646l2.06-7.182 1.592 7.182h2.356l-2.38-10.603h-2.844l-2.097 7.446-2.057-7.446h-2.883l-2.374 10.603zM242.747 472.63c-2.905 0-3.8-.126-3.8-1.443 0-.883.238-1.506.98-1.506.698 0 2.012.43 2.82.7v2.25zm2.392-4.646h-2.053l-.175.786c-.952-.488-2.182-.975-3.22-.975-2.31 0-3.077 1.546-3.077 3.478 0 2.443 1.724 2.904 4.01 2.882l2.122-.023v1.762c0 1.084-.53 1.166-1.484 1.166-1.274 0-2.802-.21-3.67-.336-.02.062-.357 1.572-.357 1.654 1.606.297 3.03.422 4.32.422 2.44 0 3.583-.487 3.583-2.97v-7.846zM249.348 471.974v4.94h-2.375v1.673h2.375v2.612h2.393v-2.613h2.42v-1.672h-2.42v-5.537c0-1.697.366-1.926 1.424-1.926.32 0 .725 0 1.235.018l.017-1.46a6.572 6.572 0 0 0-1.57-.215c-3.247 0-3.5 1.616-3.5 4.18M258.474 474.282h4.177c-.083 2.44-.318 2.886-2.144 2.886-1.948 0-1.948-.85-2.032-2.886m6.442-1.61h-.76c-1.908-.02-3.794-.02-5.706-.043.024-1.444.13-2.164.53-2.657.403-.504 1.314-.504 2.12-.504.555 0 1.803.062 3.2.21v-1.48c-1.397-.237-2.84-.405-4.153-.405-3.414 0-4.052 1.356-4.052 5.51 0 4.266.53 5.518 4.41 5.518 3.734 0 4.41-1.21 4.41-5.496v-.655zM270.84 467.92c-.68-.106-.783-.106-.91-.106-1.526 0-2.63.576-2.63 3.078v11.558h2.394v-11.943c0-.657 0-1.21 1.146-1.38v-1.208zM280.195 470.848c0-2.032-1.525-2.93-3.5-2.93-2.164 0-3.924.216-3.924.216v1.716s1.72-.21 3.586-.21c.915 0 1.378.274 1.378 1.02 0 1.945-5.598 1.633-5.598 5.193 0 2.037 1.504 2.926 3.48 2.926 2.183 0 3.943-.21 3.943-.21v-1.72s-1.953.19-3.838.19c-.81 0-1.17-.316-1.17-.993 0-1.764 5.643-1.653 5.643-5.2M282.406 467.984v14.487h2.354v-7.504h1.527l2.776 5.15h2.503l-3.244-6.004 3.775-6.128h-2.566l-3.223 5.22h-1.547v-5.22h-2.354zM299.165 472.63c-2.906 0-3.797-.126-3.797-1.443 0-.883.238-1.506.976-1.506.698 0 2.01.43 2.82.7v2.25zm2.396-4.646h-2.052l-.175.786c-.95-.488-2.182-.975-3.218-.975-2.314 0-3.08 1.546-3.08 3.478 0 2.443 1.72 2.904 4.007 2.882l2.123-.023v1.762c0 1.084-.53 1.166-1.485 1.166-1.27 0-2.8-.21-3.67-.336-.016.062-.36 1.572-.36 1.654 1.612.297 3.032.422 4.325.422 2.44 0 3.586-.487 3.586-2.97v-7.846z" fill="#040606"/><path d="M146.818 455.24h7.643l3.94-18.272 5.076 18.27h8.238l5.254-18.27 3.942 18.27h7.582l-6.627-29.853h-8.836l-5.374 19.286-5.254-19.285h-8.896l-6.688 29.854zM209.35 438.282c-7.105 0-9.434-.418-9.434-3.822 0-2.21.657-3.76 2.268-3.76 1.494 0 4.896 1.016 7.166 1.85v5.732zm7.7-12.896h-6.567c-.178.658-.358 1.73-.537 2.386-2.508-1.49-5.612-2.924-8.418-2.924-6.866 0-9.135 4.418-9.135 9.91 0 5.434 2.986 7.585 7.404 8.12 1.313.18 2.746.18 9.553-.178v4.775c0 2.807-1.254 2.985-3.584 2.985-3.46 0-7.7-.297-10.508-.715-.058.18-1.135 4.656-1.135 4.957 4.717.834 8.838 1.133 12.54 1.133 7.044 0 10.388-1.434 10.388-8.477v-21.972zM229.603 425.386v25.04h-8.496v4.944h24.59v-4.943H237.2v-25.04h-7.597zM262.857 430.222c2.27 0 6.21.3 8.956.537v-4.538c-3.284-.836-8.18-1.373-11.404-1.373-8.54 0-12.42 1.49-12.42 14.028 0 13.137 1.255 16.957 12.12 16.957.6 0 7.226-.3 11.404-1.013v-5.077c-6.686.538-9.673.715-10.387.715-5.255 0-5.375-2.148-5.375-11.76 0-7.642 1.97-8.478 7.105-8.478M294.223 425.386v12.902h-8.856v-12.902h-7.553v30.03h7.553v-12.272h8.856v12.27h7.553v-30.028h-7.553zM316.953 450.876v-20.68h4.718c3.463 0 4.317 2.024 4.317 10.07 0 9.485-.9 10.61-4.316 10.61h-4.717zm-7.555 4.63l12.093-.046c8.5-.045 11.96-2.38 11.96-15.193 0-12.184-2.833-14.88-11.463-14.88h-12.59v30.12zM357.248 440.312c0 8.957-.538 10.63-5.492 10.63-5.016 0-5.374-1.91-5.374-10.63 0-8.656.358-10.447 5.374-10.448 5.014 0 5.492 1.792 5.492 10.448m-18.448 0c0 12.238 1.85 15.463 12.956 15.463 11.283 0 13.075-3.462 13.075-15.463 0-12-1.852-15.463-13.074-15.463-11.284-.002-12.956 3.522-12.956 15.46M410.483 449.765c-4.23 0-4.638-.578-4.638-4.116 0-3.48.41-4.29 4.638-4.29 4.29 0 4.637.87 4.637 4.29 0 3.65-.524 4.115-4.637 4.115M370.673 445.708c0-3.247.693-5.8 2.61-7.54-.697-1.273-.873-3.712-.873-4.408 0-5.86 4.873-8.007 10.15-8.007 1.74 0 3.364.115 4.638.115 1.973 0 3.598-.228 3.598-2.722 0-2.785-1.22-3.83-3.83-3.83-5.046 0-13.105.35-13.105.35v-5.334c3.423 0 6.726-.463 13.513-.463 6.9 0 11.945 2.72 11.945 9.682 0 7.246-6.38 7.94-12.525 7.94-1.508 0-2.727-.113-4.234-.113-1.336 0-2.26.347-2.202 1.158l.055 3.255h6.38c6.84 0 10.263 2.203 10.263 9.915 0 1.738-.23 3.42-.753 4.697l3.247.464v4.696h-17.164c-9.452-.06-11.713-3.19-11.713-9.858M435.182 472.32h-7.07l-8.988-17.105h8.116l4.41 9.74 4.46-9.74h8l-8.928 17.104z" fill="#8e1b34"/></g></svg>