<?xml version="1.0" encoding="UTF-8" standalone="no"?>
<!-- Created with Inkscape (http://www.inkscape.org/) -->

<svg
   xmlns:dc="http://purl.org/dc/elements/1.1/"
   xmlns:cc="http://creativecommons.org/ns#"
   xmlns:rdf="http://www.w3.org/1999/02/22-rdf-syntax-ns#"
   xmlns:svg="http://www.w3.org/2000/svg"
   xmlns="http://www.w3.org/2000/svg"
   xmlns:sodipodi="http://sodipodi.sourceforge.net/DTD/sodipodi-0.dtd"
   xmlns:inkscape="http://www.inkscape.org/namespaces/inkscape"
   id="svg2"
   version="1.1"
   inkscape:version="0.48.4 r9939"
   width="391.61526"
   height="127.68925"
   xml:space="preserve"
   sodipodi:docname="watchdog RGB.pdf"><metadata
     id="metadata8"><rdf:RDF><cc:Work
         rdf:about=""><dc:format>image/svg+xml</dc:format><dc:type
           rdf:resource="http://purl.org/dc/dcmitype/StillImage" /><dc:title></dc:title></cc:Work></rdf:RDF></metadata><defs
     id="defs6"><clipPath
       clipPathUnits="userSpaceOnUse"
       id="clipPath16"><path
         d="m 0,841.89 595.28,0 L 595.28,0 0,0 0,841.89 z"
         id="path18"
         inkscape:connector-curvature="0" /></clipPath></defs><sodipodi:namedview
     pagecolor="#ffffff"
     bordercolor="#666666"
     borderopacity="1"
     objecttolerance="10"
     gridtolerance="10"
     guidetolerance="10"
     inkscape:pageopacity="0"
     inkscape:pageshadow="2"
     inkscape:window-width="640"
     inkscape:window-height="480"
     id="namedview4"
     showgrid="false"
     fit-margin-top="20"
     fit-margin-left="20"
     fit-margin-right="0"
     fit-margin-bottom="20"
     inkscape:zoom="0.22425732"
     inkscape:cx="208.52699"
     inkscape:cy="28.844976"
     inkscape:window-x="0"
     inkscape:window-y="25"
     inkscape:window-maximized="0"
     inkscape:current-layer="g10" /><g
     id="g10"
     inkscape:groupmode="layer"
     inkscape:label="watchdog RGB"
     transform="matrix(1.25,0,0,-1.25,-163.523,625.0255)"><g
       id="g12"><g
         id="g14"
         clip-path="url(#clipPath16)"><g
           id="g20"
           transform="translate(155.0098,470.8525)"><path
             d="m 0,0 c 0,-2.037 -1.525,-2.934 -3.5,-2.934 -2.166,0 -3.924,0.222 -3.924,0.222 l 0,1.716 c 0,0 1.721,-0.216 3.587,-0.216 0.909,0 1.376,0.276 1.376,1.021 0,1.948 -5.598,1.636 -5.598,5.193 0,2.035 1.508,2.926 3.479,2.926 2.187,0 3.943,-0.211 3.943,-0.211 l 0,-1.716 c 0,0 -1.951,0.187 -3.838,0.187 -0.804,0 -1.164,-0.317 -1.164,-0.991 C -5.639,3.436 0,3.538 0,0"
             style="fill:#040606;fill-opacity:1;fill-rule:nonzero;stroke:none"
             id="path22"
             inkscape:connector-curvature="0" /></g><path
           d="m 157.221,478.569 2.441,0 0,-10.58 -2.441,0 0,10.58 z m 1.207,3.692 c 1.211,0 1.359,-0.104 1.359,-1.231 0,-0.999 -0.125,-1.254 -1.359,-1.254 -1.253,0 -1.356,0.234 -1.356,1.254 0,1.059 0.103,1.231 1.356,1.231"
           style="fill:#040606;fill-opacity:1;fill-rule:nonzero;stroke:none"
           id="path24"
           inkscape:connector-curvature="0" /><g
           id="g26"
           transform="translate(164.4746,474.2881)"><path
             d="M 0,0 4.18,0 C 4.094,2.436 3.86,2.885 2.036,2.885 0.088,2.885 0.088,2.035 0,0 m 6.443,-1.616 -0.756,0 C 3.777,-1.635 1.89,-1.635 -0.018,-1.659 0,-3.1 0.105,-3.822 0.505,-4.307 c 0.404,-0.508 1.319,-0.508 2.126,-0.508 0.548,0 1.801,0.064 3.202,0.208 l 0,-1.481 C 4.432,-6.325 2.995,-6.493 1.676,-6.493 c -3.414,0 -4.049,1.358 -4.049,5.513 0,4.265 0.527,5.515 4.409,5.515 3.732,0 4.407,-1.207 4.407,-5.491 l 0,-0.66 z"
             style="fill:#040606;fill-opacity:1;fill-rule:nonzero;stroke:none"
             id="path28"
             inkscape:connector-curvature="0" /></g><g
           id="g30"
           transform="translate(179.6465,483.1924)"><path
             d="M 0,0 -2.119,-3.576 -3.602,-2.799 -1.59,0.828 0,0 z m -1.4,-13.655 c 0.802,0 2.078,0.103 3.032,0.187 l 0,-1.483 c -1.101,-0.252 -2.798,-0.446 -3.923,-0.446 -2.945,0 -4.305,0.528 -4.305,4.965 0,4.752 0.444,6.044 4.305,6.044 0.321,0 2.527,-0.105 3.816,-0.342 l 0,-1.631 c -2.478,0.192 -3.327,0.233 -3.541,0.233 -2.123,0 -2.161,-0.809 -2.161,-4.366 0,-2.908 0.698,-3.161 2.777,-3.161"
             style="fill:#040606;fill-opacity:1;fill-rule:nonzero;stroke:none"
             id="path32"
             inkscape:connector-curvature="0" /></g><g
           id="g34"
           transform="translate(194.79,473.2861)"><path
             d="m 0,0 c 0,3.311 -0.212,3.928 -2.161,3.928 -1.976,0 -2.143,-0.706 -2.143,-3.928 0,-3.201 0.167,-3.857 2.143,-3.857 C -0.169,-3.857 0,-3.201 0,0 m -6.659,0 c 0,4.348 0.638,5.492 4.498,5.492 3.9,0 4.54,-1.228 4.54,-5.492 0,-4.26 -0.64,-5.491 -4.54,-5.491 -3.924,0 -4.498,1.251 -4.498,5.491"
             style="fill:#040606;fill-opacity:1;fill-rule:nonzero;stroke:none"
             id="path36"
             inkscape:connector-curvature="0" /></g><g
           id="g38"
           transform="translate(204.1328,476.9775)"><path
             d="m 0,0 c -0.596,0 -1.363,-0.127 -2.086,-0.299 l 0,-7.057 c 0.449,-0.025 1.042,-0.025 1.572,-0.025 l 0.087,0 c 2.014,0 2.034,1.318 2.034,4.323 C 1.607,-0.868 1.46,0 0,0 m -0.384,-9.164 c -1.043,0 -2.759,0.13 -4.034,0.298 l 0,14.548 2.314,0 0,-4.26 c 0.831,0.209 2.036,0.362 2.605,0.362 2.568,0 3.505,-1.34 3.505,-4.728 0,-4.309 -0.428,-6.22 -4.39,-6.22"
             style="fill:#040606;fill-opacity:1;fill-rule:nonzero;stroke:none"
             id="path40"
             inkscape:connector-curvature="0" /></g><g
           id="g42"
           transform="translate(214.6367,463.957)"><path
             d="m 0,0 -2.169,0 1.271,4.027 -0.632,0 -3.627,10.603 2.46,0 2.564,-8.039 2.571,8.039 2.455,0 L 0,0 z"
             style="fill:#040606;fill-opacity:1;fill-rule:nonzero;stroke:none"
             id="path44"
             inkscape:connector-curvature="0" /></g><g
           id="g46"
           transform="translate(220.4512,478.5869)"><path
             d="M 0,0 2.374,0 3.941,-7.182 5.98,0 8.627,0 10.688,-7.182 12.279,0 l 2.356,0 -2.381,-10.603 -2.843,0 -2.097,7.446 -2.057,-7.446 -2.883,0 L 0,0 z"
             style="fill:#040606;fill-opacity:1;fill-rule:nonzero;stroke:none"
             id="path48"
             inkscape:connector-curvature="0" /></g><g
           id="g50"
           transform="translate(242.7471,472.6289)"><path
             d="m 0,0 c -2.905,0 -3.8,-0.125 -3.8,-1.442 0,-0.883 0.238,-1.506 0.979,-1.506 0.699,0 2.013,0.429 2.821,0.699 L 0,0 z m 2.392,-4.645 -2.052,0 -0.175,0.786 c -0.952,-0.488 -2.182,-0.975 -3.219,-0.975 -2.312,0 -3.078,1.546 -3.078,3.478 0,2.443 1.724,2.904 4.01,2.882 L 0,1.503 0,3.265 c 0,1.084 -0.53,1.166 -1.484,1.166 -1.274,0 -2.802,-0.209 -3.67,-0.336 -0.021,0.062 -0.357,1.572 -0.357,1.654 1.606,0.297 3.03,0.422 4.321,0.422 2.439,0 3.582,-0.487 3.582,-2.969 l 0,-7.847 z"
             style="fill:#040606;fill-opacity:1;fill-rule:nonzero;stroke:none"
             id="path52"
             inkscape:connector-curvature="0" /></g><g
           id="g54"
           transform="translate(249.3477,471.9736)"><path
             d="m 0,0 0,4.941 -2.375,0 0,1.672 2.375,0 0,2.612 2.393,0 0,-2.612 2.418,0 0,-1.672 -2.418,0 0,-5.537 c 0,-1.697 0.365,-1.926 1.423,-1.926 0.32,0 0.725,0 1.235,0.018 L 5.069,-3.965 C 4.367,-4.139 3.84,-4.179 3.5,-4.179 0.252,-4.179 0,-2.563 0,0"
             style="fill:#040606;fill-opacity:1;fill-rule:nonzero;stroke:none"
             id="path56"
             inkscape:connector-curvature="0" /></g><g
           id="g58"
           transform="translate(258.4736,474.2822)"><path
             d="M 0,0 4.177,0 C 4.093,2.441 3.858,2.886 2.032,2.886 0.084,2.886 0.084,2.035 0,0 m 6.442,-1.61 -0.759,0 C 3.774,-1.629 1.888,-1.629 -0.024,-1.653 0,-3.096 0.105,-3.816 0.505,-4.309 0.909,-4.813 1.82,-4.813 2.627,-4.813 c 0.554,0 1.802,0.063 3.199,0.211 l 0,-1.48 C 4.429,-6.319 2.985,-6.487 1.673,-6.487 c -3.414,0 -4.052,1.356 -4.052,5.51 0,4.266 0.529,5.518 4.411,5.518 3.733,0 4.41,-1.209 4.41,-5.496 l 0,-0.655 z"
             style="fill:#040606;fill-opacity:1;fill-rule:nonzero;stroke:none"
             id="path60"
             inkscape:connector-curvature="0" /></g><g
           id="g62"
           transform="translate(270.8398,467.9189)"><path
             d="m 0,0 c -0.68,-0.105 -0.783,-0.105 -0.911,-0.105 -1.525,0 -2.63,0.576 -2.63,3.078 l 0,11.558 2.395,0 0,-11.943 c 0,-0.657 0,-1.209 1.146,-1.38 L 0,0 z"
             style="fill:#040606;fill-opacity:1;fill-rule:nonzero;stroke:none"
             id="path64"
             inkscape:connector-curvature="0" /></g><g
           id="g66"
           transform="translate(280.1953,470.8477)"><path
             d="m 0,0 c 0,-2.032 -1.525,-2.929 -3.5,-2.929 -2.164,0 -3.924,0.215 -3.924,0.215 l 0,1.716 c 0,0 1.719,-0.209 3.585,-0.209 0.915,0 1.378,0.273 1.378,1.018 0,1.946 -5.598,1.634 -5.598,5.194 0,2.037 1.504,2.926 3.479,2.926 2.184,0 3.944,-0.209 3.944,-0.209 l 0,-1.719 c 0,0 -1.952,0.189 -3.837,0.189 -0.81,0 -1.169,-0.316 -1.169,-0.993 C -5.642,3.435 0,3.546 0,0"
             style="fill:#040606;fill-opacity:1;fill-rule:nonzero;stroke:none"
             id="path68"
             inkscape:connector-curvature="0" /></g><g
           id="g70"
           transform="translate(282.4063,467.9844)"><path
             d="m 0,0 0,14.487 2.354,0 0,-7.505 1.527,0 2.776,5.149 2.503,0 L 5.916,6.128 9.691,0 7.125,0 3.901,5.221 2.354,5.221 2.354,0 0,0 z"
             style="fill:#040606;fill-opacity:1;fill-rule:nonzero;stroke:none"
             id="path72"
             inkscape:connector-curvature="0" /></g><g
           id="g74"
           transform="translate(299.165,472.6289)"><path
             d="m 0,0 c -2.906,0 -3.797,-0.125 -3.797,-1.442 0,-0.883 0.238,-1.506 0.976,-1.506 0.698,0 2.011,0.429 2.821,0.699 L 0,0 z m 2.396,-4.645 -2.053,0 -0.175,0.786 c -0.951,-0.488 -2.182,-0.975 -3.218,-0.975 -2.314,0 -3.08,1.546 -3.08,3.478 0,2.443 1.721,2.904 4.007,2.882 L 0,1.503 0,3.265 c 0,1.084 -0.53,1.166 -1.485,1.166 -1.271,0 -2.799,-0.209 -3.67,-0.336 -0.016,0.062 -0.359,1.572 -0.359,1.654 1.611,0.297 3.031,0.422 4.324,0.422 2.44,0 3.586,-0.487 3.586,-2.969 l 0,-7.847 z"
             style="fill:#040606;fill-opacity:1;fill-rule:nonzero;stroke:none"
             id="path76"
             inkscape:connector-curvature="0" /></g><g
           id="g78"
           transform="translate(146.8184,455.2393)"><path
             d="M 0,0 7.643,0 11.582,-18.271 16.658,0 24.896,0 30.15,-18.271 34.092,0 l 7.582,0 -6.627,-29.854 -8.836,0 -5.373,19.286 -5.254,-19.286 -8.896,0 L 0,0 z"
             style="fill:#8e1b34;fill-opacity:1;fill-rule:nonzero;stroke:none"
             id="path80"
             inkscape:connector-curvature="0" /></g><g
           id="g82"
           transform="translate(209.3496,438.2822)"><path
             d="m 0,0 c -7.105,0 -9.434,-0.418 -9.434,-3.822 0,-2.209 0.657,-3.76 2.268,-3.76 1.494,0 4.896,1.016 7.166,1.85 L 0,0 z m 7.701,-12.896 -6.568,0 c -0.178,0.658 -0.358,1.73 -0.537,2.386 -2.508,-1.49 -5.612,-2.924 -8.418,-2.924 -6.866,0 -9.135,4.418 -9.135,9.911 0,5.433 2.986,7.584 7.404,8.119 C -8.24,4.775 -6.807,4.775 0,4.418 l 0,4.775 c 0,2.807 -1.254,2.985 -3.584,2.985 -3.461,0 -7.701,-0.297 -10.508,-0.715 -0.058,0.18 -1.135,4.656 -1.135,4.957 4.717,0.834 8.838,1.133 12.539,1.133 7.045,0 10.389,-1.434 10.389,-8.477 l 0,-21.972 z"
             style="fill:#8e1b34;fill-opacity:1;fill-rule:nonzero;stroke:none"
             id="path84"
             inkscape:connector-curvature="0" /></g><g
           id="g86"
           transform="translate(229.6035,425.3857)"><path
             d="m 0,0 0,25.041 -8.496,0 0,4.943 24.59,0 0,-4.943 -8.496,0 L 7.598,0 0,0 z"
             style="fill:#8e1b34;fill-opacity:1;fill-rule:nonzero;stroke:none"
             id="path88"
             inkscape:connector-curvature="0" /></g><g
           id="g90"
           transform="translate(262.8574,430.2217)"><path
             d="m 0,0 c 2.27,0 6.209,0.299 8.956,0.537 l 0,-4.537 c -3.284,-0.836 -8.18,-1.373 -11.404,-1.373 -8.538,0 -12.419,1.492 -12.419,14.029 0,13.137 1.255,16.957 12.121,16.957 0.598,0 7.225,-0.299 11.403,-1.013 l 0,-5.077 C 1.971,20.061 -1.016,20.238 -1.73,20.238 -6.985,20.238 -7.105,18.09 -7.105,8.479 -7.105,0.836 -5.135,0 0,0"
             style="fill:#8e1b34;fill-opacity:1;fill-rule:nonzero;stroke:none"
             id="path92"
             inkscape:connector-curvature="0" /></g><g
           id="g94"
           transform="translate(294.2227,425.3857)"><path
             d="m 0,0 0,12.902 -8.856,0 0,-12.902 -7.553,0 0,30.029 7.553,0 0,-12.271 8.856,0 0,12.271 7.553,0 L 7.553,0 0,0 z"
             style="fill:#8e1b34;fill-opacity:1;fill-rule:nonzero;stroke:none"
             id="path96"
             inkscape:connector-curvature="0" /></g><g
           id="g98"
           transform="translate(316.9531,450.876)"><path
             d="m 0,0 0,-20.68 4.718,0 c 3.462,0 4.316,2.024 4.316,10.071 C 9.034,-1.125 8.134,0 4.718,0 L 0,0 z M -7.555,4.631 4.538,4.584 c 8.498,-0.045 11.958,-2.381 11.958,-15.193 0,-12.184 -2.832,-14.881 -11.462,-14.881 l -12.589,0 0,30.121 z"
             style="fill:#8e1b34;fill-opacity:1;fill-rule:nonzero;stroke:none"
             id="path100"
             inkscape:connector-curvature="0" /></g><g
           id="g102"
           transform="translate(357.248,440.3115)"><path
             d="m 0,0 c 0,8.957 -0.538,10.629 -5.492,10.629 -5.016,0 -5.374,-1.91 -5.374,-10.629 0,-8.656 0.358,-10.447 5.374,-10.448 C -0.478,-10.448 0,-8.656 0,0 m -18.448,0 c 0,12.238 1.849,15.463 12.956,15.463 11.283,0 13.075,-3.462 13.075,-15.463 0,-12 -1.853,-15.463 -13.075,-15.463 -11.284,0 -12.956,3.524 -12.956,15.463"
             style="fill:#8e1b34;fill-opacity:1;fill-rule:nonzero;stroke:none"
             id="path104"
             inkscape:connector-curvature="0" /></g><g
           id="g106"
           transform="translate(410.4834,449.7646)"><path
             d="m 0,0 c -4.229,0 -4.638,-0.578 -4.638,-4.116 0,-3.479 0.409,-4.289 4.638,-4.289 4.289,0 4.637,0.869 4.637,4.289 C 4.637,-0.465 4.113,0 0,0"
             style="fill:#8e1b34;fill-opacity:1;fill-rule:nonzero;stroke:none"
             id="path108"
             inkscape:connector-curvature="0" /></g><g
           id="g110"
           transform="translate(370.6729,445.708)"><path
             d="m 0,0 c 0,-3.247 0.693,-5.799 2.611,-7.539 -0.698,-1.274 -0.874,-3.713 -0.874,-4.409 0,-5.859 4.873,-8.007 10.149,-8.007 1.74,0 3.365,0.115 4.639,0.115 1.973,0 3.598,-0.228 3.598,-2.722 0,-2.785 -1.219,-3.831 -3.83,-3.831 -5.046,0 -13.105,0.351 -13.105,0.351 l 0,-5.334 c 3.422,0 6.725,-0.463 13.512,-0.463 6.899,0 11.945,2.722 11.945,9.683 0,7.246 -6.38,7.94 -12.525,7.94 -1.508,0 -2.727,-0.113 -4.234,-0.113 -1.335,0 -2.259,0.348 -2.201,1.159 l 0.055,3.255 6.38,0 c 6.841,0 10.263,2.203 10.263,9.915 0,1.738 -0.231,3.421 -0.753,4.697 l 3.247,0.464 0,4.697 -17.164,0 C 2.261,9.798 0,6.668 0,0"
             style="fill:#8e1b34;fill-opacity:1;fill-rule:nonzero;stroke:none"
             id="path112"
             inkscape:connector-curvature="0" /></g><g
           id="g114"
           transform="translate(435.1816,472.3193)"><path
             d="m 0,0 -7.071,0 -8.987,-17.104 8.116,0 4.409,9.741 4.46,-9.741 8.002,0 L 0,0 z"
             style="fill:#8e1b34;fill-opacity:1;fill-rule:nonzero;stroke:none"
             id="path116"
             inkscape:connector-curvature="0" /></g></g></g></g></svg>