<?xml version="1.0" encoding="UTF-8" standalone="no"?>
<!-- Created with Inkscape (http://www.inkscape.org/) -->

<svg
   xmlns:dc="http://purl.org/dc/elements/1.1/"
   xmlns:cc="http://creativecommons.org/ns#"
   xmlns:rdf="http://www.w3.org/1999/02/22-rdf-syntax-ns#"
   xmlns:svg="http://www.w3.org/2000/svg"
   xmlns="http://www.w3.org/2000/svg"
   xmlns:sodipodi="http://sodipodi.sourceforge.net/DTD/sodipodi-0.dtd"
   xmlns:inkscape="http://www.inkscape.org/namespaces/inkscape"
   id="svg2"
   version="1.1"
   inkscape:version="0.91 r13725"
   width="867.76727"
   height="120.65038"
   xml:space="preserve"
   sodipodi:docname="pru.svg"><metadata
     id="metadata8"><rdf:RDF><cc:Work
         rdf:about=""><dc:format>image/svg+xml</dc:format><dc:type
           rdf:resource="http://purl.org/dc/dcmitype/StillImage" /><dc:title></dc:title></cc:Work></rdf:RDF></metadata><defs
     id="defs6" /><sodipodi:namedview
     pagecolor="#ffffff"
     bordercolor="#666666"
     borderopacity="1"
     objecttolerance="10"
     gridtolerance="10"
     guidetolerance="10"
     inkscape:pageopacity="0"
     inkscape:pageshadow="2"
     inkscape:window-width="1920"
     inkscape:window-height="1029"
     id="namedview4"
     showgrid="false"
     inkscape:zoom="0.63432805"
     inkscape:cx="488.46606"
     inkscape:cy="-133.7237"
     inkscape:window-x="0"
     inkscape:window-y="25"
     inkscape:window-maximized="1"
     inkscape:current-layer="g10"
     fit-margin-top="0"
     fit-margin-left="0"
     fit-margin-right="0"
     fit-margin-bottom="0" /><g
     id="g10"
     inkscape:groupmode="layer"
     inkscape:label="pru"
     transform="matrix(1.25,0,0,-1.25,-467.17155,470.22648)"><g
       transform="translate(340.51294,-25.913315)"
       id="g3035"
       style="fill:#00a1e3;fill-opacity:1"
       inkscape:export-filename="/home/adamdobrawy/Dokumenty/Jasnosc/PRU/pru-z-fb.png"
       inkscape:export-xdpi="150.14"
       inkscape:export-ydpi="150.14"><path
         style="fill:#00a1e3;fill-opacity:1;fill-rule:nonzero;stroke:none"
         d="m 53.0821,371.8517 c 2.94336,12.36459 -11.048365,7.57411 -5.1066,-4.1593 -4.088711,-21.58871 9.702879,-14.22089 5.1066,1.64187 l 0,1.40178 0,1.11565 0,0 z M 66.511,317.8315 c 1.367276,10.69408 -0.116403,21.05961 0.6103,31.3886 -0.699522,11.76104 -0.368355,23.72921 -0.1225,35.5476 -2.213612,5.0689 2.429089,13.68948 -2.7056,16.7616 -9.574564,-2.4016 -30.183315,6.97868 -30.5399,-6.6232 -0.66289,-19.15248 -0.04541,-38.27995 0.1828,-57.3466 0.32049,-9.87211 -1.198283,-21.07896 0.2239,-30.3843 10.294187,-1.15568 21.936983,-1.09109 31.9845,0.3765 -0.481637,2.19557 0.916891,4.5647 0.5695,8.0354 2.067876,1.06563 -1.105126,0.66859 -0.203,2.2444 z m -4.517,50.7237 c 6.360317,-17.00261 -8.729105,-19.82498 -14.4054,-25.3459 -2.216185,-7.77347 6.261119,-25.57412 -5.6152,-23.9809 -7.002677,0.25479 -1.807759,11.06849 -3.4183,15.8196 0.700656,16.94566 -0.188128,34.31588 0.9766,51.0378 9.117244,0.0993 25.408645,2.51828 22.4623,-11.96388 0,-1.85558 0,-3.71115 0,-5.56672 z"
         id="path12"
         inkscape:connector-curvature="0" /><path
         style="fill:#00a1e3;fill-opacity:1;fill-rule:nonzero;stroke:none"
         d="m 97.3962,317.2666 c 1.383041,10.678 -0.108881,21.02825 0.6105,31.4198 -0.714638,16.69844 -0.0351,32.72489 -0.4881,49.6414 -5.13312,6.64457 -19.373501,0.46849 -27.4065,2.558 -6.781513,-0.71987 -1.602704,-12.28154 -3.2352,-17.5306 0.0909,-24.79572 0.92308,-49.52406 0,-73.9987 2.007025,-7.78496 15.403827,-1.48997 21.7302,-3.1232 5.400876,-0.75208 9.576453,0.0236 8.7891,4.7083 -0.355058,2.52267 1.548545,4.42588 0,6.325 z m -3.9062,56.484 c -0.449603,-16.84122 1.054805,-34.63046 -0.9765,-51.0537 -4.703836,-8.98097 -22.350445,-6.92976 -21.242,4.4413 -1.060721,16.14252 0.46854,32.87028 -0.2438,48.4328 -3.623685,7.0154 5.018861,12.09873 8.1383,6.5129 0.371611,-7.74825 -0.183764,-16.58115 0.2851,-21.2341 0.362927,-12.26317 -0.681266,-24.68358 0.4272,-36.5051 9.281606,-2.36129 3.936229,12.66182 5.1886,18.6761 0.171769,13.64061 -0.246568,27.32212 0,40.8996 10.138328,1.90688 8.944491,-1.19131 8.4231,-10.1698 z"
         id="path14"
         inkscape:connector-curvature="0" /><path
         style="fill:#00a1e3;fill-opacity:1;fill-rule:nonzero;stroke:none"
         d="m 115.4636,345.0923 c -5.39846,15.01201 -6.39621,-11.05196 -5.8598,-18.017 4.68412,-8.01082 7.73274,6.3395 5.8598,11.32567 0,2.23044 0,4.46089 0,6.69133 z m 0,31.9697 c -8.46059,9.84349 -7.30901,-18.38765 -3.35902,-20.4967 7.17154,1.02031 1.49086,15.7605 3.35902,20.4967 z m 14.283,-58.5867 c -0.063,24.3099 -0.66047,47.93874 -0.2441,72.1309 2.53737,7.97559 -1.66912,13.09942 -10.12413,10.7348 -7.0123,-1.03714 -17.04306,1.90205 -22.26707,-1.8521 -0.234973,-1.70979 -0.05673,-6.76509 -1.302,-9.542 1.270982,-6.1656 -0.06118,-14.03125 0.3456,-20.9676 0.110645,-8.44051 -0.230258,-18.32321 0.5088,-27.7163 -0.794175,-10.90663 0.1167,-22.18389 0,-33.3346 8.74671,-0.27449 33.25782,-8.5023 33.0829,6.1053 -0.0828,1.46253 0.24591,2.91414 0,4.4416 z m -5.1271,48.2439 c -5.94599,-14.14866 1.42741,-17.36522 -0.1423,-32.9422 7.7792,-14.79399 -22.29385,-22.19105 -22.9303,-10.7822 0.2044,8.34796 0.17094,21.53856 0,31.8753 4.36278,8.72288 -6.945279,31.53539 8.0368,30.5099 11.9382,3.11038 17.39805,-7.354 15.0358,-18.45565 l 0,-0.14215 0,-0.063 0,0 z"
         id="path16"
         inkscape:connector-curvature="0" /><path
         style="fill:#00a1e3;fill-opacity:1;fill-rule:nonzero;stroke:none"
         d="m 162.8297,317.533 c 1.07382,9.30768 0.3863,18.366 0.2446,27.1514 1.14582,9.2776 -0.87179,19.82763 0.0814,29.2541 -0.46961,8.95535 0.51014,18.07587 -0.936,26.7279 -10.07846,0.9539 -22.38604,1.7504 -31.6185,-0.7376 -1.96242,-16.00414 -0.0652,-32.14662 -0.8546,-48.1663 1.08097,-14.64284 -0.23804,-30.15103 0.3665,-44.6187 10.0772,-2.386 21.75265,-0.61119 32.0862,-0.1415 -0.0204,2.23 1.00484,4.57938 0.8339,8.2083 2.06165,0.90288 -1.32767,0.90679 -0.2035,2.3224 z m -4.3946,3.767 c 0.29243,-7.49328 -12.04777,-2.01699 -17.28997,-3.6726 -9.74008,-2.67925 -5.44671,9.90959 -5.61983,15.5532 -0.77991,16.98766 -0.99033,34.46969 0.0819,51.2419 14.50092,3.8205 6.01606,-16.79815 8.301,-25.27807 0.46005,-11.43177 -0.89485,-24.45366 0.5896,-34.98793 3.34306,-0.24666 15.2022,3.10695 13.9373,-2.8565 z"
         id="path18"
         inkscape:connector-curvature="0" /><path
         id="path20"
         style="fill:#00a1e3;fill-opacity:1;fill-rule:nonzero;stroke:none"
         d="m 181.9964,317.6274 c 0,0.2826 0.0205,0.565 0.0811,0.8635 0.0405,0.282 0.1015,0.5964 0.1627,0.9258 0,0.0938 0,0.1882 0,0.2823 -0.1222,0.2358 -0.1627,0.4552 -0.1222,0.6593 0.0409,0.2041 0.1222,0.4235 0.2444,0.6591 0.0609,0.1885 0.0816,0.3923 0.0816,0.6276 0,0.2199 -0.0207,0.4555 -0.0816,0.6908 -0.1222,0.5649 -0.1834,1.1455 -0.1834,1.7424 0,0.5962 0.0612,1.1767 0.1834,1.7419 0,0.0471 0,0.1097 0,0.1882 0,0.0786 0,0.1415 0,0.188 -0.1222,0.2829 -0.1834,0.5496 -0.2035,0.8008 0,0.2511 0.0201,0.5176 0.0813,0.8005 0,0.2826 0,0.5646 0,0.8475 0,0.0939 0,0.1883 0,0.2665 0,0.0941 0,0.157 0,0.2041 0,0.1414 0,0.2985 0,0.4549 0,0.1571 0,0.2985 0,0.3926 -0.0612,0.3294 -0.1015,0.612 -0.1015,0.8788 0,0.267 0.0403,0.534 0.1015,0.8161 0.1222,0.2355 0.1831,0.4867 0.2038,0.769 0,0.267 -0.0207,0.5491 -0.0816,0.8323 -0.1222,0.1879 -0.1222,0.3764 0,0.5646 0.0609,0.2353 0.0609,0.4706 0.0408,0.7061 -0.0204,0.2359 -0.0408,0.4712 -0.0408,0.7064 0,0.1568 -0.0204,0.3297 -0.0408,0.5179 -0.0202,0.2041 -0.0202,0.3767 0.0408,0.5176 0,0.2826 0,0.5182 -0.0408,0.6908 -0.0406,0.1883 -0.1426,0.2985 -0.3252,0.3453 0.061,0.0944 0.1216,0.2041 0.1826,0.3453 0.0612,0.1255 0.1224,0.2667 0.1834,0.4081 -0.1627,0.2039 -0.2237,0.4391 -0.2035,0.7064 0.0408,0.2665 0.0612,0.5021 0.0813,0.7061 0,0.8476 0.0204,1.6952 0.0204,2.5269 0.0204,0.8472 -0.0405,1.6633 -0.1426,2.4638 0,0.0471 0,0.1097 0,0.1727 0,0.0626 0,0.1099 0,0.1099 0.1222,0.2356 0.1834,0.4709 0.2036,0.7061 0,0.2353 -0.0202,0.4712 -0.0814,0.7064 0,0.2824 0,0.5494 0.0204,0.7847 0,0.2352 0.0408,0.4396 0.1018,0.6278 0,0.1409 0,0.2824 0.0204,0.408 0,0.1414 0.0405,0.2511 0.1018,0.3455 0,0.1409 0,0.2665 -0.0202,0.3606 0,0.1102 -0.0411,0.2043 -0.102,0.2985 -0.1222,0.1411 -0.1834,0.2667 -0.1834,0.3925 0,0.1253 0.0612,0.2668 0.1834,0.4547 0,0.0944 0.0204,0.1885 0.0609,0.2826 0.0411,0.0942 0.0613,0.1885 0.0613,0.2821 -0.0613,0.3299 -0.1018,0.6593 -0.1018,0.9893 -0.0204,0.3294 -0.0204,0.659 -0.0204,0.989 -0.061,0.894 -0.1018,1.7731 -0.1018,2.6365 -0.0204,0.8629 -0.0204,1.7419 -0.0204,2.6365 -0.0405,0.5176 -0.0612,1.0199 -0.0405,1.5063 0.0204,0.4867 -0.0408,0.989 -0.2033,1.5069 0,0 0,0.0156 0,0.0627 0,0.0314 0,0.0785 0,0.1258 0.061,0.1412 0.1012,0.2668 0.1012,0.3765 0.0204,0.1097 0.0204,0.2355 0.0204,0.3767 0,0.0941 -0.0204,0.1885 -0.0606,0.2823 -0.0405,0.0941 -0.061,0.1885 -0.061,0.2826 0.1216,0.8476 0.1216,1.6949 0,2.5427 0,0.1412 0.0205,0.2823 0.061,0.4235 0.0402,0.1415 0.0606,0.2826 0.0606,0.4238 0,0.1885 -0.0204,0.3764 -0.0606,0.5808 -0.0405,0.2041 -0.061,0.4079 -0.061,0.6435 -0.0609,0.0941 -0.0609,0.1885 -0.0408,0.2826 0.0207,0.0944 0.0408,0.1879 0.0408,0.282 0.061,0.1888 0.1216,0.4085 0.1625,0.6438 0.0612,0.2353 0.0813,0.4867 0.0813,0.769 -0.0201,0.2356 -0.0405,0.455 -0.1015,0.6591 -0.0612,0.2044 -0.0612,0.4238 -0.0207,0.659 0,0 0,0.0159 0,0.0474 0,0.0314 0,0.047 0,0.047 -0.0606,0.3768 -0.0405,0.6905 0.0207,0.9732 0.0814,0.2979 0.1423,0.5964 0.2237,0.9099 0,0.1414 -0.0204,0.2826 -0.0408,0.4082 -0.0202,0.1411 -0.0202,0.2511 0.0408,0.3452 0.0609,0.1885 0.0609,0.3456 0.0204,0.4553 -0.0204,0.1253 -0.0814,0.2667 -0.1426,0.3923 0,0.0944 -0.0201,0.1885 -0.0612,0.2982 -0.0403,0.1097 -0.061,0.2197 -0.061,0.3608 0,0.3294 0,0.6594 0,1.0046 0,0.3453 0,0.6906 0,1.0673 0,0.3764 0,0.7534 0,1.1296 -0.0606,0.3299 -0.0606,0.6437 -0.0405,0.9422 0.0201,0.2977 0.0405,0.612 0.0405,0.9414 0,0.2356 0.0207,0.4708 0.0409,0.6905 0.0201,0.2356 0.0201,0.4394 -0.0409,0.6276 -0.0606,0.2356 -0.0606,0.4397 -0.0405,0.5964 0.0201,0.1727 0.0405,0.3615 0.0405,0.5338 0.1222,0.4394 0.1834,0.8943 0.2036,1.3501 0,0.4706 -0.0202,0.9097 -0.0814,1.2864 -0.1222,0.7064 -0.1828,1.3972 -0.2029,2.0718 0,0.675 0.0201,1.3655 0.0807,2.0719 0,0.2979 0,0.5646 -0.0204,0.8155 0,0.2514 -0.0402,0.4555 -0.1012,0.597 0,0.282 0.0205,0.5176 0.061,0.7373 0.0402,0.2041 0.0606,0.3926 0.0606,0.5811 0,0.3764 -0.0204,0.7373 -0.0606,1.0667 -0.0405,0.3452 -0.061,0.6752 -0.061,1.0046 0,0.3767 0,0.7534 0,1.1301 0,0.1885 0,0.3765 0,0.5491 0,0.1885 0,0.3453 0,0.4867 0,0.1726 0,0.4708 0,0.8946 0,0.4079 0.0205,0.8161 0.0409,1.2396 0.0201,0.4079 0.0402,0.7064 0.0807,0.879 0,0.1885 0,0.3924 -0.0204,0.612 0,0.22 -0.0402,0.4238 -0.1012,0.6123 -0.1221,0.2982 -0.2239,0.5806 -0.3461,0.832 -0.102,0.2665 -0.2849,0.4235 -0.5085,0.4864 -0.1219,0.0156 -0.2441,0.0468 -0.3662,0.0941 -0.1222,0.063 -0.2444,0.0941 -0.3666,0.0941 -0.7321,0 -1.4646,0 -2.1767,0 -0.7325,0 -1.4238,0 -2.0956,0 -0.3663,0 -0.7325,-0.0156 -1.0987,-0.047 -0.3663,-0.0315 -0.7328,-0.0471 -1.099,-0.0471 -0.305,0 -0.5902,0.0156 -0.8541,0.0471 -0.2648,0.0314 -0.5499,0.047 -0.8547,0.047 -0.7934,0 -1.6075,-0.0156 -2.4619,-0.047 -0.8342,-0.0315 -1.6888,-0.0471 -2.5432,-0.0471 -0.4275,-0.0473 -0.8546,-0.0785 -1.2821,-0.0785 -0.4275,-0.0156 -0.8544,-0.0156 -1.2818,-0.0156 -0.1829,-0.0473 -0.3252,-0.1885 -0.4476,-0.3926 -0.1219,-0.2194 -0.224,-0.5023 -0.2849,-0.8314 -0.0405,-0.7067 -0.0816,-1.5383 -0.1222,-2.4797 -0.0408,-0.9417 -0.1012,-1.8837 -0.1624,-2.825 -0.0612,-0.9261 -0.1222,-1.7425 -0.2035,-2.4171 0,-0.0474 0,-0.11 0,-0.1885 0,-0.0783 0,-0.1412 0,-0.1883 0.1221,-0.3767 0.1221,-0.7534 0,-1.1299 0,-0.047 0,-0.1097 0,-0.204 0,-0.0786 0,-0.173 0,-0.2668 -0.0409,-0.4238 -0.0409,-0.8631 0,-1.3343 0.0405,-0.4549 0.0405,-0.9258 0,-1.3966 -0.0613,-0.1882 -0.0613,-0.3767 -0.0409,-0.5652 0.0205,-0.1882 0.0409,-0.3765 0.0409,-0.5647 0,-0.1885 0,-0.3923 0,-0.612 0,-0.2199 0,-0.4238 0,-0.612 0.0612,-0.2829 0.1017,-0.534 0.1017,-0.7849 0,-0.2514 -0.0405,-0.4867 -0.1017,-0.722 -0.0613,-0.0941 -0.1018,-0.2197 -0.1018,-0.3767 -0.0204,-0.1414 -0.0204,-0.267 -0.0204,-0.3767 0.0609,-0.5647 0.1018,-1.1143 0.1222,-1.6478 0.0207,-0.534 0.0612,-1.0831 0.1221,-1.6481 0,-0.4235 0,-0.8319 0,-1.224 0,-0.3923 0,-0.8002 0,-1.224 0,-0.1885 0,-0.377 0,-0.5649 -0.0408,-0.4241 -0.0408,-0.8634 0,-1.334 0.0406,-0.4555 0.0406,-0.9264 0,-1.3969 0,-0.2826 0,-0.5655 0,-0.8476 0,-0.4708 0,-0.9419 0,-1.4125 0,-0.3296 0,-0.6434 0.0202,-0.9419 0,-0.2979 0.0408,-0.6117 0.1017,-0.9417 -0.0198,-0.3764 -0.0405,-0.7532 -0.0813,-1.1299 -0.061,-0.3767 -0.0204,-0.7531 0.0813,-1.1302 0,-0.0467 -0.0198,-0.1097 -0.0609,-0.1882 -0.0408,-0.0782 -0.061,-0.1409 -0.061,-0.1879 0,-0.0941 0,-0.1885 0,-0.2826 -0.0609,-0.5179 -0.1014,-1.0358 -0.1014,-1.5381 -0.0207,-0.5023 -0.0207,-1.0046 -0.0207,-1.4752 0,-0.4711 0,-0.9416 0,-1.4125 0,-0.3296 0,-0.6593 -0.0204,-0.989 0,-0.3294 -0.0409,-0.659 -0.1018,-0.9887 0,-0.0468 0.0204,-0.1097 0.0609,-0.2038 0.0409,-0.0785 0.0613,-0.1729 0.0613,-0.267 0,-0.188 0.0207,-0.3921 0.0612,-0.612 0.0405,-0.2197 0.0609,-0.4238 0.0609,-0.612 0,-0.5653 0,-1.1302 0,-1.7107 0,-0.565 0,-1.1614 0,-1.7734 0,-0.4238 0,-0.8475 0,-1.2869 0,-0.4238 0,-0.8788 0,-1.3499 0,-0.0941 0,-0.2038 -0.0204,-0.3452 0,-0.1256 -0.0405,-0.2671 -0.1017,-0.4082 0.1221,-0.1097 0.1831,-0.2668 0.2242,-0.5023 0.0198,-0.2356 0.0198,-0.4706 0.0198,-0.722 0,-0.1412 0,-0.2821 -0.0198,-0.4079 0,-0.1412 -0.0411,-0.2509 -0.1021,-0.3453 0,-0.4238 0.0202,-0.8314 0.061,-1.224 0.0411,-0.3923 0.0609,-0.8005 0.0609,-1.224 -0.0609,-0.3767 -0.0609,-0.7693 -0.0405,-1.1772 0.0207,-0.4082 0.0405,-0.8002 0.0405,-1.1769 0,-0.6597 0,-1.3187 0,-1.9778 0,-0.0473 0,-0.1097 0,-0.1882 0,-0.0785 0,-0.1412 0,-0.1882 0,-0.2826 0,-0.565 0,-0.8476 0,-0.1885 0,-0.3611 0,-0.5179 0,-0.157 0,-0.3299 0,-0.5179 0,-0.047 0,-0.1099 0.0207,-0.1885 0,-0.0785 0.0406,-0.1411 0.1012,-0.1882 0,-0.1411 0,-0.267 0,-0.3608 0,-0.11 0,-0.2041 0,-0.2985 0,-0.2824 -0.0201,-0.565 -0.0606,-0.8314 -0.0406,-0.2829 -0.0613,-0.5338 -0.0613,-0.7691 0.0613,-0.3296 0.0613,-0.6122 0.0408,-0.8793 -0.0408,-0.2667 -0.1017,-0.5335 -0.1627,-0.8158 -0.0609,-0.3297 -0.0816,-0.6596 -0.0816,-1.0046 0,-0.3296 0.0207,-0.6902 0.0816,-1.0672 0.061,-0.1882 0.1021,-0.3921 0.1021,-0.6279 0.0198,-0.2194 0.0198,-0.455 0.0198,-0.6905 0,-0.3294 -0.0198,-0.6435 -0.0609,-0.9414 -0.0408,-0.2985 -0.061,-0.612 -0.061,-0.942 0.061,-0.659 0.1219,-1.3022 0.1627,-1.9301 0.0205,-0.6278 0.0205,-1.2713 -0.0408,-1.9304 0,-0.0944 0,-0.2041 0.0207,-0.3296 0,-0.1256 0.0406,-0.2353 0.1012,-0.3294 0,-0.1415 0,-0.2826 0,-0.44 0,-0.1408 0,-0.3135 0,-0.502 -0.0606,-0.1882 -0.1219,-0.3767 -0.1624,-0.5649 -0.0612,-0.1885 -0.0814,-0.3765 -0.0814,-0.565 0,-0.2355 0.0202,-0.4708 0.061,-0.6905 0.0411,-0.2355 0.0609,-0.4396 0.0609,-0.6279 0,-0.7061 0,-1.4125 -0.0198,-2.1188 0,-0.7062 -0.0411,-1.4126 -0.1021,-2.1187 0,-0.5805 0,-1.1769 0,-1.8048 0,-0.6432 0,-1.2552 0,-1.883 0,-0.5182 -0.0204,-1.0361 -0.0609,-1.554 -0.0405,-0.502 -0.0612,-1.0202 -0.0612,-1.5381 -0.0613,-0.2982 -0.0814,-0.5805 -0.0613,-0.879 0.0204,-0.2823 0.1225,-0.5335 0.3053,-0.7217 -0.1828,-0.3297 -0.2849,-0.5967 -0.2849,-0.832 -0.0204,-0.2511 0.0409,-0.502 0.163,-0.7687 0.061,-0.1415 0.1021,-0.2826 0.1021,-0.4238 0.0198,-0.1414 0.0198,-0.2829 0.0198,-0.4241 0,-0.0941 0,-0.1726 0,-0.2352 0,-0.0627 0,-0.1412 0,-0.2356 -0.0609,-0.1414 -0.0609,-0.2826 -0.0198,-0.4079 0.0198,-0.1412 0.0811,-0.2511 0.1417,-0.3453 0.2441,-0.1882 0.4683,-0.3452 0.6718,-0.4708 0.203,-0.1256 0.4272,-0.1882 0.6713,-0.1882 0.1224,0.047 0.2647,0.047 0.4476,0.0314 0.1627,-0.0158 0.3458,-0.0314 0.5292,-0.0314 1.1594,0 2.3193,0 3.4585,0.0156 1.1597,0 2.2788,0.0314 3.3778,0.0785 0.4269,-0.0471 0.8342,-0.0627 1.2209,-0.0627 0.3861,0 0.7934,0.0156 1.2206,0.0627 0.1828,0 0.3866,0.0156 0.61,0.0471 0.2239,0.0314 0.4278,0.047 0.6106,0.047 0.2441,0 0.5088,-0.0156 0.7937,-0.047 0.2849,-0.0315 0.5491,-0.0471 0.7934,-0.0471 0.3053,0 0.5899,0 0.8544,0.0156 0.2647,0 0.5496,0.0315 0.8549,0.0785 0.4878,0 0.9765,0.0941 1.4647,0.2826 0.1221,0.0156 0.2035,0.0783 0.2644,0.2197 0.061,0.1256 0.1018,0.2353 0.1018,0.345 0,0.2353 0,0.487 0,0.7534 0,0.2671 0,0.5182 0,0.7535 -0.061,0.047 -0.1219,0.0782 -0.1831,0.0782 -0.061,0.0159 -0.1222,0.0159 -0.1831,0.0159 0.1221,0.0944 0.2236,0.1885 0.2848,0.2826 0.0814,0.0938 0.1426,0.1882 0.2036,0.2823 0,0 0.0204,0.0156 0.0612,0.063 0.0408,0.0314 0.0609,0.0785 0.0609,0.1253 0.061,0.1885 0.1216,0.3767 0.1423,0.5964 0.0202,0.2043 -0.0207,0.4396 -0.1423,0.7222 0,0 0,0.0471 0,0.1097 0,0.0627 0,0.1259 0,0.1727 0,0.2826 0,0.5652 0,0.8472 0,0.0944 -0.0201,0.2044 -0.0408,0.3144 -0.0201,0.1097 -0.0201,0.2038 0.0408,0.2506 0.061,0.1885 0.1012,0.3611 0.1012,0.5182 0.0204,0.1567 0.0204,0.3296 0.0204,0.5178 -0.0204,0.3924 -0.0405,0.7847 -0.0405,1.177 -0.0201,0.3926 0.1222,0.6905 0.4071,0.8949 0,0 0,0.0159 0,0.0626 0,0.0315 0,0.0788 0,0.1259 -0.2444,0.0624 -0.4071,0.2506 -0.4677,0.5491 -0.0814,0.3135 -0.0814,0.659 -0.0205,1.0513 z m -5.1275,36.0658 c 0,-1.868 0,-3.6099 0,-5.258 0,-1.6478 0,-3.2955 0,-4.9592 0,-1.6478 0,-3.4211 0,-5.3201 0,-1.1775 0,-2.26 0,-3.2646 0,-0.989 0,-1.9933 0,-2.9818 0,-1.0049 0,-2.0877 0,-3.2644 -0.2234,-0.2985 -0.366,-0.6593 -0.4269,-1.0987 -0.0409,-0.4238 -0.0613,-0.8161 -0.0613,-1.1613 0.0204,-0.1732 0.1018,-0.3768 0.2441,-0.6279 0.1426,-0.2512 0.2236,-0.3767 0.2441,-0.4082 0,-0.3297 0,-0.6746 0,-1.0358 0,-0.3608 0,-0.7061 0,-1.0358 -0.2033,-0.2826 -0.2642,-0.5805 -0.1829,-0.8948 0.1018,-0.3133 0.1624,-0.612 0.1829,-0.8944 -0.1625,-0.2353 -0.2642,-0.5808 -0.3456,-1.0046 -0.0612,-0.4232 -0.1018,-0.8158 -0.1222,-1.1608 -0.0204,-0.3614 -0.0204,-0.5499 -0.0204,-0.5655 -0.163,-0.2197 -0.4073,-0.3294 -0.6919,-0.3608 -0.2846,-0.0471 -0.5902,-0.0315 -0.8949,0 -0.3257,0.0473 -0.6103,0.0629 -0.8549,0.0788 -0.2846,0 -0.529,0 -0.7118,0 -0.1831,0 -0.4071,0 -0.6313,0 -0.1417,0 -0.4068,-0.0159 -0.8133,-0.0474 -0.3869,-0.0473 -0.8345,-0.0629 -1.343,-0.0941 -0.4884,-0.0314 -0.9561,-0.0314 -1.3635,-0.0156 -0.4067,0.0156 -0.712,0.0624 -0.8747,0.1571 -0.0814,0.0156 -0.1421,0.1567 -0.1625,0.4232 -0.0408,0.2829 -0.0612,0.6279 -0.0813,1.0205 0,0.4079 0,0.8005 0,1.1928 0,1.6792 0.0201,3.484 0.0609,5.3986 0.0204,1.8989 0.0408,3.8293 0.0408,5.7753 0.0202,1.9465 -0.0204,3.8143 -0.1017,5.5873 0,1.7419 0,3.3429 0,4.8028 0,1.4593 0,2.8565 0,4.206 0,1.3496 0,2.7465 0,4.1743 0,0.3926 0,0.8164 0,1.2872 0,0.4709 0,0.9102 0,1.3499 0,1.5378 0,2.9659 0,4.2687 0,1.3181 0,2.6209 0,3.9234 0.0609,2.103 0.0609,4.2375 0,6.4035 -0.061,2.1657 -0.1222,4.3631 -0.163,6.5914 -0.0406,2.2289 0.0204,4.4884 0.163,6.7802 0.0813,0.3291 0.1219,0.7217 0.1219,1.1925 0,0.4711 0,0.9105 0,1.3187 0,0.4235 0.0405,0.7061 0.1219,0.8787 0.2443,0.0627 0.6514,0.11 1.2208,0.1412 0.5899,0.0159 1.16,0.0315 1.7093,0.0471 0.5287,0 0.8544,0 0.9766,0 0.0201,0 0.2038,0.0158 0.549,0.0473 0.3459,0.0315 0.7733,0.0626 1.262,0.0782 0.5083,0.0159 0.9766,0 1.444,-0.0467 0.4481,-0.0315 0.7937,-0.1259 1.0176,-0.2671 0,-0.0156 0.0408,-0.2511 0.1222,-0.6749 0.0814,-0.4394 0.1627,-0.9417 0.2443,-1.5225 0.0814,-0.5805 0.1217,-1.0984 0.1217,-1.5692 0,-1.3028 -0.0403,-2.558 -0.1217,-3.7353 -0.0816,-1.1769 -0.1629,-2.3697 -0.2443,-3.547 -0.0814,-1.1772 -0.1222,-2.4326 -0.1222,-3.7352 0,-1.6636 0.0204,-3.1702 0.0814,-4.5513 0.0408,-1.3654 0.1017,-2.6835 0.1627,-3.939 0.0612,-1.2716 0.1224,-2.543 0.163,-3.8455 0.0606,-1.3028 0.0811,-2.715 0.0811,-4.2372"
         inkscape:connector-curvature="0" /><path
         style="fill:#00a1e3;fill-opacity:1;fill-rule:nonzero;stroke:none"
         d="m 214.5909,318.3806 c 1.55938,10.39051 -0.30626,20.16413 0.7937,30.3531 -1.25215,14.14829 0.1847,28.5485 -0.7123,42.7983 0.23677,5.1514 1.23588,12.99127 -6.7955,10.5625 -9.32446,-2.23089 -30.6925,6.98029 -26.572,-9.3229 -0.13035,-26.24998 0.87874,-52.02482 0.1219,-78.2986 -3.21041,-10.69074 10.33846,-7.22493 17.0501,-7.3921 5.00918,0.98147 16.12362,-2.11215 16.0534,3.2643 -0.44797,2.93263 1.66712,5.96708 0.0607,8.0354 z m -4.1505,10.076 c 0.75537,-10.53459 -15.79766,-12.73066 -21.1399,-7.0152 -1.43202,1.39912 -4.0715,5.30649 -3.30871,11.28011 -0.61645,6.66709 1.53509,10.93714 -0.39389,15.21169 -0.34111,13.84877 -4.04979,46.50029 19.6948,36.9445 4.19762,-2.96286 9.17519,-21.96014 0.33205,-20.6382 -6.58637,-0.31231 -3.89421,8.34694 -4.95055,11.56117 -6.76995,12.93494 -6.09118,-13.62816 -5.0664,-19.58067 -0.68354,-3.74122 -0.13553,-8.28744 -0.0813,-12.3202 0.10775,-3.26162 -0.94278,-12.96092 0.407,-11.8179 -3.85177,-5.85285 6.44483,-11.87109 4.5987,-1.1302 1.64342,5.02415 -1.51054,9.28489 1.546,12.5558 1.28121,-6.49391 6.48785,5.66584 8.3622,-3.4685 0,-3.8608 0,-7.7216 0,-11.5824 z"
         id="path22"
         inkscape:connector-curvature="0" /><path
         style="fill:#00a1e3;fill-opacity:1;fill-rule:nonzero;stroke:none"
         d="m 249.6274,313.9551 c -1.85715,13.53534 -0.0857,28.29923 -0.9768,41.9979 -0.44316,14.81531 0.36313,29.75707 -0.0408,44.289 -10.20496,1.92194 -21.71236,0.78713 -32.1064,0.1888 -0.55904,-2.6634 -0.18115,-7.14366 -1.546,-10.6724 1.27699,-6.06105 -0.0518,-14.01252 0.3461,-20.9361 0.12695,-8.47913 -0.23475,-18.37883 0.5083,-27.7475 -0.79747,-10.93736 0.15109,-22.17838 0,-33.4287 9.06756,-0.30412 33.41462,-8.36374 33.8561,6.1205 l -0.0405,0.1885 0,0 z m -5.4933,66.2928 c -4.37668,-18.70448 -9.34051,-36.52231 -14.0391,-55.2756 7.03795,3.26991 19.41451,-2.93722 9.2778,-6.9681 -6.33569,0.32014 -12.3866,-0.27771 -18.7997,0.2823 2.27042,20.06419 9.36615,39.75223 14.3031,59.2778 -2.78883,3.28199 -18.88985,-3.05816 -12.9606,7.5804 7.25225,-0.5972 15.65819,1.05913 22.1777,-1.0204 0.2382,-1.28506 0.0608,-2.58438 0.0408,-3.8764 z"
         id="path24"
         inkscape:connector-curvature="0" /><path
         style="fill:#00a1e3;fill-opacity:1;fill-rule:nonzero;stroke:none"
         d="m 279.1698,318.0983 c 1.08973,11.54264 -0.12006,22.67135 0.6106,33.7586 -1.01981,15.68907 0.0357,30.65176 -0.6106,46.3453 -1.79526,7.92825 -15.61498,1.43351 -21.82654,3.55114 -12.17956,4.06338 -8.17558,-8.45334 -8.73346,-15.52604 -0.18124,-24.98337 1.02784,-49.43737 -0.1219,-74.4696 -0.71864,-9.4456 13.7465,-3.45294 19.6951,-4.8651 5.194,-0.0536 11.92245,-0.96808 10.9868,4.724 -0.55215,2.53333 1.42435,4.78477 0,6.4817 z m -4.3948,57.2527 c -0.81352,-8.77032 0.51787,-19.68614 -0.8544,-27.5907 0.85347,-1.67097 -0.11787,-9.86637 0.4887,-12.1473 -2.07998,-6.95 4.80855,-21.02764 -8.0167,-16.0237 -1.22413,7.9077 -3.43853,19.37319 -5.7784,24.4678 -2.3674,1.526 0.42323,-7.06462 -0.4272,-12.1005 1.00194,-6.87653 0.0457,-18.53542 -7.9962,-11.0333 -0.18065,21.47088 0.0918,43.00543 0.4887,64.5035 6.49463,2.09085 9.72614,-0.72044 9.3999,-5.5086 0.77061,-7.38655 2.22752,-14.01215 3.2959,-21.0461 2.29839,7.09422 0.7028,7.84203 1.3427,15.8199 1.51902,3.45074 -3.09238,12.22421 4.1508,10.7348 5.46437,1.153 2.6882,-6.7085 3.9062,-10.0758 z"
         id="path26"
         inkscape:connector-curvature="0" /><path
         style="fill:#00a1e3;fill-opacity:1;fill-rule:nonzero;stroke:none"
         d="m 309.3231,317.6274 c 0.68164,25.27318 -0.062,50.77706 -0.0205,76.3688 2.1901,7.2321 -3.50475,8.49632 -9.4405,7.2978 -6.38105,-0.24352 -13.79137,0.81501 -19.4711,-0.8946 -0.89759,-12.52508 -0.48476,-27.68442 -0.5698,-41.3388 0.50681,-17.22301 -0.48791,-34.83445 0.6106,-52.0583 9.08803,-1.15985 19.28462,-1.1295 28.5049,0.0159 -0.1823,2.99581 1.15475,7.21407 0.3864,10.6092 z m -4.0286,64.8805 c -2.22286,-10.71063 -5.9141,-21.37022 -7.3248,-31.6397 0.24999,-10.54197 0.21835,-22.90839 -0.4473,-33.1464 -12.19855,-3.38074 -6.96393,9.34013 -7.8539,17.05227 1.57254,16.3311 -2.78597,31.94274 -6.4701,47.60803 -2.3008,2.93306 8.14723,3.33474 8.0572,0.5023 0.72816,-4.30615 -0.005,-7.9742 3.0523,-12.7123 -0.19494,-4.84161 1.92001,-3.60187 0.2234,1.1928 1.38243,5.9915 -0.007,17.22684 10.7632,13.1202 0,-0.65907 0,-1.31813 0,-1.9772 z"
         id="path28"
         inkscape:connector-curvature="0" /><path
         style="fill:#00a1e3;fill-opacity:1;fill-rule:nonzero;stroke:none"
         d="m 366.5778,318.3806 c 1.14606,8.15307 0.21037,16.87109 0.4878,24.3734 0.63602,10.28942 -1.12999,21.22455 0,31.6554 -0.87642,8.95265 0.46336,18.29995 -1.1185,27.0104 -10.99223,1.4914 -22.84055,0.54361 -33.8363,0.0939 -0.38558,-20.32471 -0.32798,-40.5546 0.3461,-60.7054 0.0187,-10.80058 -1.0436,-22.85781 0.0612,-33.1622 10.85104,-1.17371 22.98879,-1.0792 33.5716,0.4705 -0.29017,2.10967 0.91697,4.61576 0.6913,7.9416 2.11077,1.06319 -1.23808,0.73235 -0.2032,2.3224 z m -25.026,-0.8476 c 2.01113,1.19997 2.80259,-0.13377 0,0 z m 20.0209,0.6594 c -9.31144,-2.84807 -10.95422,5.65347 -8.9119,12.9007 0.85586,5.55069 -0.22353,26.64903 -6.1038,17.4206 -0.90129,-9.68184 2.07878,-22.65653 -1.4446,-30.3213 -12.445,-3.40902 -6.76639,10.9131 -7.7726,18.06853 -0.25021,7.31095 0.70018,15.48098 0.1832,20.90047 3.27545,8.97912 -7.29045,32.83195 7.6303,29.6308 4.4382,-0.81744 14.32199,2.69248 16.4194,-5.3203 -0.78654,-8.74247 3.34576,-22.73215 -4.1511,-27.7161 9.8987,-7.11499 0.29785,-24.42547 4.4153,-34.6841 l -0.1625,-0.5964 -0.1017,-0.2829 0,0 z m -9.2784,41.2449 c -0.0847,6.55479 1.44502,14.39824 -0.366,20.4338 -6.4952,2.99239 -5.21298,-2.80232 -5.1879,-6.8269 1.58083,-4.56016 -3.78702,-16.67663 2.8885,-16.2437 -1.38112,-1.45584 3.41555,1.80885 2.6654,2.6368 z"
         id="path30"
         inkscape:connector-curvature="0" /><path
         style="fill:#00a1e3;fill-opacity:1;fill-rule:nonzero;stroke:none"
         d="m 398.1957,316.9684 c 1.05073,11.91471 -0.002,23.23122 0.6106,34.7471 -0.92655,15.35722 4.7e-4,30.04768 -0.5295,45.3566 -2.67786,8.33231 -17.98951,0.81893 -24.7405,3.5158 -9.23074,1.90187 -5.60012,-10.51827 -6.3482,-16.1028 -0.12795,-24.76966 0.94264,-48.99691 -0.0816,-73.8414 -0.80508,-9.61671 14.01802,-3.36509 19.98,-4.8812 5.25527,-0.0741 11.96492,-0.92444 11.1092,4.6145 -0.48624,2.617 1.51766,4.84586 0,6.5914 z m -3.7842,-0.0944 c -5.93653,-0.034 -8.92995,0.81284 -15.64227,0.3767 -7.20643,-2.90223 -5.96341,4.31185 -5.76243,7.706 -0.21152,11.20558 0.03,24.31792 0.2239,33.6328 0.80743,3.95979 -0.1657,8.36117 0.1834,12.6184 0.20475,5.17028 -2.98957,15.19791 5.1474,12.3199 5.71998,3.7711 23.3013,-1.784 12.7979,-6.0111 -7.93824,-0.23094 -11.98709,1.6977 -9.8887,-8.02468 1.65595,-4.42964 -3.59139,-15.93267 3.1335,-14.66892 7.51708,4.14822 11.86045,-7.74076 2.8485,-6.3094 -11.96389,3.26106 -2.72742,-14.4238 -5.88018,-20.61241 -5.17798,-11.82281 22.08998,3.12527 12.83898,-11.02729 z"
         id="path32"
         inkscape:connector-curvature="0" /><path
         style="fill:#00a1e3;fill-opacity:1;fill-rule:nonzero;stroke:none"
         d="m 430.9121,318.2865 c -0.0677,26.58927 -0.90172,52.94554 -0.0406,79.2564 -0.79578,6.96954 -11.11971,2.20791 -16.0733,3.6099 -5.07613,-0.93988 -15.80698,2.05688 -15.097,-3.7037 -0.47448,-7.42191 -0.78225,-13.04872 -0.5292,-20.8735 -0.2531,-12.55742 -0.0937,-25.00839 0.3662,-38.1373 -0.42443,-10.31501 -0.60477,-21.38929 0.5902,-31.6242 9.03795,1.5884 31.67029,-7.90968 30.6618,7.141 0.0247,1.4348 0.23711,2.86603 0.1219,4.3314 z m -4.1505,46.0474 c -0.81707,-15.41868 6.47353,-59.21532 -21.7094,-42.124 -10.85123,9.88047 6.46893,34.18969 6.633,14.1565 -2.01892,-20.76499 9.21977,-8.80233 5.7986,2.88695 0.13967,15.15199 -0.24139,30.52441 0.8546,45.51435 15.25041,3.85123 5.53384,-11.50004 8.4232,-20.4338 z"
         id="path34"
         inkscape:connector-curvature="0" /><path
         style="fill:#00a1e3;fill-opacity:1;fill-rule:nonzero;stroke:none"
         d="m 461.6756,316.9684 c 1.051,11.91501 -0.001,23.23086 0.6106,34.7471 -0.92562,15.35723 6.4e-4,30.04738 -0.5289,45.3566 -2.67875,8.33229 -17.98945,0.81893 -24.7408,3.5158 -9.23104,1.9018 -5.5996,-10.51794 -6.3485,-16.1028 -0.127,-24.76969 0.94286,-48.99643 -0.0811,-73.8414 -0.80513,-9.61692 14.01808,-3.36494 19.98,-4.8812 5.25468,-0.0742 11.96551,-0.9243 11.1087,4.6145 -0.48581,2.61713 1.5182,4.84583 0,6.5914 z m -3.7839,-0.0944 c -5.93665,-0.0341 -8.92975,0.81288 -15.64227,0.3767 -7.20598,-2.90192 -5.96319,4.31121 -5.76223,7.706 -0.21102,11.20562 0.0295,24.31654 0.224,33.6328 0.80675,3.95987 -0.16563,8.36104 0.1831,12.6184 0.20588,5.16975 -2.99039,15.19772 5.1474,12.3199 5.7204,3.77143 23.30166,-1.78447 12.7976,-6.0111 -7.93823,-0.2307 -11.98636,1.69732 -9.8881,-8.02468 1.65602,-4.42956 -3.59146,-15.93268 3.1334,-14.66892 7.51689,4.1481 11.86014,-7.74019 2.8488,-6.3094 -11.96412,3.26142 -2.72803,-14.42359 -5.88038,-20.61241 -5.17833,-11.82275 22.0903,3.12502 12.83868,-11.02729 z"
         id="path36"
         inkscape:connector-curvature="0" /><path
         style="fill:#00a1e3;fill-opacity:1;fill-rule:nonzero;stroke:none"
         d="m 494.6366,318.0983 c 1.37942,9.99099 0.054,19.57391 0.57,29.317 0.22434,8.79095 -0.73759,18.54794 -0.2035,27.3708 -0.2066,8.8103 0.37063,17.8321 -0.8546,26.3508 -10.07467,0.94591 -22.39281,1.76411 -31.6182,-0.7375 -1.93117,-16.0251 -0.2212,-32.1277 -0.8547,-48.1187 0.96341,-14.71513 -0.18923,-30.09073 0.2852,-44.572 10.08736,-2.33574 21.67922,-0.67969 32.1063,-0.2355 0.1163,2.39406 0.92263,4.76109 0.8952,8.3024 2.04762,0.91805 -1.28656,0.89607 -0.3257,2.3227 z m -4.5167,45.2939 c -7.4623,-0.92717 -9.98775,0.59573 -8.5456,7.9095 1.35418,3.70053 -1.24361,12.95361 -4.7407,6.5138 -0.36083,-3.52337 0.78826,-14.08109 0.1021,-13.0111 1.32044,-9.66809 17.01405,-12.35267 13.3265,-24.4363 3.41993,-13.29223 -6.65962,-30.06782 -20.672,-19.7742 -4.79582,7.14796 -2.87007,15.74939 -2.4208,23.6826 10.07039,3.00012 9.94708,-4.38083 8.9113,-12.45557 -1.56296,-11.99067 8.51699,-6.56799 5.1276,2.50537 2.37417,9.54292 -2.51983,16.0679 -9.9697,20.5594 -8.08471,9.51187 -6.01683,36.13239 11.8009,30.5411 10.86265,-0.1204 6.81413,-15.14037 7.0804,-22.0346 z"
         id="path38"
         inkscape:connector-curvature="0" /><path
         style="fill:#00a1e3;fill-opacity:1;fill-rule:nonzero;stroke:none"
         d="m 523.5693,317.9256 c 1.20502,11.68335 0.032,23.1705 0.6105,34.5118 -0.75862,16.15818 -0.0535,31.49369 -0.4887,47.7735 -8.05881,3.03296 -21.27203,1.82399 -28.8102,0.0944 -0.31335,-30.2492 0.93632,-60.24328 -0.081,-90.2895 2.09272,-8.39157 15.93762,-1.49275 22.9099,-3.3117 7.21216,-1.18625 5.56075,4.0091 6.1236,8.9773 1.88586,0.91849 -1.2276,0.87468 -0.2641,2.2442 z m -2.8078,64.8647 c -2.71338,-5.62544 -9.96425,-3.68727 -7.4469,-13.9051 0.29826,-13.54867 -0.30024,-25.24116 -0.2437,-39.471 1.02741,-6.97662 0.46141,-12.68849 -8.0978,-10.2802 -2.68244,7.38971 0.14204,19.25052 -0.8141,28.3913 0.74273,10.1289 0.15933,21.03257 0.4881,31.6239 -6.01398,-1.22369 -7.69888,1.22452 -6.8567,5.8855 7.12657,1.33907 14.89615,0.41307 22.4825,0.4865 0.40921,-1.38497 -0.0981,-1.50177 0.4886,-2.7309 z"
         id="path40"
         inkscape:connector-curvature="0" /><path
         style="fill:#00a1e3;fill-opacity:1;fill-rule:nonzero;stroke:none"
         d="m 558.6055,318.3806 c 1.14619,8.15381 0.21038,16.87108 0.4878,24.3734 0.6361,10.28977 -1.1298,21.22404 0,31.6554 -0.8761,8.9529 0.46294,18.29945 -1.1182,27.0104 -10.99226,1.49138 -22.84062,0.54363 -33.8364,0.0939 -0.38536,-20.32386 -0.32859,-40.55476 0.3462,-60.7054 0.018,-10.80111 -1.04352,-22.85697 0.0609,-33.1622 10.85115,-1.17369 22.98872,-1.07921 33.5718,0.4705 -0.29021,2.10969 0.91648,4.61529 0.6914,7.9416 2.11039,1.06406 -1.23816,0.73177 -0.2035,2.3224 z m -25.0257,-0.8476 c 2.01175,1.20024 2.80194,-0.13384 0,0 z m 20.0205,0.6594 c -9.31151,-2.84796 -10.95331,5.65327 -8.9118,12.9007 0.85616,5.55066 -0.22379,26.64896 -6.1036,17.4206 -0.90142,-9.68184 2.07914,-22.65656 -1.4448,-30.3213 -12.44528,-3.409 -6.76608,10.91304 -7.7723,18.06853 -0.25041,7.31064 0.70003,15.47996 0.1831,20.90047 3.27478,8.97924 -7.2901,32.83209 7.63,29.6308 4.43826,-0.81758 14.32223,2.69272 16.4194,-5.3203 -0.78581,-8.74269 3.34478,-22.73277 -4.1507,-27.7161 9.8983,-7.11548 0.29774,-24.42537 4.4149,-34.6841 l -0.1624,-0.5964 -0.1018,-0.2829 0,0 z m -9.278,41.2449 c -0.0848,6.5549 1.44425,14.39775 -0.366,20.4338 -6.49513,2.99246 -5.21332,-2.80188 -5.1882,-6.8269 1.58116,-4.56018 -3.78695,-16.67679 2.8888,-16.2437 -1.38176,-1.45603 3.41546,1.80893 2.6654,2.6368 z"
         id="path42"
         inkscape:connector-curvature="0" /><path
         style="fill:#00a1e3;fill-opacity:1;fill-rule:nonzero;stroke:none"
         d="m 611.2205,317.2666 c 1.38332,10.67851 -0.10915,21.02783 0.6108,31.4198 -0.71561,16.69791 -0.0344,32.72456 -0.4887,49.6414 -5.13229,6.64462 -19.37357,0.46841 -27.4062,2.558 -6.78125,-0.72034 -1.60255,-12.28158 -3.2351,-17.5306 0.0907,-24.79554 0.92314,-49.5246 0,-73.9987 2.00746,-7.7851 15.404,-1.48987 21.7304,-3.1232 5.40045,-0.75209 9.57657,0.0234 8.7888,4.7083 -0.35495,2.52315 1.54889,4.42601 0,6.325 z m -3.9062,56.484 c -0.44968,-16.84088 1.05509,-34.63123 -0.9768,-51.0537 -4.70332,-8.98126 -22.3503,-6.92961 -21.2414,4.4413 -1.06083,16.14248 0.46868,32.87032 -0.2441,48.4328 -3.62346,7.01508 5.01904,12.0989 8.1383,6.5129 0.3717,-7.74834 -0.18369,-16.58094 0.2852,-21.2341 0.36284,-12.26315 -0.68112,-24.68401 0.4271,-36.5051 9.28167,-2.36087 3.93591,12.66181 5.1883,18.6761 0.17152,13.64061 -0.2459,27.32207 0,40.8996 10.13836,1.90696 8.94515,-1.19117 8.4234,-10.1698 z"
         id="path44"
         inkscape:connector-curvature="0" /><path
         style="fill:#00a1e3;fill-opacity:1;fill-rule:nonzero;stroke:none"
         d="m 651.0178,317.533 c 1.23474,6.30032 0.208,12.79866 0.6922,19.336 -0.96465,3.45414 0.36872,10.88634 0.0405,15.4117 -1.29036,10.36381 -0.003,19.62254 -0.3665,29.5523 -0.7502,6.00666 0.50104,13.10858 -1.1597,18.8334 -12.49334,1.50968 -25.71181,0.50226 -38.2509,0.0938 -3.5138,-13.4454 -0.57854,-27.87348 -1.5668,-41.5584 0.72491,-16.7896 0.22145,-33.96246 0.2039,-50.3317 5.47338,-7.00947 21.23655,-0.67667 30.3361,-2.4798 6.23179,-0.73385 10.82901,0.0649 10.0102,5.3518 -0.43484,2.98733 2.19035,3.87327 0.061,5.7909 z m -4.1505,65.5399 c -0.55052,-21.63539 -0.32454,-43.43942 -1.0987,-65.1784 -13.11632,-5.68996 -7.23388,12.10998 -7.9351,19.131 1.24093,13.58094 -2.20166,7.63709 -2.5636,-2.9186 -1.61249,-4.36783 -0.46948,-12.05624 -3.4183,-16.9503 -7.59474,0.33881 -3.08606,14.50048 -5.7376,20.14108 -1.08269,9.4791 -2.58958,10.74916 -2.4412,0.0104 0.63542,-6.34808 -0.54578,-12.8547 0.8543,-19.4922 -4.35151,-1.28393 -12.21026,-1.52044 -9.7662,5.15777 -0.002,20.28895 0.9181,39.5193 1.2209,59.51863 4.35706,6.9811 15.55035,-0.5966 10.9871,-8.0197 1.51009,-3.03062 0.31917,-7.9509 1.4647,-9.0088 0.85715,-2.87515 1.9184,-11.61236 2.645,-11.9276 2.23736,8.98177 4.32367,20.77991 6.0225,31.2315 2.07391,-1.39899 9.94013,2.1638 9.7662,-1.6948 z"
         id="path46"
         inkscape:connector-curvature="0" /><path
         style="fill:#00a1e3;fill-opacity:1;fill-rule:nonzero;stroke:none"
         d="m 670.7942,378.8354 c -12.31016,-3.51051 -2.02862,-30.16442 -6.3476,-42.08128 -2.80038,-16.72848 10.17713,-12.32076 5.96625,3.97924 -0.57266,12.67456 1.30231,25.53709 0.38135,38.10204 z m 13.0624,-60.4548 c 1.19238,10.28426 -0.13642,20.02979 0.6105,29.9452 -0.7333,11.25833 -0.27807,22.86488 -0.3665,34.2762 -0.43493,6.07393 0.34769,12.89133 -0.8543,18.8178 -10.07596,0.94644 -22.39148,1.7624 -31.6182,-0.7378 -1.9222,-16.06104 -0.17503,-32.11304 -0.8547,-48.119 1.03332,-14.60828 -0.27733,-30.16365 0.3461,-44.5717 10.04108,-2.3385 21.66873,-0.679 32.1064,-0.2355 -0.0501,2.41976 0.96367,4.73871 0.8342,8.3024 2.06179,0.90226 -1.32835,0.90728 -0.2035,2.3224 z m -4.6386,49.6256 c -0.63689,-14.79533 0.62621,-29.77087 -1.5872,-44.8229 -5.98985,-9.24733 -24.75284,-5.95921 -22.0555,7.2349 3.28447,17.43439 -6.16206,41.87925 7.2282,54.39488 8.86217,3.07688 20.76563,-1.96743 16.6588,-14.21718 l -0.2443,-2.5897 0,0 z m -6.7142,29.1914 c -5.28038,-17.28256 -17.53049,3.12362 -4.151,2.166 2.14681,-0.33674 7.52885,1.76422 4.151,-2.166 z"
         id="path48"
         inkscape:connector-curvature="0" /><path
         style="fill:#00a1e3;fill-opacity:1;fill-rule:nonzero;stroke:none"
         d="m 727.194,318.7573 c -0.41625,16.8294 0.0266,33.34867 -0.6712,50.1279 -0.1559,10.3055 0.98408,21.71271 0.1627,31.7339 -13.28958,1.90548 -27.63776,0.80176 -41.0182,0.1099 0.18778,-2.22223 -0.98945,-4.2984 -0.9765,-7.9574 -0.3181,-4.18742 -0.73768,-8.47167 -0.2242,-13.6695 -1.12979,-8.07311 0.966,-13.51905 -0.671,-21.6266 1.12162,-7.76448 0.98944,-17.53729 0.6106,-25.2369 0.13253,-8.09733 0.38997,-15.91201 0.4269,-24.122 11.54606,-0.70059 34.30702,-6.03505 41.6897,2.6992 0.55326,2.77541 0.89475,5.1248 0.6712,7.9415 z m -4.3945,62.3381 c -2.45973,-20.67137 -2.92412,-43.24987 -6.6535,-62.7304 -12.85094,-2.3392 -7.08328,17.26737 -10.4374,25.6604 -0.41219,3.22577 0.36467,10.21011 -0.9159,5.6812 -3.03267,-9.11032 3.78745,-32.50767 -9.8476,-31.6236 -5.59965,17.54108 -4.01898,40.9027 -7.1005,60.3603 -0.0157,17.37706 15.84734,-2.68821 9.4405,-13.4504 0.22882,-19.27331 2.47573,-1.18427 3.9269,7.0623 2.57835,5.91711 -4.1832,14.96817 6.2053,12.9951 3.6838,-0.71419 0.61984,-6.79205 2.6861,-8.8517 1.41672,-7.95336 0.47882,-17.02341 2.2581,-23.353 0.0665,5.6706 1.4377,16.13774 1.4043,22.6936 -4.34143,8.35988 9.15434,14.73479 9.0337,5.5562 z"
         id="path50"
         inkscape:connector-curvature="0" /></g></g></svg>