<?xml version="1.0" encoding="UTF-8" standalone="no"?>
<!-- Created with Inkscape (http://www.inkscape.org/) -->

<svg
   xmlns:dc="http://purl.org/dc/elements/1.1/"
   xmlns:cc="http://creativecommons.org/ns#"
   xmlns:rdf="http://www.w3.org/1999/02/22-rdf-syntax-ns#"
   xmlns:svg="http://www.w3.org/2000/svg"
   xmlns="http://www.w3.org/2000/svg"
   xmlns:sodipodi="http://sodipodi.sourceforge.net/DTD/sodipodi-0.dtd"
   xmlns:inkscape="http://www.inkscape.org/namespaces/inkscape"
   width="20.329174mm"
   height="18.971235mm"
   viewBox="0 0 72.032506 67.220912"
   id="svg59057"
   version="1.1"
   inkscape:version="0.91 r13725"
   sodipodi:docname="10.svg">
  <defs
     id="defs59059" />
  <sodipodi:namedview
     id="base"
     pagecolor="#ffffff"
     bordercolor="#666666"
     borderopacity="1.0"
     inkscape:pageopacity="0.0"
     inkscape:pageshadow="2"
     inkscape:zoom="3.959798"
     inkscape:cx="-4.2291409"
     inkscape:cy="27.143701"
     inkscape:document-units="px"
     inkscape:current-layer="layer1"
     showgrid="false"
     fit-margin-top="0"
     fit-margin-left="0"
     fit-margin-right="0"
     fit-margin-bottom="0"
     inkscape:window-width="1920"
     inkscape:window-height="1029"
     inkscape:window-x="0"
     inkscape:window-y="25"
     inkscape:window-maximized="1" />
  <metadata
     id="metadata59062">
    <rdf:RDF>
      <cc:Work
         rdf:about="">
        <dc:format>image/svg+xml</dc:format>
        <dc:type
           rdf:resource="http://purl.org/dc/dcmitype/StillImage" />
        <dc:title></dc:title>
      </cc:Work>
    </rdf:RDF>
  </metadata>
  <g
     inkscape:label="Layer 1"
     inkscape:groupmode="layer"
     id="layer1"
     transform="translate(-503.98374,-395.89461)">
    <g
       transform="matrix(1.25,0,0,-1.25,-133.71729,963.8679)"
       id="g312">
      <g
         id="g314">
        <path
           d="m 510.6348,418.4864 20.6362,0 c -1.8709,-1.8425 -3.8551,-3.7134 -6.463,-4.4787 -3.1748,-0.9638 -6.7465,-0.7937 -9.6945,0.7937 -1.7008,0.907 -3.4299,2.0126 -4.4787,3.685 z"
           style="fill:#00a1e3;fill-opacity:1;fill-rule:nonzero;stroke:#00a1e3;stroke-width:0.21600001;stroke-linecap:butt;stroke-linejoin:miter;stroke-miterlimit:22.92558479;stroke-dasharray:none;stroke-opacity:1"
           id="path316"
           inkscape:connector-curvature="0" />
        <path
           d="m 531.271,418.4014 -20.6362,0 0,0.17 20.6362,0 0.0567,-0.1417 -0.0567,-0.0283 z m 0,0.17 0.1984,0 -0.1417,-0.1417 -0.0567,0.1417 z m -6.4347,-4.6488 -0.0566,0.1417 0,0 0.2551,0.0851 0.2267,0.085 0.2268,0.0851 0.2268,0.085 0.2268,0.1134 0.2267,0.085 0.2268,0.1134 0.2268,0.1134 0.1984,0.1134 0.2268,0.1417 0.1984,0.1134 0.1984,0.1417 0.2268,0.1418 0.1984,0.1417 0.1984,0.1417 0.1985,0.1418 0.1984,0.1417 0.1984,0.1701 0.1701,0.1417 0.1984,0.1701 0.1984,0.1701 0.1701,0.1417 0.1985,0.1701 0.17,0.1701 0.1985,0.17 0.17,0.1701 0.1985,0.1701 0.17,0.1701 0.1701,0.1701 0.1701,0.17 0.1984,0.1701 0.1701,0.1701 0.1134,-0.1134 -0.1701,-0.1701 -0.1984,-0.1701 -0.1701,-0.17 -0.1701,-0.1701 -0.1701,-0.1701 -0.1984,-0.1701 -0.1701,-0.1701 -0.1984,-0.17 -0.1701,-0.1701 -0.1984,-0.1701 -0.1701,-0.1701 -0.1984,-0.17 -0.1984,-0.1418 -0.1984,-0.1701 -0.1985,-0.1417 -0.1984,-0.1701 -0.1984,-0.1417 -0.1984,-0.1417 -0.1985,-0.1418 -0.1984,-0.1417 -0.2268,-0.1417 -0.1984,-0.1134 -0.2268,-0.1417 -0.1984,-0.1134 -0.2268,-0.1134 -0.2267,-0.1134 -0.2268,-0.1134 -0.2268,-0.085 -0.2551,-0.0851 -0.2268,-0.1134 -0.2267,-0.085 -0.2552,-0.0567 z m -9.7511,0.7937 0.085,0.1417 0,0 0.2551,-0.1417 0.2835,-0.1417 0.2835,-0.1134 0.2834,-0.1134 0.2835,-0.1134 0.3118,-0.1134 0.2835,-0.085 0.3118,-0.085 0.2834,-0.0851 0.3118,-0.0567 0.2835,-0.085 0.3118,-0.0567 0.3118,-0.0284 0.3118,-0.0566 0.3119,-0.0284 0.2834,-0.0283 0.3118,-0.0284 0.3118,0 0.3118,0 0.3119,0 0.3118,0 0.3118,0.0284 0.3118,0.0283 0.3118,0.0284 0.3118,0.0283 0.2835,0.0567 0.3118,0.0567 0.3118,0.0567 0.3118,0.0567 0.2835,0.085 0.3118,0.0567 0.2835,0.085 0.0566,-0.1417 -0.3118,-0.085 -0.2834,-0.0851 -0.3118,-0.085 -0.3119,-0.0567 -0.3118,-0.0567 -0.3118,-0.0567 -0.3118,-0.0283 -0.3118,-0.0567 -0.3118,-0.0284 -0.3118,-0.0283 -0.3118,0 -0.3118,-0.0284 -0.3119,0 -0.3118,0 -0.3118,0.0284 -0.3118,0 -0.3118,0.0283 -0.3118,0.0284 -0.3118,0.0567 -0.3118,0.0283 -0.3118,0.0567 -0.3118,0.085 -0.2835,0.0567 -0.3118,0.0851 -0.3118,0.085 -0.2835,0.1134 -0.3118,0.085 -0.2835,0.1134 -0.2834,0.1418 -0.2835,0.1134 -0.2835,0.1417 -0.2834,0.1417 z m -4.4504,3.6851 0,0.17 0.0567,-0.0283 0.1134,-0.1701 0.1133,-0.1417 0.0851,-0.1418 0.1134,-0.1417 0.1133,-0.1417 0.1134,-0.1418 0.1418,-0.1417 0.1134,-0.1417 0.1133,-0.1134 0.1418,-0.1417 0.1134,-0.1134 0.1417,-0.1134 0.1417,-0.1417 0.1418,-0.1134 0.1417,-0.1134 0.1417,-0.1134 0.1417,-0.1134 0.1418,-0.085 0.1701,-0.1134 0.1417,-0.1134 0.1417,-0.1134 0.1701,-0.085 0.1417,-0.1134 0.1701,-0.085 0.1417,-0.0851 0.1701,-0.1134 0.1418,-0.085 0.17,-0.085 0.1701,-0.0851 0.1417,-0.1134 0.1701,-0.085 0.1701,-0.0851 -0.085,-0.1417 -0.1701,0.0851 -0.1701,0.085 -0.1417,0.085 -0.1701,0.1134 -0.1701,0.0851 -0.1417,0.085 -0.1701,0.1134 -0.1417,0.085 -0.1701,0.0851 -0.1701,0.1133 -0.1417,0.1134 -0.1417,0.0851 -0.1701,0.1134 -0.1418,0.1133 -0.1417,0.1134 -0.1701,0.1134 -0.1417,0.1134 -0.1417,0.1134 -0.1418,0.1134 -0.1417,0.1134 -0.1417,0.1417 -0.1134,0.1134 -0.1417,0.1417 -0.1134,0.1134 -0.1418,0.1417 -0.1134,0.1418 -0.1133,0.1417 -0.1418,0.1417 -0.085,0.1418 -0.1134,0.17 -0.1134,0.1418 -0.1134,0.17 0.0851,-0.0566 z m 0,0.17 0.0567,0 0,-0.0283 -0.0567,0.0283 z m 0,0 0,0 0,-0.17 0,0 0,0.17 z"
           style="fill:#00a1e3;fill-opacity:1;fill-rule:nonzero;stroke:#00a1e3;stroke-width:0.21600001;stroke-linecap:butt;stroke-linejoin:miter;stroke-miterlimit:22.92558479;stroke-dasharray:none;stroke-opacity:1"
           id="path318"
           inkscape:connector-curvature="0" />
      </g>
      <g
         id="g320">
        <path
           d="m 511.8537,418.3163 9.6094,26.0221 -9.6094,-26.0221 z"
           style="fill:#00a1e3;fill-opacity:1;fill-rule:nonzero;stroke:#00a1e3;stroke-width:0.21600001;stroke-linecap:butt;stroke-linejoin:miter;stroke-miterlimit:22.92558479;stroke-dasharray:none;stroke-opacity:1"
           id="path322"
           inkscape:connector-curvature="0" />
        <path
           d="m 521.9167,444.1683 -9.5811,-26.0221 -0.9355,0.3402 9.5811,26.0504 0.9355,-0.3685 z m -10.5166,-25.6819 9.5811,26.0504 0.9355,-0.3685 -9.5811,-26.0221 -0.9355,0.3402 z"
           style="fill:#00a1e3;fill-opacity:1;fill-rule:nonzero;stroke:#00a1e3;stroke-width:0.21600001;stroke-linecap:butt;stroke-linejoin:miter;stroke-miterlimit:22.92558479;stroke-dasharray:none;stroke-opacity:1"
           id="path324"
           inkscape:connector-curvature="0" />
      </g>
      <g
         id="g326">
        <path
           d="m 530.0237,418.1179 -9.5811,26.022 9.5811,-26.022 z"
           style="fill:#00a1e3;fill-opacity:1;fill-rule:nonzero;stroke:#00a1e3;stroke-width:0.21600001;stroke-linecap:butt;stroke-linejoin:miter;stroke-miterlimit:22.92558479;stroke-dasharray:none;stroke-opacity:1"
           id="path328"
           inkscape:connector-curvature="0" />
        <path
           d="m 520.8962,444.31 9.6094,-26.022 -0.9354,-0.3685 -9.6094,26.0504 0.9354,0.3401 z m 8.674,-26.3905 -9.6094,26.0504 0.9354,0.3401 9.6094,-26.022 -0.9354,-0.3685 z"
           style="fill:#00a1e3;fill-opacity:1;fill-rule:nonzero;stroke:#00a1e3;stroke-width:0.21600001;stroke-linecap:butt;stroke-linejoin:miter;stroke-miterlimit:22.92558479;stroke-dasharray:none;stroke-opacity:1"
           id="path330"
           inkscape:connector-curvature="0" />
      </g>
      <g
         id="g332">
        <path
           d="m 546.6915,418.4864 20.6362,0 c -1.8709,-1.8425 -3.8551,-3.7134 -6.463,-4.4787 -3.1748,-0.9638 -6.7465,-0.7937 -9.6945,0.7937 -1.7008,0.907 -3.4299,2.0126 -4.4787,3.685 z"
           style="fill:#00a1e3;fill-opacity:1;fill-rule:nonzero;stroke:#00a1e3;stroke-width:0.21600001;stroke-linecap:butt;stroke-linejoin:miter;stroke-miterlimit:22.92558479;stroke-dasharray:none;stroke-opacity:1"
           id="path334"
           inkscape:connector-curvature="0" />
        <path
           d="m 567.3277,418.4014 -20.6362,0 0,0.17 20.6362,0 0.0567,-0.1417 -0.0567,-0.0283 z m 0,0.17 0.1984,0 -0.1417,-0.1417 -0.0567,0.1417 z m -6.4347,-4.6488 -0.0567,0.1417 0,0 0.2552,0.0851 0.2267,0.085 0.2268,0.0851 0.2268,0.085 0.2268,0.1134 0.2267,0.085 0.2268,0.1134 0.2268,0.1134 0.1984,0.1134 0.2268,0.1417 0.1984,0.1134 0.2268,0.1417 0.1984,0.1418 0.1984,0.1417 0.1984,0.1417 0.1985,0.1418 0.1984,0.1417 0.1984,0.1701 0.1701,0.1417 0.1984,0.1701 0.1984,0.1701 0.1701,0.1417 0.1984,0.1701 0.1701,0.1701 0.1984,0.17 0.1701,0.1701 0.1985,0.1701 0.17,0.1701 0.1701,0.1701 0.1701,0.17 0.1984,0.1701 0.1701,0.1701 0.1134,-0.1134 -0.1701,-0.1701 -0.1701,-0.1701 -0.1984,-0.17 -0.1701,-0.1701 -0.1701,-0.1701 -0.1984,-0.1701 -0.1701,-0.1701 -0.1984,-0.17 -0.1701,-0.1701 -0.1984,-0.1701 -0.1701,-0.1701 -0.1984,-0.17 -0.1984,-0.1418 -0.1984,-0.1701 -0.1701,-0.1417 -0.1985,-0.1701 -0.2267,-0.1417 -0.1985,-0.1417 -0.1984,-0.1418 -0.1984,-0.1417 -0.2268,-0.1417 -0.1984,-0.1134 -0.2268,-0.1417 -0.1984,-0.1134 -0.2268,-0.1134 -0.2267,-0.1134 -0.2268,-0.1134 -0.2268,-0.085 -0.2268,-0.0851 -0.2551,-0.1134 -0.2267,-0.085 -0.2552,-0.0567 z m -9.7511,0.7937 0.085,0.1417 0,0 0.2551,-0.1417 0.2835,-0.1417 0.2834,-0.1134 0.2835,-0.1134 0.3118,-0.1134 0.2835,-0.1134 0.2834,-0.085 0.3119,-0.085 0.2834,-0.0851 0.3118,-0.0567 0.2835,-0.085 0.3118,-0.0567 0.3118,-0.0284 0.3118,-0.0566 0.3118,-0.0284 0.2835,-0.0283 0.3118,-0.0284 0.3118,0 0.3118,0 0.3119,0 0.3118,0 0.3118,0.0284 0.3118,0.0283 0.3118,0.0284 0.3118,0.0283 0.3118,0.0567 0.2835,0.0567 0.3118,0.0567 0.3118,0.0567 0.2835,0.085 0.3118,0.0567 0.2834,0.085 0.0567,-0.1417 -0.2834,-0.085 -0.3118,-0.0851 -0.3118,-0.085 -0.3119,-0.0567 -0.3118,-0.0567 -0.3118,-0.0567 -0.3118,-0.0283 -0.3118,-0.0567 -0.3118,-0.0284 -0.3118,-0.0283 -0.3118,0 -0.3118,-0.0284 -0.3119,0 -0.3118,0 -0.3118,0.0284 -0.3118,0 -0.3118,0.0283 -0.3118,0.0284 -0.3118,0.0567 -0.3118,0.0283 -0.3118,0.0567 -0.3119,0.085 -0.2834,0.0567 -0.3118,0.0851 -0.3118,0.085 -0.2835,0.1134 -0.2835,0.085 -0.3118,0.1134 -0.2834,0.1418 -0.2835,0.1134 -0.2835,0.1417 -0.2834,0.1417 z m -4.4504,3.8551 0,-0.17 0.0567,0.1417 0.1133,-0.1701 0.1134,-0.1417 0.0851,-0.1418 0.1134,-0.1417 0.1133,-0.1417 0.1134,-0.1418 0.1418,-0.1417 0.1133,-0.1417 0.1134,-0.1134 0.1418,-0.1417 0.1417,-0.1134 0.1134,-0.1134 0.1417,-0.1417 0.1417,-0.1134 0.1418,-0.1134 0.1417,-0.1134 0.1417,-0.1134 0.1418,-0.085 0.1701,-0.1134 0.1417,-0.1134 0.1417,-0.1134 0.1701,-0.085 0.1417,-0.1134 0.1701,-0.085 0.1417,-0.0851 0.1701,-0.1134 0.1418,-0.085 0.17,-0.085 0.1701,-0.0851 0.1417,-0.1134 0.1701,-0.085 0.1701,-0.0851 -0.085,-0.1417 -0.1701,0.0851 -0.1701,0.085 -0.1417,0.085 -0.1701,0.1134 -0.1701,0.0851 -0.1417,0.085 -0.1701,0.1134 -0.1417,0.085 -0.1701,0.0851 -0.1417,0.1133 -0.1701,0.1134 -0.1418,0.0851 -0.17,0.1134 -0.1418,0.1133 -0.1417,0.1134 -0.1701,0.1134 -0.1417,0.1134 -0.1417,0.1134 -0.1418,0.1134 -0.1417,0.1134 -0.1134,0.1417 -0.1417,0.1134 -0.1418,0.1417 -0.1133,0.1134 -0.1418,0.1417 -0.1134,0.1418 -0.1133,0.1417 -0.1134,0.1417 -0.1134,0.1418 -0.1134,0.17 -0.1134,0.1418 -0.1134,0.17 0.0851,0.1134 z m -0.0851,-0.1134 -0.0567,0.1134 0.1418,0 -0.0851,-0.1134 z"
           style="fill:#00a1e3;fill-opacity:1;fill-rule:nonzero;stroke:#00a1e3;stroke-width:0.21600001;stroke-linecap:butt;stroke-linejoin:miter;stroke-miterlimit:22.92558479;stroke-dasharray:none;stroke-opacity:1"
           id="path336"
           inkscape:connector-curvature="0" />
      </g>
      <g
         id="g338">
        <path
           d="m 547.9104,418.3163 9.6094,26.0221 -9.6094,-26.0221 z"
           style="fill:#00a1e3;fill-opacity:1;fill-rule:nonzero;stroke:#00a1e3;stroke-width:0.21600001;stroke-linecap:butt;stroke-linejoin:miter;stroke-miterlimit:22.92558479;stroke-dasharray:none;stroke-opacity:1"
           id="path340"
           inkscape:connector-curvature="0" />
        <path
           d="m 558.0017,444.1683 -9.6094,-26.0221 -0.9355,0.3402 9.5811,26.0504 0.9638,-0.3685 z m -10.5449,-25.6819 9.5811,26.0504 0.9638,-0.3685 -9.6094,-26.0221 -0.9355,0.3402 z"
           style="fill:#00a1e3;fill-opacity:1;fill-rule:nonzero;stroke:#00a1e3;stroke-width:0.21600001;stroke-linecap:butt;stroke-linejoin:miter;stroke-miterlimit:22.92558479;stroke-dasharray:none;stroke-opacity:1"
           id="path342"
           inkscape:connector-curvature="0" />
      </g>
      <g
         id="g344">
        <path
           d="m 566.0804,418.1179 -9.5811,26.022 9.5811,-26.022 z"
           style="fill:#00a1e3;fill-opacity:1;fill-rule:nonzero;stroke:#00a1e3;stroke-width:0.21600001;stroke-linecap:butt;stroke-linejoin:miter;stroke-miterlimit:22.92558479;stroke-dasharray:none;stroke-opacity:1"
           id="path346"
           inkscape:connector-curvature="0" />
        <path
           d="m 556.9812,444.31 9.5811,-26.022 -0.9354,-0.3685 -9.6095,26.0504 0.9638,0.3401 z m 8.6457,-26.3905 -9.6095,26.0504 0.9638,0.3401 9.5811,-26.022 -0.9354,-0.3685 z"
           style="fill:#00a1e3;fill-opacity:1;fill-rule:nonzero;stroke:#00a1e3;stroke-width:0.21600001;stroke-linecap:butt;stroke-linejoin:miter;stroke-miterlimit:22.92558479;stroke-dasharray:none;stroke-opacity:1"
           id="path348"
           inkscape:connector-curvature="0" />
      </g>
      <g
         id="g350">
        <path
           d="m 524.1277,400.9116 29.7071,0 c 0,0 -10.1764,1.8142 -13.0394,5.5842 -0.9071,1.2189 0.1417,3.0331 0.085,4.5638 l -1.1055,31.8614 -1.474,0 -1.1055,-31.8614 c -0.0567,-1.5307 0.9354,-3.3449 0,-4.5638 -2.863,-3.7417 -13.0677,-5.5842 -13.0677,-5.5842 z"
           style="fill:#00a1e3;fill-opacity:1;fill-rule:nonzero;stroke:#00a1e3;stroke-width:0.21600001;stroke-linecap:butt;stroke-linejoin:miter;stroke-miterlimit:22.92558479;stroke-dasharray:none;stroke-opacity:1"
           id="path352"
           inkscape:connector-curvature="0" />
        <path
           d="m 553.8348,400.8266 -29.7071,0 0,0.17 29.7071,0 0,0 0,-0.17 z m -13.0961,5.6125 0.1417,0.1134 0,0 0.2835,-0.3401 0.3118,-0.3402 0.3685,-0.3118 0.3969,-0.3118 0.4252,-0.3118 0.4535,-0.2835 0.4536,-0.2834 0.5102,-0.2552 0.5102,-0.2551 0.5386,-0.2551 0.5386,-0.2268 0.5386,-0.2267 0.5386,-0.1985 0.5669,-0.1984 0.5386,-0.1984 0.5669,-0.1701 0.5386,-0.1701 0.5102,-0.1701 0.5103,-0.1417 0.5102,-0.1134 0.4535,-0.1417 0.4536,-0.1134 0.4252,-0.085 0.3968,-0.1134 0.3402,-0.0567 0.3118,-0.085 0.2835,-0.0567 0.2551,-0.0567 0.1701,-0.0284 0.1417,-0.0283 0.085,0 0.0284,-0.0284 -0.0284,-0.17 -0.0283,0.0283 -0.0851,0 -0.1417,0.0283 -0.1984,0.0567 -0.2268,0.0284 -0.2835,0.0567 -0.3118,0.085 -0.3685,0.0851 -0.3685,0.085 -0.4252,0.085 -0.4535,0.1134 -0.4819,0.1418 -0.4819,0.1417 -0.5386,0.1417 -0.5102,0.1417 -0.5386,0.1701 -0.5669,0.1985 -0.5386,0.17 -0.5669,0.1985 -0.5386,0.2267 -0.5669,0.2268 -0.5386,0.2268 -0.5103,0.2551 -0.5385,0.2551 -0.4819,0.2551 -0.4819,0.2835 -0.4819,0.3118 -0.4252,0.2835 -0.3969,0.3118 -0.3685,0.3401 -0.3401,0.3402 -0.2835,0.3401 z m 0.0567,4.6205 0.1701,0 0,0 0,-0.1417 0,-0.1417 0,-0.1701 -0.0284,-0.1418 -0.0283,-0.1417 0,-0.1417 -0.0284,-0.1701 -0.0283,-0.1417 -0.0284,-0.1701 -0.0283,-0.1417 -0.0567,-0.1418 -0.0283,-0.1701 -0.0284,-0.1417 -0.0283,-0.1417 -0.0284,-0.1701 -0.0283,-0.1417 -0.0284,-0.1418 -0.0283,-0.1417 0,-0.1417 -0.0284,-0.1418 0,-0.1417 0,-0.1417 0,-0.1418 0,-0.1417 0.0284,-0.1134 0.0283,-0.1417 0.0284,-0.1134 0.0283,-0.1417 0.0567,-0.1134 0.0567,-0.1134 0.0567,-0.1134 0.085,-0.1134 -0.1417,-0.1134 -0.085,0.1418 -0.0851,0.1134 -0.0567,0.1417 -0.0567,0.1134 -0.0283,0.1417 -0.0283,0.1418 -0.0284,0.1417 -0.0283,0.1417 0,0.1417 0,0.1418 0,0.1417 0,0.1417 0.0283,0.1418 0.0284,0.1701 0,0.1417 0.0283,0.1417 0.0283,0.1701 0.0284,0.1417 0.0283,0.1418 0.0284,0.17 0.0567,0.1418 0.0283,0.1417 0.0284,0.1701 0.0283,0.1417 0.0284,0.1417 0.0283,0.1418 0,0.1701 0.0284,0.1417 0.0283,0.1417 0,0.1418 0,0.1417 0,0.1417 z m -0.9354,31.8898 1.1055,-31.8898 -0.1701,0 -1.1055,31.8614 0.085,0.0851 0.0851,-0.0567 z m -0.0851,0.0567 0.0851,0 0,-0.0567 -0.0851,0.0567 z m -1.474,0 1.474,0 0,-0.1701 -1.474,0 -0.085,0.1134 0.085,0.0567 z m -0.085,-0.0567 0,0.0567 0.085,0 -0.085,-0.0567 z m -1.1055,-31.8898 1.1055,31.8898 0.1701,-0.0284 -1.1056,-31.8614 -0.17,0 z m 0.17,-4.6205 -0.1417,0.1134 0,0 0.085,0.1134 0.0567,0.1134 0.0567,0.1134 0.0567,0.1134 0.0567,0.1417 0.0284,0.1134 0.0283,0.1417 0,0.1134 0.0284,0.1417 0,0.1418 0,0.1417 -0.0284,0.1417 0,0.1418 -0.0283,0.1417 0,0.1417 -0.0284,0.1418 -0.0283,0.1417 -0.0284,0.1701 -0.0283,0.1417 -0.0284,0.1417 -0.0283,0.1701 -0.0284,0.1418 -0.0283,0.1417 -0.0284,0.1701 -0.0283,0.1417 -0.0283,0.1701 0,0.1417 -0.0284,0.1417 -0.0283,0.1418 0,0.1701 0,0.1417 0,0.1417 0.17,0 0,-0.1417 0,-0.1417 0,-0.1418 0.0284,-0.1417 0,-0.1417 0.0283,-0.1701 0.0284,-0.1418 0.0283,-0.1417 0.0284,-0.1417 0.0283,-0.1701 0.0284,-0.1417 0.0283,-0.1701 0.0284,-0.1417 0.0283,-0.1418 0.0284,-0.17 0.0283,-0.1418 0.0283,-0.1417 0,-0.1701 0.0284,-0.1417 0,-0.1418 0.0283,-0.1417 0,-0.1417 -0.0283,-0.1418 0,-0.1417 -0.0284,-0.1417 -0.0283,-0.1417 -0.0283,-0.1418 -0.0284,-0.1417 -0.0567,-0.1134 -0.085,-0.1417 -0.0567,-0.1134 -0.0851,-0.1418 z m -13.1527,-5.6125 0,0.17 0,0 0.0283,0.0284 0.0851,0 0.1417,0.0283 0.1701,0.0284 0.2551,0.0567 0.2551,0.0567 0.3402,0.085 0.3401,0.0567 0.3969,0.1134 0.4252,0.085 0.4535,0.1134 0.4819,0.1417 0.4819,0.1134 0.5102,0.1417 0.5386,0.1701 0.5386,0.1701 0.5386,0.1701 0.5669,0.1984 0.5386,0.1984 0.5669,0.1985 0.5386,0.2267 0.5386,0.2552 0.5386,0.2267 0.5102,0.2551 0.5102,0.2835 0.4819,0.2551 0.4536,0.3118 0.4252,0.2835 0.3968,0.3118 0.3402,0.3118 0.3401,0.3402 0.2835,0.3401 0.1417,-0.1134 -0.3118,-0.3401 -0.3118,-0.3402 -0.3968,-0.3401 -0.3969,-0.3118 -0.4252,-0.2835 -0.4535,-0.3118 -0.4819,-0.2835 -0.5102,-0.2551 -0.5386,-0.2551 -0.5103,-0.2551 -0.5669,-0.2268 -0.5386,-0.2268 -0.5669,-0.2267 -0.5386,-0.1985 -0.5669,-0.17 -0.5386,-0.1985 -0.5669,-0.1701 -0.5103,-0.1417 -0.5102,-0.1417 -0.5102,-0.1417 -0.4819,-0.1418 -0.4536,-0.1134 -0.4252,-0.085 -0.3685,-0.085 -0.3685,-0.0851 -0.3118,-0.085 -0.2835,-0.0567 -0.2551,-0.0284 -0.1701,-0.0567 -0.1417,-0.0283 -0.085,0 -0.0284,-0.0283 -0.0283,0 z m 0.0283,0 -0.0283,0 0,0 0.0283,0 z m -0.0283,0.17 0,0 0,-0.17 0,0 0,0.17 z"
           style="fill:#00a1e3;fill-opacity:1;fill-rule:nonzero;stroke:#00a1e3;stroke-width:0.21600001;stroke-linecap:butt;stroke-linejoin:miter;stroke-miterlimit:22.92558479;stroke-dasharray:none;stroke-opacity:1"
           id="path354"
           inkscape:connector-curvature="0" />
      </g>
      <g
         id="g356">
        <path
           d="m 559.2206,442.6092 -40.4787,0 -0.2268,2.3528 c -0.0284,0.1134 0,0.3118 0.1134,0.3685 0.1417,0.085 0.2834,-0.0567 0.4252,-0.0284 5.0456,0.1701 9.7512,3.515 14.8252,2.6363 1.2189,-0.1985 2.2677,-0.652 3.1464,-1.5024 0.1134,-0.085 0.3402,-0.3118 0.3402,-0.3118 0.4535,-0.4536 0.6519,0.1701 0.8504,0.7653 0.3685,1.304 0.6803,7.1434 0.7653,7.1434 0.0851,0 0.3685,-5.8394 0.7654,-7.1434 0.1984,-0.5952 0.3685,-1.2189 0.8504,-0.7653 0,0 0.1984,0.2268 0.3118,0.3118 0.8504,0.9354 1.9559,1.3606 3.1464,1.5024 5.0457,0.6803 9.893,-1.9559 14.8536,-2.6363 0.1134,-0.0283 0.2835,0.1134 0.3968,0.0284 0.1134,-0.0567 0.1701,-0.2551 0.1418,-0.3685 l -0.2268,-2.3528 z"
           style="fill:#00a1e3;fill-opacity:1;fill-rule:nonzero;stroke:#00a1e3;stroke-width:0.21600001;stroke-linecap:butt;stroke-linejoin:miter;stroke-miterlimit:22.92558479;stroke-dasharray:none;stroke-opacity:1"
           id="path358"
           inkscape:connector-curvature="0" />
        <path
           d="m 518.7419,442.6943 40.4787,0 0,-0.1701 -40.4787,0 -0.0851,0.085 0.0851,0.0851 z m 0,-0.1701 -0.0851,0 0,0.085 0.0851,-0.085 z m -0.1418,2.4378 0.2268,-2.3528 -0.1701,0 -0.2268,2.3244 0.1701,0.0284 z m 0,0 0,0 0,0 z m 0,0.4535 0.0851,-0.1417 0,0 0,0 -0.0284,-0.0284 0,0 0,0 0,0 0,0 -0.0283,-0.0283 0,0 0,0 0,-0.0283 0,0 0,0 -0.0284,-0.0284 0,0 0,0 0,-0.0283 0,0 0,0 0,-0.0284 0,0 0,-0.0283 0,0 0,0 -0.0283,-0.0284 0,0 0,-0.0283 0,0 0,-0.0284 0,0 0,0 0,-0.0283 0.0283,0 -0.1701,-0.0284 0,0.0284 0,0 0,0.0283 0,0 0,0.0284 0,0 0,0.0283 0,0.0284 0,0 0,0.0283 0,0 0,0.0284 0,0 0,0.0283 0,0 0,0.0284 0.0284,0.0283 0,0 0,0.0283 0,0 0,0.0284 0.0283,0 0,0.0283 0,0 0.0284,0.0284 0,0 0,0.0283 0.0283,0 0,0.0284 0.0284,0 0,0 0.0283,0.0283 z m 0.0851,-0.1417 0,0 0.0283,0 -0.0283,0 z m 0.3685,0.1134 0,-0.1701 0,0 0,0 -0.0284,0 -0.0283,0 0,0 -0.0284,0 0,0 -0.0283,0 0,0 -0.0284,0 0,0.0283 -0.0283,0 0,0 -0.0284,0 0,0 -0.0283,0 0,0.0284 -0.0283,0 0,0 -0.0284,0 0,0 0,0 -0.0283,0 0,0 0,0 -0.0284,0 0,0 0,0 0,0 -0.0283,0 0,0 0,0 0,0 -0.0851,0.1417 0,0 0.0284,0 0.0283,0.0284 0,0 0.0284,0 0.0283,0 0,0 0.0284,0 0,0 0.0283,0 0.0284,0 0,0 0.0283,0 0,-0.0284 0.0283,0 0,0 0.0284,0 0,0 0.0283,0 0,0 0.0284,-0.0283 0,0 0.0283,0 0,0 0,0 0.0284,0 0,0 0.0283,0 0,0 0,0 0.0284,0 0,0 z m 0,0 0,0 0,0 z m 14.8535,2.6362 -0.0283,-0.1701 0,0 -0.4819,0.0851 -0.4536,0.0283 -0.4819,0.0284 -0.4535,0 -0.4819,0 -0.4535,-0.0567 -0.4819,-0.0284 -0.4536,-0.085 -0.4535,-0.0567 -0.4536,-0.1134 -0.4535,-0.085 -0.4819,-0.1134 -0.4535,-0.1418 -0.4536,-0.1133 -0.4535,-0.1418 -0.4536,-0.1417 -0.4535,-0.1417 -0.4535,-0.1418 -0.4819,-0.1417 -0.4536,-0.1417 -0.4535,-0.1418 -0.4536,-0.1417 -0.4535,-0.1134 -0.4819,-0.1417 -0.4535,-0.1134 -0.4536,-0.1134 -0.4819,-0.085 -0.4535,-0.0851 -0.4819,-0.085 -0.4536,-0.0567 -0.4818,-0.0284 -0.4819,-0.0283 0,0.1701 0.4819,0 0.4535,0.0567 0.4535,0.0567 0.4819,0.085 0.4536,0.085 0.4535,0.0851 0.4819,0.1134 0.4536,0.1134 0.4535,0.1133 0.4535,0.1418 0.4536,0.1417 0.4535,0.1417 0.4819,0.1418 0.4536,0.1417 0.4535,0.1417 0.4535,0.1418 0.4536,0.1417 0.4535,0.1417 0.4819,0.1134 0.4536,0.1134 0.4535,0.1134 0.4536,0.1134 0.4818,0.085 0.4536,0.0851 0.4819,0.085 0.4535,0.0283 0.4819,0.0567 0.4536,0 0.4818,0 0.4819,-0.0283 0.4819,-0.0284 0.4819,-0.085 z m 3.2032,-1.5307 -0.1418,-0.1134 0,0 -0.085,0.085 -0.0567,0.0851 -0.085,0.0567 -0.0851,0.085 -0.085,0.0567 -0.1134,0.0567 -0.085,0.085 -0.0851,0.0567 -0.085,0.0567 -0.0851,0.0567 -0.085,0.0567 -0.1134,0.0567 -0.085,0.0567 -0.0851,0.0283 -0.1134,0.0567 -0.085,0.0567 -0.085,0.0284 -0.1134,0.0567 -0.0851,0.0283 -0.1133,0.0567 -0.1134,0.0284 -0.0851,0.0283 -0.1134,0.0284 -0.085,0.0283 -0.1134,0.0283 -0.1134,0.0284 -0.1134,0.0283 -0.1133,0.0284 -0.0851,0.0283 -0.1134,0.0284 -0.1133,0.0283 -0.1134,0 0.0283,0.1701 0.1134,0 0.1134,-0.0283 0.1134,-0.0284 0.1134,-0.0283 0.1133,-0.0284 0.1134,-0.0283 0.0851,-0.0284 0.1134,-0.0283 0.1133,-0.0284 0.1134,-0.0283 0.0851,-0.0567 0.1133,-0.0284 0.1134,-0.0283 0.0851,-0.0567 0.1134,-0.0283 0.085,-0.0567 0.1134,-0.0567 0.085,-0.0284 0.1134,-0.0567 0.0851,-0.0567 0.1133,-0.0567 0.0851,-0.0566 0.085,-0.0567 0.1134,-0.0567 0.085,-0.0567 0.0851,-0.0851 0.085,-0.0567 0.0851,-0.085 0.085,-0.0567 0.085,-0.085 0.0851,-0.0851 0.085,-0.0567 0.0284,-0.0283 z m -0.0284,0.0283 0,0 0.0284,-0.0283 -0.0284,0.0283 z m 0.3402,-0.3401 -0.1134,-0.1134 0,0 0,0 0,0 0,0 0,0 -0.0284,0 0,0 0,0.0283 0,0 -0.0283,0 0,0.0284 0,0 -0.0284,0 0,0.0283 -0.0283,0 0,0.0284 0,0 -0.0283,0 0,0.0283 -0.0284,0 0,0.0284 -0.0283,0 0,0.0283 -0.0284,0 0,0.0284 -0.0283,0 0,0.0283 -0.0284,0 0,0.0284 -0.0283,0 0,0.0283 0,0 -0.0284,0 0.1418,0.1134 0,0 0,0 0.0283,-0.0284 0,0 0.0284,-0.0283 0,0 0,0 0.0283,-0.0283 0,0 0.0283,-0.0284 0,0 0.0284,-0.0283 0,0 0.0283,-0.0284 0,0 0.0284,-0.0283 0,0 0.0283,-0.0284 0,0 0,0 0.0284,-0.0283 0,0 0.0283,-0.0284 0,0 0,0 0,0 0.0284,-0.0283 0,0 0,0 0,0 0,0 0,0 z m 0.7086,0.737 0.1418,-0.0567 0,0 0,-0.0567 -0.0284,-0.0567 0,-0.0567 -0.0283,-0.0567 -0.0284,-0.0283 0,-0.0567 -0.0283,-0.0567 -0.0284,-0.0567 -0.0283,-0.0567 0,-0.0567 -0.0284,-0.0567 -0.0283,-0.0283 -0.0284,-0.0567 0,-0.0284 -0.0283,-0.0567 -0.0283,-0.0283 -0.0284,-0.0284 -0.0283,-0.0566 -0.0284,-0.0284 -0.0567,-0.0283 -0.0283,0 -0.0284,-0.0284 -0.0567,0 -0.0283,-0.0283 -0.0567,0 -0.0283,0.0283 -0.0567,0 -0.0567,0.0284 -0.0284,0.0283 -0.0567,0.0284 -0.0283,0.0283 -0.0567,0.0567 0.1134,0.1134 0.0283,-0.0284 0.0567,-0.0283 0.0284,-0.0284 0.0283,-0.0283 0.0284,0 0.0283,-0.0284 0.0283,0 0,0 0.0284,0 0.0283,0.0284 0,0 0.0284,0 0.0283,0.0283 0,0 0.0284,0.0284 0.0283,0.0283 0.0284,0.0284 0,0.0567 0.0283,0.0283 0.0284,0.0284 0.0283,0.0567 0,0.0567 0.0284,0.0283 0.0283,0.0567 0,0.0567 0.0283,0.0567 0.0284,0.0283 0,0.0567 0.0283,0.0567 0.0284,0.0567 0,0.0567 0.0283,0.0567 z m 0.1418,-0.0567 0,0 0,0 z m 0.7086,7.2567 0,-0.1701 0,0 0.0567,0.0567 0,-0.0567 0,-0.0567 -0.0283,-0.1134 0,-0.1417 -0.0284,-0.1701 0,-0.1701 -0.0283,-0.1984 0,-0.2268 -0.0284,-0.2267 -0.0283,-0.2551 0,-0.2835 -0.0284,-0.2835 -0.0283,-0.2834 -0.0284,-0.2835 -0.0283,-0.3118 -0.0283,-0.3118 -0.0284,-0.3118 -0.0283,-0.3118 -0.0284,-0.2835 -0.0283,-0.3118 -0.0284,-0.3118 -0.0283,-0.2835 -0.0284,-0.2835 -0.0283,-0.2551 -0.0284,-0.2551 -0.0283,-0.2551 -0.0284,-0.1984 -0.0566,-0.2268 -0.0284,-0.1701 -0.0283,-0.1701 -0.0567,-0.1417 -0.1418,0.0567 0.0284,0.1417 0.0283,0.1418 0.0567,0.17 0.0284,0.2268 0.0283,0.1984 0.0284,0.2551 0.0283,0.2552 0.0284,0.2551 0.0283,0.2834 0.0567,0.2835 0.0283,0.2835 0.0284,0.3118 0.0283,0.3118 0.0284,0.3118 0,0.3118 0.0283,0.2835 0.0284,0.3118 0.0283,0.3118 0.0284,0.2835 0.0283,0.2834 0,0.2552 0.0284,0.2551 0.0283,0.2267 0,0.2268 0.0283,0.2268 0,0.1701 0.0284,0.17 0,0.1134 0.0283,0.1134 0,0.0851 0.0284,0.0567 0.085,0.085 z m 0.8504,-7.2 -0.1701,-0.0567 0,0 -0.0283,0.1417 -0.0283,0.1701 -0.0567,0.1701 -0.0284,0.2268 -0.0283,0.1984 -0.0284,0.2551 -0.0283,0.2551 -0.0567,0.2551 -0.0284,0.2835 -0.0283,0.2835 -0.0284,0.3118 -0.0283,0.3118 -0.0284,0.2835 -0.0283,0.3118 -0.0283,0.3118 -0.0284,0.3118 0,0.3118 -0.0283,0.2835 -0.0284,0.2834 -0.0283,0.2835 -0.0284,0.2835 0,0.2551 -0.0283,0.2267 -0.0284,0.2268 0,0.1984 -0.0283,0.1701 0,0.1701 -0.0284,0.1417 0,0.1134 0,0.0567 -0.0283,0.0567 0.085,-0.0567 0,0.1701 0.0851,-0.085 0,-0.0567 0.0283,-0.0851 0,-0.1134 0.0284,-0.1134 0,-0.17 0.0283,-0.1701 0,-0.2268 0.0284,-0.2268 0.0283,-0.2267 0,-0.2551 0.0283,-0.2552 0.0284,-0.2834 0.0283,-0.2835 0,-0.3118 0.0284,-0.3118 0.0283,-0.2835 0.0284,-0.3118 0.0283,-0.3118 0.0284,-0.3118 0.0283,-0.3118 0.0284,-0.2835 0.0283,-0.2835 0.0284,-0.2834 0.0283,-0.2551 0.0567,-0.2552 0.0283,-0.2551 0.0284,-0.1984 0.0283,-0.2268 0.0284,-0.17 0.0567,-0.1418 0.0283,-0.1417 z m -0.1701,-0.0567 0,0 0,0 z m 0.8788,-0.6803 0.1134,-0.1134 0,0 -0.0567,-0.0567 -0.0284,-0.0283 -0.0567,-0.0284 -0.0567,-0.0283 -0.0283,-0.0284 -0.0567,0 -0.0283,-0.0283 -0.0567,0 -0.0567,0.0283 -0.0284,0 -0.0283,0.0284 -0.0567,0 -0.0284,0.0283 -0.0283,0.0284 -0.0284,0.0566 -0.0283,0.0284 -0.0283,0.0283 -0.0284,0.0567 -0.0283,0.0284 0,0.0567 -0.0284,0.0283 -0.0283,0.0567 -0.0284,0.0567 0,0.0567 -0.0283,0.0567 -0.0284,0.0567 0,0.0567 -0.0283,0.0283 -0.0284,0.0567 0,0.0567 -0.0283,0.0567 -0.0284,0.0567 0.1701,0.0567 0,-0.0567 0.0284,-0.0567 0.0283,-0.0567 0,-0.0567 0.0284,-0.0567 0.0283,-0.0283 0,-0.0567 0.0284,-0.0567 0.0283,-0.0567 0,-0.0283 0.0283,-0.0567 0.0284,-0.0567 0.0283,-0.0284 0,-0.0283 0.0284,-0.0567 0.0283,-0.0284 0.0284,-0.0283 0,-0.0284 0.0283,0 0.0284,-0.0283 0,0 0.0283,0 0.0284,-0.0284 0,0 0.0283,0 0.0284,0 0.0283,0.0284 0.0284,0 0.0283,0.0283 0.0283,0.0284 0.0284,0.0283 0.0567,0.0284 z m 0.3118,0.3118 0.1134,-0.1134 0,0 0,0 0,0 -0.0284,-0.0283 0,0 -0.0283,-0.0284 0,0 -0.0284,-0.0283 0,0 -0.0283,-0.0284 0,0 -0.0284,-0.0283 0,0 -0.0283,-0.0284 0,0 0,-0.0283 -0.0283,0 0,0 -0.0284,-0.0284 0,0 -0.0283,-0.0283 0,0 0,0 -0.0284,-0.0284 0,0 0,0 -0.0283,-0.0283 0,0 0,0 0,0 0,0 0,0 0,0 -0.1134,0.1134 0,0 0,0 0,0 0,0 0,0 0,0.0283 0.0283,0 0,0 0,0 0,0.0284 0.0284,0 0,0.0283 0.0283,0 0,0 0,0.0284 0.0284,0 0,0.0283 0.0283,0 0,0.0284 0.0284,0 0,0.0283 0.0283,0 0,0.0284 0.0284,0 0,0.0283 0.0283,0 0,0 0.0283,0.0283 0,0 0,0.0284 0.0284,0 0,0 z m 0.1134,-0.1134 0,0 0,0 z m 3.0897,1.6441 0.0284,-0.1701 0,0 -0.1134,0 -0.1134,-0.0283 -0.1134,0 -0.1134,-0.0284 -0.1133,-0.0283 -0.0851,-0.0284 -0.1134,-0.0283 -0.1133,-0.0284 -0.1134,-0.0283 -0.0851,-0.0283 -0.1134,-0.0284 -0.1133,-0.0283 -0.0851,-0.0284 -0.1134,-0.0567 -0.085,-0.0283 -0.1134,-0.0567 -0.085,-0.0284 -0.1134,-0.0567 -0.0851,-0.0567 -0.085,-0.0566 -0.1134,-0.0284 -0.085,-0.0567 -0.0851,-0.085 -0.085,-0.0567 -0.085,-0.0567 -0.0851,-0.0567 -0.085,-0.085 -0.0851,-0.0567 -0.085,-0.0851 -0.085,-0.085 -0.0851,-0.0851 -0.085,-0.085 -0.1134,0.1134 0.085,0.085 0.0851,0.0851 0.085,0.085 0.0851,0.0851 0.085,0.085 0.085,0.0567 0.0851,0.085 0.085,0.0567 0.1134,0.0567 0.085,0.085 0.0851,0.0567 0.1134,0.0567 0.085,0.0284 0.1134,0.0567 0.085,0.0567 0.1134,0.0567 0.085,0.0283 0.1134,0.0567 0.1134,0.0283 0.1134,0.0567 0.085,0.0284 0.1134,0.0283 0.1134,0.0284 0.1134,0.0283 0.1134,0.0284 0.085,0.0283 0.1134,0.0284 0.1134,0.0283 0.1134,0 0.1134,0.0284 0.1134,0.0283 0.1133,0 z m 14.8536,-2.6362 -0.0284,-0.1701 0,0 -0.4535,0.0567 -0.4819,0.085 -0.4535,0.0851 -0.4536,0.1134 -0.4819,0.085 -0.4535,0.1134 -0.4536,0.1417 -0.4818,0.1134 -0.4536,0.1134 -0.4535,0.1417 -0.4819,0.1418 -0.4536,0.1133 -0.4535,0.1418 -0.4536,0.1134 -0.4818,0.1417 -0.4536,0.1134 -0.4535,0.1417 -0.4536,0.1134 -0.4819,0.1134 -0.4535,0.085 -0.4535,0.1134 -0.4536,0.085 -0.4819,0.0851 -0.4535,0.0567 -0.4536,0.0567 -0.4819,0.0283 -0.4535,0.0284 -0.4535,0.0283 -0.4819,0 -0.4536,-0.0283 -0.4819,-0.0284 -0.4535,-0.0567 -0.0284,0.1701 0.4819,0.0567 0.4536,0.0283 0.4819,0.0284 0.4819,0 0.4535,-0.0284 0.4819,-0.0283 0.4535,-0.0284 0.4819,-0.0566 0.4536,-0.0851 0.4819,-0.0567 0.4535,-0.085 0.4535,-0.1134 0.4819,-0.085 0.4536,-0.1134 0.4535,-0.1418 0.4819,-0.1133 0.4536,-0.1134 0.4535,-0.1418 0.4819,-0.1133 0.4535,-0.1418 0.4536,-0.1417 0.4535,-0.1134 0.4819,-0.1417 0.4535,-0.1134 0.4536,-0.1418 0.4535,-0.1133 0.4819,-0.1134 0.4536,-0.1134 0.4535,-0.085 0.4536,-0.0851 0.4818,-0.085 0.4536,-0.0567 z m -0.0284,-0.1701 0,0 0,0 z m 0.4819,0.1984 -0.085,-0.1417 0,0 0,0 -0.0284,0 0,0 0,0 0,0 0,0 -0.0283,0 0,0 0,0 -0.0283,0 0,0 0,0 -0.0284,0 0,0 0,0 -0.0283,0 0,-0.0284 -0.0284,0 0,0 -0.0283,0 0,0 -0.0284,0 0,-0.0283 -0.0283,0 0,0 -0.0284,0 -0.0283,0 0,0 -0.0284,0 0,0 -0.0283,0 -0.0284,0 0.0284,0.1701 0,0 0,0 0.0283,0 0,0 0,0 0.0284,0 0,0 0.0283,0 0,0 0,0 0.0284,0 0,0.0283 0.0283,0 0,0 0.0284,0 0,0 0.0283,0 0,0 0.0284,0.0284 0.0283,0 0,0 0.0284,0 0,0 0.0283,0 0,0 0.0283,0 0.0284,0 0,0 0.0283,0 0.0284,-0.0284 0,0 0.0283,0 z m -0.085,-0.1417 0,0 -0.085,0.0283 0.085,-0.0283 z m 0.2551,-0.3402 -0.1701,0.0284 0,0 0,0 0,0.0283 0,0 0,0 0,0.0284 0,0 0,0.0283 0,0 0,0.0284 0,0 0,0 0,0.0283 0,0 0,0.0284 0,0 0,0 -0.0283,0.0283 0,0 0,0 0,0.0284 0,0 0,0 0,0.0283 -0.0284,0 0,0 0,0.0283 0,0 0,0 -0.0283,0 0,0 0,0.0284 0,0 0.085,0.1417 0,-0.0283 0.0284,0 0,0 0.0283,-0.0284 0,0 0.0284,-0.0283 0,0 0,-0.0284 0.0283,0 0,-0.0283 0,0 0,-0.0284 0.0284,0 0,-0.0283 0,0 0,-0.0283 0,-0.0284 0.0283,0 0,-0.0283 0,0 0,-0.0284 0,0 0,-0.0283 0,0 0,-0.0284 0,-0.0283 0,0 0,-0.0284 0,0 0,-0.0283 0,0 0,-0.0284 z m -0.1701,0.0284 0,0 0,0 z m -0.2267,-2.3528 0.2267,2.3528 0.1701,-0.0284 -0.2268,-2.3244 -0.1417,-0.085 -0.0283,0.085 z m 0.17,0 -0.0283,-0.1417 -0.1134,0.0567 0.1417,0.085 z m -0.0567,0.0851 0,-0.0284 -0.085,-0.1417 0,0 0.0567,0.1701 0.0283,0 z m -0.0283,0 0,0 0.0283,0 -0.0283,0 z"
           style="fill:#00a1e3;fill-opacity:1;fill-rule:nonzero;stroke:#00a1e3;stroke-width:0.21600001;stroke-linecap:butt;stroke-linejoin:miter;stroke-miterlimit:22.92558479;stroke-dasharray:none;stroke-opacity:1"
           id="path360"
           inkscape:connector-curvature="0" />
      </g>
    </g>
  </g>
</svg>
