<?xml version="1.0" encoding="UTF-8" standalone="no"?>
<!-- Created with Inkscape (http://www.inkscape.org/) -->

<svg
   xmlns:dc="http://purl.org/dc/elements/1.1/"
   xmlns:cc="http://creativecommons.org/ns#"
   xmlns:rdf="http://www.w3.org/1999/02/22-rdf-syntax-ns#"
   xmlns:svg="http://www.w3.org/2000/svg"
   xmlns="http://www.w3.org/2000/svg"
   xmlns:sodipodi="http://sodipodi.sourceforge.net/DTD/sodipodi-0.dtd"
   xmlns:inkscape="http://www.inkscape.org/namespaces/inkscape"
   width="23.98mm"
   height="25.109921mm"
   viewBox="0 0 84.968502 88.972159"
   id="svg63649"
   version="1.1"
   inkscape:version="0.91 r13725"
   sodipodi:docname="11.svg">
  <defs
     id="defs63651" />
  <sodipodi:namedview
     id="base"
     pagecolor="#ffffff"
     bordercolor="#666666"
     borderopacity="1.0"
     inkscape:pageopacity="0.0"
     inkscape:pageshadow="2"
     inkscape:zoom="22.4"
     inkscape:cx="22.465703"
     inkscape:cy="10.323574"
     inkscape:document-units="px"
     inkscape:current-layer="layer1"
     showgrid="false"
     fit-margin-top="0"
     fit-margin-left="0"
     fit-margin-right="0"
     fit-margin-bottom="0"
     inkscape:window-width="1920"
     inkscape:window-height="1029"
     inkscape:window-x="0"
     inkscape:window-y="25"
     inkscape:window-maximized="1" />
  <metadata
     id="metadata63654">
    <rdf:RDF>
      <cc:Work
         rdf:about="">
        <dc:format>image/svg+xml</dc:format>
        <dc:type
           rdf:resource="http://purl.org/dc/dcmitype/StillImage" />
        <dc:title></dc:title>
      </cc:Work>
    </rdf:RDF>
  </metadata>
  <g
     inkscape:label="Layer 1"
     inkscape:groupmode="layer"
     id="layer1"
     transform="translate(-186.08718,-307.87613)">
    <g
       transform="matrix(1.25,0,0,-1.25,-70.442571,679.34941)"
       id="g32">
      <path
         style="fill:#00a1e3;fill-opacity:1;fill-rule:evenodd;stroke:none"
         d="m 8.2929688,38.880859 c -5.7811,0.201363 -6.3446938,10.354619 -0.2851563,11.292969 l 0.7949219,0.0957 0.7949218,-0.04102 c 6.0557748,-0.72615 5.6131218,-10.272888 -0.080078,-11.25 -0.4313625,-0.08075 -0.8392093,-0.111157 -1.2246093,-0.09766 z m 68.0507812,0.0059 c -6.166564,-0.127866 -6.692496,10.298197 -0.623047,11.287109 l 0.878906,0.09961 0.875,-0.06445 c 6.118375,-0.901862 5.313572,-10.61909 -0.517578,-11.27539 -0.210629,-0.02676 -0.41436,-0.04275 -0.613281,-0.04687 z m -44.101562,0.002 c -6.152855,-0.101264 -6.656574,10.298617 -0.59961,11.285156 l 0.894531,0.101563 0.888672,-0.07031 c 6.1155,-0.949487 5.265488,-10.639787 -0.570312,-11.273437 -0.210203,-0.02579 -0.414803,-0.0397 -0.613281,-0.04297 z m 21.822265,0.0039 c -5.708586,0.316157 -6.149332,10.354848 -0.169922,11.28125 l 0.867188,0.101563 0.861328,-0.0625 c 6.008687,-0.912025 5.392894,-10.428997 -0.347656,-11.248047 -0.427054,-0.07092 -0.830365,-0.09334 -1.210938,-0.07227 z M 2.1621094,50.705078 C 0.95748438,50.705078 0,51.660609 0,52.865234 L 0,70.9375 c 0,1.20475 0.95748437,2.160156 2.1621094,2.160156 l 0.3886718,0 0,-17.433594 1.0625,0 0,15.804688 0,1.628906 0,13.216797 0.041016,0 c 0.016875,1.436563 1.0337781,2.623047 2.2988281,2.623047 1.240125,0 2.3027344,-1.205453 2.3027344,-2.658203 l -0.035156,0 0,-13.181641 1.0976563,0 0,13.216797 0.00391,0 c 0.01575,1.435925 0.9634784,2.587928 2.1582034,2.658203 l 0.21289,0 c 1.229925,-0.07025 2.177622,-1.222278 2.19336,-2.658203 l 0.0039,0 0,-13.216797 0,-1.628906 0,-15.804688 1.0625,0 0,17.433594 0.105469,0 c 1.204625,0 2.197265,-0.990781 2.197265,-2.160156 l 0,-18.072266 c 0,-1.204625 -0.99264,-2.160156 -2.197265,-2.160156 z m 23.6679686,0 c -1.20475,0 -2.159937,0.955531 -2.195312,2.160156 l 0,18.072266 c 0.03538,1.20475 0.990562,2.160156 2.195312,2.160156 l 0.390625,0 0,-17.433594 1.0625,0 0,15.804688 0,1.628906 0,13.216797 0.0039,0 c 0.01684,1.436565 1.033777,2.623047 2.298829,2.623047 1.26505,0 2.283942,-1.186482 2.300781,-2.623047 l 0.0039,0 0,-13.216797 1.097656,0 0,13.216797 0.002,0 c 0.01567,1.435999 0.965388,2.587915 2.160157,2.658203 l 0.210937,0 c 1.194768,-0.07029 2.144484,-1.222204 2.160156,-2.658203 l 0.002,0 0,-13.216797 0,-1.628906 0,-15.804688 1.097656,0 0,17.433594 0.107422,0 c 1.20475,0 2.162109,-0.990781 2.162109,-2.160156 l 0,-18.072266 c 0,-1.204625 -0.957359,-2.160156 -2.162109,-2.160156 z m 22.216797,0 c -1.20475,0 -2.160156,0.955531 -2.160156,2.160156 l 0,18.072266 c 0,1.20475 0.955406,2.160156 2.160156,2.160156 l 0.390625,0 0,-17.433594 1.0625,0 c 0,5.811198 0,11.622396 0,17.433594 l 0,13.216797 0.03906,0 c 0.01684,1.436565 1.033777,2.623047 2.298829,2.623047 1.264927,0 2.28394,-1.186482 2.300781,-2.623047 l 0.0039,0 0,-13.216797 1.0625,0 0,13.216797 0.002,0 c 0.01567,1.435999 0.963435,2.587915 2.158203,2.658203 l 0.248047,0 c 1.194768,-0.07029 2.144482,-1.222204 2.160157,-2.658203 l 0.002,0 0,-13.216797 c 0,-5.811198 0,-11.622396 0,-17.433594 l 1.0625,0 0,17.433594 0.142578,0 c 1.204625,0 2.162109,-0.990781 2.162109,-2.160156 l 0,-18.072266 c 0,-1.204625 -0.957484,-2.160156 -2.162109,-2.160156 z m 21.863281,0 c -1.20475,0 -2.16189,0.955531 -2.197265,2.160156 l 0,18.072266 c 0.03538,1.20475 0.992515,2.160156 2.197265,2.160156 l 0.388672,0 0,-17.433594 1.0625,0 0,15.804688 0,1.628906 0,13.216797 0.0039,0 c 0.01684,1.436565 1.03573,2.623047 2.300782,2.623047 1.265051,0 2.281989,-1.186482 2.298828,-2.623047 l 0.0039,0 0,-13.216797 1.097656,0 0,13.216797 0.0039,0 c 0.01574,1.435927 0.963478,2.587918 2.158204,2.658203 l 0.21289,0 c 1.194644,-0.07029 2.142529,-1.222204 2.158203,-2.658203 l 0.002,0 0,-13.216797 0,-1.628906 0,-15.804688 1.09961,0 0,17.433594 0.105469,0 c 1.20475,0 2.162109,-0.990781 2.162109,-2.160156 l 0,-18.072266 c 0,-1.204625 -0.957359,-2.160156 -2.162109,-2.160156 z"
         transform="matrix(0.8,0,0,-0.8,205.2238,297.17862)"
         id="path38"
         inkscape:connector-curvature="0"
         sodipodi:nodetypes="ccccccsccccssccccssccccssssscccccccscccccccccccccccssssssccscccccccscccccccccccccccsssssssssccccccsccccccccccccccssssssccscccccccscccccccccccccccsssss" />
      <path
         inkscape:connector-curvature="0"
         id="path86"
         d="m 251.55036,296.87549 c -2.85718,0.086 -5.78568,-0.28449 -8.54062,-1.17031 -8.7874,-2.863 -12.44446,-9.89368 -8.16406,-15.70468 1.7574,-2.4094 4.7348,-4.39406 8.675,-5.55626 -3.4299,-1.8709 -6.6e-4,0.001 -10.31876,-5.58281 5.6693,1.5023 11.36647,3.03198 17.06407,4.53438 2.863,-0.0567 5.58505,0.31192 8.30625,1.19062 8.7874,2.8347 12.44436,9.86529 8.16406,15.70469 -2.96216,3.99506 -8.90014,6.39519 -15.18594,6.58437 z m -10.92187,-9.02187 c 1.3777,0 2.49375,-1.11771 2.49375,-2.49531 0,-1.3776 -1.11605,-2.49375 -2.49375,-2.49375 -1.3776,0 -2.49375,1.11615 -2.49375,2.49375 0,1.3776 1.11615,2.49531 2.49375,2.49531 z m 10.14843,0 c 1.3776,0 2.49376,-1.11771 2.49376,-2.49531 0,-1.3776 -1.11616,-2.49375 -2.49376,-2.49375 -1.3777,0 -2.49531,1.11615 -2.49531,2.49375 0,1.3776 1.11761,2.49531 2.49531,2.49531 z m 10.17657,0 c 1.3777,0 2.49375,-1.11771 2.49375,-2.49531 0,-1.3776 -1.11605,-2.49375 -2.49375,-2.49375 -1.3776,0 -2.49531,1.11615 -2.49531,2.49375 0,1.3776 1.11771,2.49531 2.49531,2.49531 z"
         style="fill:#00a1e3;fill-opacity:1;fill-rule:nonzero;stroke:#00a1e3;stroke-width:0.56690001;stroke-linecap:butt;stroke-linejoin:miter;stroke-miterlimit:22.92558479;stroke-dasharray:none;stroke-opacity:1" />
    </g>
  </g>
</svg>
