<?xml version="1.0" encoding="UTF-8" standalone="no"?>
<!-- Created with Inkscape (http://www.inkscape.org/) -->

<svg
   xmlns:dc="http://purl.org/dc/elements/1.1/"
   xmlns:cc="http://creativecommons.org/ns#"
   xmlns:rdf="http://www.w3.org/1999/02/22-rdf-syntax-ns#"
   xmlns:svg="http://www.w3.org/2000/svg"
   xmlns="http://www.w3.org/2000/svg"
   xmlns:sodipodi="http://sodipodi.sourceforge.net/DTD/sodipodi-0.dtd"
   xmlns:inkscape="http://www.inkscape.org/namespaces/inkscape"
   width="18.78002mm"
   height="21.849997mm"
   viewBox="0 0 66.543377 77.421247"
   id="svg68313"
   version="1.1"
   inkscape:version="0.91 r13725"
   sodipodi:docname="12.svg">
  <defs
     id="defs68315" />
  <sodipodi:namedview
     id="base"
     pagecolor="#ffffff"
     bordercolor="#666666"
     borderopacity="1.0"
     inkscape:pageopacity="0.0"
     inkscape:pageshadow="2"
     inkscape:zoom="7.9195959"
     inkscape:cx="64.082611"
     inkscape:cy="37.670424"
     inkscape:document-units="px"
     inkscape:current-layer="g24"
     showgrid="false"
     fit-margin-top="0"
     fit-margin-left="0"
     fit-margin-right="0"
     fit-margin-bottom="0"
     inkscape:window-width="1920"
     inkscape:window-height="1029"
     inkscape:window-x="0"
     inkscape:window-y="25"
     inkscape:window-maximized="1" />
  <metadata
     id="metadata68318">
    <rdf:RDF>
      <cc:Work
         rdf:about="">
        <dc:format>image/svg+xml</dc:format>
        <dc:type
           rdf:resource="http://purl.org/dc/dcmitype/StillImage" />
        <dc:title></dc:title>
      </cc:Work>
    </rdf:RDF>
  </metadata>
  <g
     inkscape:label="Layer 1"
     inkscape:groupmode="layer"
     id="layer1"
     transform="translate(-203.1754,-125.08015)">
    <g
       transform="matrix(1.25,0,0,-1.25,-191.01072,490.5964)"
       id="g24">
      <path
         d="m 365.919,271.2949 -8.1071,0 c -1.4456,2.2393 -4.7055,3.9401 -8.759,4.5921 l 6.2645,16.2142 -8.3055,-15.9874 c -0.4819,0.0283 -0.9921,0.0283 -1.5023,0.0283 -0.5103,0 -1.0205,0 -1.5024,-0.0283 l -8.4472,16.2992 6.3779,-16.526 c -4.0252,-0.652 -7.285,-2.3811 -8.7307,-4.5921 l -15.1937,0 c -1.474,0 -2.6646,-1.1339 -2.6646,-2.5512 l 0,-33.2504 c 0,-1.4173 1.1906,-2.5512 2.6646,-2.5512 l 3.3449,0 c 0.2268,-1.1622 1.4173,-2.0409 2.8346,-2.0409 1.4174,0 2.6079,0.8787 2.8347,2.0409 l 30.4441,0 c 0,-0.0283 0,-0.0283 0,-0.0283 0,-1.3323 1.2756,-2.4378 2.863,-2.4378 1.6157,0 2.8913,1.1055 2.8913,2.4378 0,0 0,0 0,0.0283 l 2.6929,0 c 1.474,0 2.6646,1.1339 2.6646,2.5512 l 0,33.2504 c 0,1.4173 -1.1906,2.5512 -2.6646,2.5512 z m -7.5118,-29.2536 c 0,-0.9921 -0.8787,-1.8708 -1.9559,-1.9559 -11.622,-0.9638 -23.3008,-0.9638 -34.9228,0 -1.0772,0.0851 -1.9559,0.9638 -1.9559,1.9559 0,7.7103 0,15.4488 0,23.1591 0,0.9921 0.8787,1.8708 1.9559,1.9559 11.622,0.9638 23.3008,0.9638 34.9228,0 1.0772,-0.0851 1.9559,-0.9638 1.9559,-1.9559 l 0,-23.1591 z m 1.7858,20.9764 c 0,1.5874 1.0772,2.8913 2.3811,2.8913 1.3323,0 2.3811,-1.3039 2.3811,-2.8913 0,-1.5874 -1.0488,-2.863 -2.3811,-2.863 -1.3039,0 -2.3811,1.2756 -2.3811,2.863 z m 2.6079,-11.2252 c -1.3039,0 -2.3811,1.2756 -2.3811,2.8913 0,1.5874 1.0772,2.863 2.3811,2.863 1.304,0 2.3811,-1.2756 2.3811,-2.863 0,-1.6157 -1.0771,-2.8913 -2.3811,-2.8913 z"
         style="fill:#00a1e3;fill-opacity:1;fill-rule:nonzero;stroke:none"
         id="path28"
         inkscape:connector-curvature="0" />
      <path
         d="m 356.4513,267.1563 c -11.622,0.9638 -23.3008,0.9638 -34.9228,0 -1.0772,-0.0851 -1.9559,-0.9638 -1.9559,-1.9559 0,-7.7103 0,-15.4488 0,-23.1591 0,-0.9921 0.8787,-1.8708 1.9559,-1.9559 11.622,-0.9638 23.3008,-0.9638 34.9228,0 1.0772,0.0851 1.9559,0.9638 1.9559,1.9559 l 0,23.1591 c 0,0.9921 -0.8787,1.8708 -1.9559,1.9559 z m 6.1228,-7.0016 c 1.3323,0 2.3811,1.2756 2.3811,2.863 0,1.5874 -1.0488,2.8913 -2.3811,2.8913 -1.3039,0 -2.3811,-1.3039 -2.3811,-2.8913 0,-1.5874 1.0772,-2.863 2.3811,-2.863 z m 0.2268,-2.6079 c -1.3039,0 -2.3811,-1.2756 -2.3811,-2.863 0,-1.6157 1.0772,-2.8913 2.3811,-2.8913 1.304,0 2.3811,1.2756 2.3811,2.8913 0,1.5874 -1.0771,2.863 -2.3811,2.863 z"
         style="fill:#ffffff;fill-opacity:1;fill-rule:nonzero;stroke:none"
         id="path30"
         inkscape:connector-curvature="0" />
    </g>
  </g>
</svg>
