<?xml version="1.0" encoding="UTF-8" standalone="no"?>
<!-- Created with Inkscape (http://www.inkscape.org/) -->

<svg
   xmlns:dc="http://purl.org/dc/elements/1.1/"
   xmlns:cc="http://creativecommons.org/ns#"
   xmlns:rdf="http://www.w3.org/1999/02/22-rdf-syntax-ns#"
   xmlns:svg="http://www.w3.org/2000/svg"
   xmlns="http://www.w3.org/2000/svg"
   xmlns:sodipodi="http://sodipodi.sourceforge.net/DTD/sodipodi-0.dtd"
   xmlns:inkscape="http://www.inkscape.org/namespaces/inkscape"
   width="30.045982mm"
   height="20.195757mm"
   viewBox="0 0 106.46214 71.559768"
   id="svg72866"
   version="1.1"
   inkscape:version="0.91 r13725"
   sodipodi:docname="13.svg">
  <defs
     id="defs72868" />
  <sodipodi:namedview
     id="base"
     pagecolor="#ffffff"
     bordercolor="#666666"
     borderopacity="1.0"
     inkscape:pageopacity="0.0"
     inkscape:pageshadow="2"
     inkscape:zoom="8.1097126"
     inkscape:cx="41.915672"
     inkscape:cy="31.937959"
     inkscape:document-units="px"
     inkscape:current-layer="layer1"
     showgrid="false"
     fit-margin-top="0"
     fit-margin-left="0"
     fit-margin-right="0"
     fit-margin-bottom="0"
     inkscape:window-width="1920"
     inkscape:window-height="1029"
     inkscape:window-x="0"
     inkscape:window-y="25"
     inkscape:window-maximized="1" />
  <metadata
     id="metadata72871">
    <rdf:RDF>
      <cc:Work
         rdf:about="">
        <dc:format>image/svg+xml</dc:format>
        <dc:type
           rdf:resource="http://purl.org/dc/dcmitype/StillImage" />
        <dc:title></dc:title>
      </cc:Work>
    </rdf:RDF>
  </metadata>
  <g
     inkscape:label="Layer 1"
     inkscape:groupmode="layer"
     id="layer1"
     transform="translate(1176.0882,-90.868035)">
    <path
       d="m -1087.541,161.97393 c 0.744,-0.35425 1.5237,-1.09838 1.8779,-1.807 0.2835,-0.60238 0.2835,-0.63788 0.3544,-3.11812 0.035,-1.38188 0.071,-7.65363 0.071,-13.96063 l 0,-11.44488 0.7086,0 0.6732,0 0,27.92125 0.2835,0.56688 c 0.3543,0.74412 0.9922,1.38187 1.8071,1.77162 0.5315,0.24813 0.7087,0.2835 1.5236,0.2835 0.8503,0 0.9921,-0.0354 1.5945,-0.35437 1.0985,-0.5315 1.8071,-1.48813 2.0551,-2.69288 0.071,-0.35425 0.1062,-3.61412 0.1062,-8.64562 0,-4.42913 0.036,-14.52763 0.071,-22.35825 l 0.071,-14.315 0.2126,0.56688 c 1.3465,2.97637 1.9489,8.75199 1.7008,15.59062 -0.1417,3.4015 -0.1063,3.64962 0.4606,4.32275 1.1694,1.3465 3.3307,0.95675 4.004,-0.67313 0.2835,-0.63787 0.3897,-3.54337 0.3189,-7.79537 -0.071,-5.7755 -0.4252,-8.433 -1.559,-11.9055 -0.9568,-2.9055 -2.126,-4.78338 -3.8268,-6.059 -0.8505,-0.63775 -1.5591,-0.95675 -2.6221,-1.20475 -0.8504,-0.17713 -1.2401,-0.17713 -6.9449,-0.10625 -5.7047,0.0354 -6.0945,0.0709 -6.8386,0.248 -2.1259,0.56688 -3.933,2.19687 -5.2086,4.67712 -1.1693,2.30326 -1.8779,4.85438 -2.374,8.43313 -0.3544,2.6575 -0.4607,5.06687 -0.3898,9.2835 0.071,3.437 0.071,4.03937 0.248,4.4645 0.2126,0.567 0.9213,1.3465 1.311,1.45275 0.2481,0.0709 0.2835,0.10637 0.2835,0.67325 l 0,0.56688 -0.6024,0.10637 c -0.3188,0.0354 -0.7086,0.14175 -0.8503,0.21262 -0.496,0.35426 -0.496,0.49601 -0.496,5.91726 0,4.64175 0,5.10237 0.1771,5.45675 0.2835,0.60237 0.6377,0.70862 2.5157,0.67324 1.9134,0 2.2678,-0.10637 2.5512,-0.74412 0.1772,-0.31887 0.1772,-0.815 0.1772,-5.49212 0,-4.92525 0,-5.17325 -0.1772,-5.49213 -0.248,-0.38975 -0.4606,-0.49612 -1.1339,-0.567 l -0.5315,-0.0709 0,-0.63776 c 0,-0.60237 0.035,-0.63775 0.4252,-0.92125 0.2127,-0.14175 0.5316,-0.49612 0.6733,-0.77949 0.248,-0.42525 0.2835,-0.567 0.2835,-1.24013 -0.071,-9 -0.071,-9.63788 0.3542,-12.756 0.3544,-2.44487 0.9213,-4.71262 1.4528,-5.66925 l 0.2126,-0.38975 -0.035,6.37788 c -0.035,3.50787 -0.071,13.74812 -0.1063,22.74812 l 0,16.33463 0.3188,0.67325 c 0.4962,1.063 1.4528,1.87787 2.5867,2.126 0.567,0.17712 1.5945,0.0354 2.2323,-0.24813 z m 1.5944,-34.54725 -1.3819,-1.77162 0.815,-5.91725 c 0.4253,-3.2245 0.8504,-5.95275 0.8504,-5.98825 0.071,-0.0709 0.2835,-0.0709 0.6733,0 0.4606,0.10625 0.7086,0.10625 1.0983,0 0.2835,-0.0709 0.567,-0.10625 0.6024,-0.0709 0,0.0355 0.3898,2.58663 0.7796,5.74013 0.4252,3.11812 0.7795,5.77562 0.8149,5.95275 0,0.21262 -0.2126,0.567 -1.3464,2.01975 -0.7796,0.95662 -1.4173,1.73625 -1.4528,1.73625 -0.035,0.0354 -0.7087,-0.74413 -1.4528,-1.70088 z m 0.7797,-14.59837 c -0.567,-0.17713 -1.0277,-0.5315 -0.9568,-0.74413 0.036,-0.10625 0.1418,-0.63775 0.2835,-1.16925 l 0.248,-0.95675 2.2678,-0.0354 0.2479,0.95663 c 0.1063,0.567 0.248,1.063 0.2836,1.16938 0.1062,0.49599 -1.5592,1.0275 -2.374,0.7795 z m 2.6574,-8.25588 c 2.3385,-0.74412 4.0393,-2.55125 4.6417,-4.88975 0.2126,-0.885875 0.2126,-2.4095 0,-3.295375 -0.6024,-2.161375 -2.3385,-4.003875 -4.4292,-4.641625 -2.1968,-0.67325 -4.5353,-0.248125 -6.2007,1.098375 -1.2756,1.063 -2.126,2.374 -2.4449,3.82675 -0.248,0.992125 -0.1771,2.728375 0.1418,3.649625 0.7441,2.16137 2.7637,3.9685 4.9606,4.42912 0.8504,0.17713 2.4802,0.10625 3.3307,-0.17712"
       style="fill:#00a1e3;fill-opacity:1;fill-rule:nonzero;stroke:none"
       id="path98"
       inkscape:connector-curvature="0" />
    <path
       d="m -1164.1118,161.97393 c 0.744,-0.35425 1.5236,-1.09838 1.8779,-1.807 0.2835,-0.60238 0.2835,-0.63788 0.3543,-3.11812 0.035,-1.38188 0.071,-7.65363 0.071,-13.96063 l 0,-11.44488 0.7086,0 0.6733,0 0,27.92125 0.2835,0.56688 c 0.3542,0.74412 0.9921,1.38187 1.807,1.77162 0.5315,0.24813 0.7087,0.2835 1.5236,0.2835 0.8504,0 0.9921,-0.0354 1.63,-0.35437 1.063,-0.5315 1.807,-1.48813 2.0196,-2.69288 0.071,-0.35425 0.1064,-3.61412 0.1064,-8.64562 0,-4.42913 0.035,-14.52763 0.071,-22.35825 l 0.071,-14.315 0.2482,0.56688 c 1.311,2.97637 1.9133,8.75199 1.6653,15.59062 -0.1417,3.4015 -0.1064,3.64962 0.4606,4.32275 1.1693,1.3465 3.3307,0.95675 4.0039,-0.67313 0.2835,-0.63787 0.3898,-3.54337 0.3189,-7.79537 -0.071,-5.7755 -0.4251,-8.433 -1.559,-11.9055 -0.9212,-2.9055 -2.126,-4.78338 -3.8268,-6.059 -0.8505,-0.63775 -1.5236,-0.95675 -2.6221,-1.20475 -0.8504,-0.17713 -1.2401,-0.17713 -6.9449,-0.10625 -5.6692,0.0354 -6.0944,0.0709 -6.8385,0.248 -2.126,0.56688 -3.9331,2.19687 -5.2087,4.67712 -1.1693,2.30326 -1.8779,4.85438 -2.374,8.43313 -0.3544,2.6575 -0.4251,5.06687 -0.3897,9.2835 0.071,3.437 0.1062,4.03937 0.248,4.4645 0.2126,0.567 0.9212,1.3465 1.3109,1.45275 0.2482,0.0709 0.2836,0.10637 0.2836,0.67325 l 0,0.56688 -0.6024,0.10637 c -0.3189,0.0354 -0.7086,0.14175 -0.8149,0.21262 -0.5315,0.35426 -0.5315,0.49601 -0.5315,5.91726 0,4.64175 0,5.10237 0.1771,5.45675 0.2835,0.60237 0.6378,0.70862 2.5512,0.67324 1.878,0 2.2323,-0.10637 2.5157,-0.74412 0.1773,-0.31887 0.1773,-0.815 0.1773,-5.49212 0,-4.92525 0,-5.17325 -0.1773,-5.49213 -0.248,-0.38975 -0.4606,-0.49612 -1.1339,-0.567 l -0.5313,-0.0709 0,-0.63776 c 0,-0.60237 0.035,-0.63775 0.4251,-0.92125 0.2126,-0.14175 0.5315,-0.49612 0.6732,-0.77949 0.248,-0.42525 0.2835,-0.567 0.2835,-1.24013 -0.071,-9 -0.071,-9.63788 0.3898,-12.756 0.3189,-2.44487 0.8857,-4.71262 1.4172,-5.66925 l 0.2127,-0.38975 -0.035,6.37788 c -0.035,3.50787 -0.071,13.74812 -0.071,22.74812 l -0.036,16.33463 0.3189,0.67325 c 0.4961,1.063 1.4527,1.87787 2.5866,2.126 0.6024,0.17712 1.5945,0.0354 2.2324,-0.24813 z m 1.5945,-34.54725 -1.382,-1.77162 0.815,-5.91725 c 0.4606,-3.2245 0.8504,-5.95275 0.8859,-5.98825 0.035,-0.0709 0.248,-0.0709 0.6377,0 0.4606,0.10625 0.7086,0.10625 1.1339,0 0.2835,-0.0709 0.5315,-0.10625 0.5669,-0.0709 0.035,0.0355 0.3897,2.58663 0.7796,5.74013 0.4251,3.11812 0.7795,5.77562 0.8149,5.95275 0.035,0.21262 -0.2127,0.567 -1.3464,2.01975 -0.7796,0.95662 -1.4174,1.73625 -1.4528,1.73625 -0.036,0.0354 -0.7087,-0.74413 -1.4527,-1.70088 z m 0.7795,-14.59837 c -0.5315,-0.17713 -1.0276,-0.5315 -0.9568,-0.74413 0.035,-0.10625 0.1418,-0.63775 0.2835,-1.16925 l 0.248,-0.95675 2.2678,-0.0354 0.248,0.95663 c 0.1064,0.567 0.248,1.063 0.2835,1.16938 0.1062,0.49599 -1.5591,1.0275 -2.374,0.7795 z m 2.6575,-8.25588 c 2.3385,-0.74412 4.0393,-2.55125 4.6416,-4.88975 0.2481,-0.885875 0.2126,-2.4095 0,-3.295375 -0.6023,-2.161375 -2.3385,-4.003875 -4.4291,-4.641625 -2.1614,-0.67325 -4.5,-0.248125 -6.2008,1.098375 -1.2756,1.063 -2.0905,2.374 -2.4449,3.82675 -0.248,0.992125 -0.1771,2.728375 0.1418,3.649625 0.7441,2.16137 2.7638,3.9685 4.9606,4.42912 0.8504,0.17713 2.5158,0.10625 3.3308,-0.17712"
       style="fill:#00a1e3;fill-opacity:1;fill-rule:nonzero;stroke:none"
       id="path102"
       inkscape:connector-curvature="0" />
    <path
       inkscape:connector-curvature="0"
       id="path106"
       d="m -1122.9027,91.426624 -0.072,0.21289 0.1074,0 -0.035,-0.21289 z m -0.072,1.984375 c -3.2599,0 -5.916,2.658094 -5.916,5.917969 0,3.295252 2.6561,5.951172 5.916,5.951172 3.2952,0 5.9531,-2.65592 5.9531,-5.951172 0,-3.259875 -2.6579,-5.917969 -5.9531,-5.917969 z m -7.4043,13.818361 c -0.1011,0 -0.1986,0.0189 -0.2969,0.0312 -1.0076,-0.0242 -1.8814,0.63295 -2.1133,1.70508 l -5.2441,23.31445 c -0.319,1.311 0.4962,2.69389 1.7363,3.11914 1.2756,0.42513 2.5151,-0.28297 2.834,-1.55859 l 4.8613,-21.65039 0.7383,0 -5.918,24.83789 3.8985,0 0,22.78515 c 0,1.38188 1.0986,2.47852 2.4804,2.47852 1.3465,0 2.4805,-1.09664 2.4805,-2.47852 l 0,-22.78515 3.9317,0 0,22.71289 c 0,1.3465 1.0984,2.44531 2.4804,2.44531 1.3464,0 2.4805,-1.09881 2.4805,-2.44531 l 0,-22.71289 4.0039,0 -5.916,-24.83789 0.8183,0 4.8848,21.7207 c 0.2834,1.31112 1.5607,2.019 2.8008,1.59375 1.2756,-0.42513 2.0548,-1.80606 1.7715,-3.11719 l -5.2442,-23.35156 c -0.2096,-0.94318 -0.964,-1.57199 -1.8574,-1.66602 -0.2421,-0.0829 -0.497,-0.14062 -0.7656,-0.14062 l -14.8457,0 z"
       style="fill:#00a1e3;fill-opacity:1;fill-rule:evenodd;stroke:#00a1e3;stroke-width:0.27000001;stroke-linecap:butt;stroke-linejoin:miter;stroke-miterlimit:22.92558479;stroke-dasharray:none;stroke-opacity:1" />
  </g>
</svg>
