<?xml version="1.0" encoding="UTF-8" standalone="no"?>
<!-- Created with Inkscape (http://www.inkscape.org/) -->

<svg
   xmlns:dc="http://purl.org/dc/elements/1.1/"
   xmlns:cc="http://creativecommons.org/ns#"
   xmlns:rdf="http://www.w3.org/1999/02/22-rdf-syntax-ns#"
   xmlns:svg="http://www.w3.org/2000/svg"
   xmlns="http://www.w3.org/2000/svg"
   xmlns:sodipodi="http://sodipodi.sourceforge.net/DTD/sodipodi-0.dtd"
   xmlns:inkscape="http://www.inkscape.org/namespaces/inkscape"
   width="20.000187mm"
   height="31.230005mm"
   viewBox="0 0 70.866804 110.6575"
   id="svg13412"
   version="1.1"
   inkscape:version="0.91 r13725"
   sodipodi:docname="2.svg">
  <defs
     id="defs13414" />
  <sodipodi:namedview
     id="base"
     pagecolor="#ffffff"
     bordercolor="#666666"
     borderopacity="1.0"
     inkscape:pageopacity="0.0"
     inkscape:pageshadow="2"
     inkscape:zoom="0.35"
     inkscape:cx="201.86196"
     inkscape:cy="226.75733"
     inkscape:document-units="px"
     inkscape:current-layer="layer1"
     showgrid="false"
     fit-margin-top="0"
     fit-margin-left="0"
     fit-margin-right="0"
     fit-margin-bottom="0"
     inkscape:window-width="1920"
     inkscape:window-height="1029"
     inkscape:window-x="0"
     inkscape:window-y="25"
     inkscape:window-maximized="1" />
  <metadata
     id="metadata13417">
    <rdf:RDF>
      <cc:Work
         rdf:about="">
        <dc:format>image/svg+xml</dc:format>
        <dc:type
           rdf:resource="http://purl.org/dc/dcmitype/StillImage" />
        <dc:title></dc:title>
      </cc:Work>
    </rdf:RDF>
  </metadata>
  <g
     inkscape:label="Layer 1"
     inkscape:groupmode="layer"
     id="layer1"
     transform="translate(641.14767,-648.46203)">
    <path
       d="m -622.1195,758.6234 c 0.99213,-0.5315 2.126,-1.70075 2.6575,-2.72825 l 0.42525,-0.8505 0.0354,-21.933 0.0355,-21.93312 2.16138,0 0.10625,43.51187 0.46062,0.99213 c 0.67325,1.41725 1.45275,2.23225 2.72838,2.87 0.99212,0.49612 1.311,0.567 2.58662,0.567 1.13388,0 1.66538,-0.10625 2.374,-0.42525 1.73625,-0.81488 2.97638,-2.44488 3.33075,-4.4645 0.14175,-0.63788 0.17713,-13.39375 0.17713,-37.063 0,-34.26375 0.0355,-36.07088 0.31887,-36 0.17725,0.0709 2.97638,1.27562 6.20088,2.69287 6.626,2.9055 7.26375,3.04725 8.64562,2.30313 0.42525,-0.248 3.685,-3.08263 7.26375,-6.307 7.01575,-6.30713 7.29925,-6.626 7.29925,-8.29138 0,-1.66537 -0.99212,-3.04725 -2.58662,-3.54325 -0.74413,-0.2835 -1.0275,-0.2835 -1.878,-0.10637 -1.16925,0.248 -0.63775,-0.21263 -7.37,5.91737 -4.03938,3.64963 -5.10238,4.53538 -5.35038,4.42913 -0.17725,-0.10638 -3.57875,-1.5945 -7.54725,-3.33075 l -7.22838,-3.11813 -9.85037,-0.0709 c -11.1615,-0.0709 -11.51575,-0.0354 -13.96063,1.24025 -5.2795,2.76375 -8.504,9.95662 -9.815,21.79125 -0.35437,3.2245 -0.31887,17.96462 0.0355,19.16937 0.46063,1.62988 2.0905,2.83463 3.82675,2.83463 0.81488,0 2.05513,-0.63788 2.6575,-1.38188 0.92125,-1.0985 0.95663,-1.55912 0.744,-6.73237 -0.28337,-7.26375 0.10638,-14.10238 1.13388,-19.13388 0.35437,-1.77162 1.45275,-5.35037 1.77162,-5.88187 0.10638,-0.17713 0.17725,11.79925 0.17725,35.04337 0,31.85426 0.0354,35.39763 0.31888,36.28351 0.496,1.73612 1.5945,2.97637 3.33075,3.79125 1.09837,0.49612 3.685,0.42525 4.78337,-0.14175 z m 9.0355,-89.36212 c 3.79125,-0.95675 6.874,-3.89763 7.79525,-7.51188 0.7795,-2.87 0.21263,-6.16537 -1.45275,-8.68112 -1.98425,-2.97638 -5.13775,-4.60625 -8.85825,-4.60625 -7.75987,0.0355 -12.7205,8.2205 -9.2835,15.27162 0.7795,1.63 3.04725,3.86225 4.67713,4.67725 2.26775,1.09838 4.92525,1.41725 7.12212,0.85038 z m 41.95275,-5.74013 c -0.46062,-0.46075 -0.92125,-0.8505 -0.95675,-0.8505 -0.0709,0 -1.13387,1.063 -2.3385,2.33863 l -2.23237,2.374 0.88587,0.92125 0.88588,0.88587 2.30312,-2.374 2.30313,-2.4095 -0.85038,-0.88575 z"
       style="fill:#00a1e3;fill-opacity:1;fill-rule:nonzero;stroke:none"
       id="path388"
       inkscape:connector-curvature="0" />
  </g>
</svg>
