<?xml version="1.0" encoding="UTF-8" standalone="no"?>
<!-- Created with Inkscape (http://www.inkscape.org/) -->

<svg
   xmlns:dc="http://purl.org/dc/elements/1.1/"
   xmlns:cc="http://creativecommons.org/ns#"
   xmlns:rdf="http://www.w3.org/1999/02/22-rdf-syntax-ns#"
   xmlns:svg="http://www.w3.org/2000/svg"
   xmlns="http://www.w3.org/2000/svg"
   xmlns:sodipodi="http://sodipodi.sourceforge.net/DTD/sodipodi-0.dtd"
   xmlns:inkscape="http://www.inkscape.org/namespaces/inkscape"
   width="19.999996mm"
   height="23.299278mm"
   viewBox="0 0 70.866128 82.556497"
   id="svg17947"
   version="1.1"
   inkscape:version="0.91 r13725"
   sodipodi:docname="3.svg">
  <defs
     id="defs17949" />
  <sodipodi:namedview
     id="base"
     pagecolor="#ffffff"
     bordercolor="#666666"
     borderopacity="1.0"
     inkscape:pageopacity="0.0"
     inkscape:pageshadow="2"
     inkscape:zoom="5.6"
     inkscape:cx="18.887971"
     inkscape:cy="39.335298"
     inkscape:document-units="px"
     inkscape:current-layer="layer1"
     showgrid="false"
     fit-margin-top="0"
     fit-margin-left="0"
     fit-margin-right="0"
     fit-margin-bottom="0"
     inkscape:window-width="1920"
     inkscape:window-height="1029"
     inkscape:window-x="0"
     inkscape:window-y="25"
     inkscape:window-maximized="1" />
  <metadata
     id="metadata17952">
    <rdf:RDF>
      <cc:Work
         rdf:about="">
        <dc:format>image/svg+xml</dc:format>
        <dc:type
           rdf:resource="http://purl.org/dc/dcmitype/StillImage" />
        <dc:title></dc:title>
      </cc:Work>
    </rdf:RDF>
  </metadata>
  <g
     inkscape:label="Layer 1"
     inkscape:groupmode="layer"
     id="layer1"
     transform="translate(424.0045,-362.51257)">
    <g
       transform="matrix(1.25,0,0,-1.25,-709.37887,1145.8637)"
       id="g428">
      <g
         id="g430">
        <path
           d="m 228.2995,584.2471 41.0627,-15.1251 15.6302,42.4338 -41.0626,15.1251 -15.6303,-42.4338 z"
           style="fill:#999999;fill-opacity:1;fill-rule:evenodd;stroke:none"
           id="path432"
           inkscape:connector-curvature="0" />
        <g
           id="g434">
          <path
             d="m 254.9713,585.8374 c -4.1397,0 -7.4858,-3.3458 -7.4858,-7.4855 l 0,-8.3081 2.0982,0 0,8.3081 c 0,3.0056 2.382,5.4156 5.3876,5.4156 2.9772,0 5.3875,-2.41 5.3875,-5.4156 l 0,-8.3081 2.0699,0 0,8.3081 c 0,4.1397 -3.3177,7.4855 -7.4574,7.4855 z"
             style="fill:#00a1e3;fill-opacity:1;fill-rule:evenodd;stroke:#00a1e3;stroke-width:0.21600001;stroke-linecap:butt;stroke-linejoin:miter;stroke-miterlimit:22.92558479;stroke-dasharray:none;stroke-opacity:1"
             id="path436"
             inkscape:connector-curvature="0" />
          <path
             d="m 246.238,574.4106 17.4665,0 c 0.0567,0 0.0851,-0.0567 0.0851,-0.1134 l 0,-13.4402 c 0,-0.0567 -0.0284,-0.1133 -0.0851,-0.1133 l -17.4665,0 c -0.0567,0 -0.1134,0.0566 -0.1134,0.1133 l 0,13.4402 c 0,0.0567 0.0567,0.1134 0.1134,0.1134 z"
             style="fill:#00a1e3;fill-opacity:1;fill-rule:evenodd;stroke:#00a1e3;stroke-width:0.21600001;stroke-linecap:butt;stroke-linejoin:miter;stroke-miterlimit:22.92558479;stroke-dasharray:none;stroke-opacity:1"
             id="path438"
             inkscape:connector-curvature="0" />
        </g>
      </g>
      <path
         d="m 253.582,601.9146 c 0.2551,1.0208 1.1058,2.4667 2.8355,2.4667 1.0775,0 1.9281,-0.822 1.9281,-1.9564 0,-1.7011 -1.3612,-1.7862 -2.8355,-2.7219 -1.0777,-0.6806 -1.106,-1.5596 -1.106,-2.6087 l 0,-2.6087 3.9415,0 0,1.3328 c 0,0.7937 0.0284,1.4743 0.8504,1.8145 2.2969,0.9924 4.055,2.4386 4.055,4.792 0,3.3743 -3.2043,5.7276 -6.8051,5.7276 -5.3592,0 -6.4083,-4.4231 -6.4083,-4.5365 l 3.5444,-1.7014 z m 2.7785,-8.7899 c -1.5026,0 -2.7218,-1.2192 -2.7218,-2.7505 0,-1.531 1.2192,-2.7505 2.7218,-2.7505 1.5313,0 2.7505,1.2195 2.7505,2.7505 0,1.5313 -1.2192,2.7505 -2.7505,2.7505"
         style="fill:#000000;fill-opacity:1;fill-rule:nonzero;stroke:none"
         id="path440"
         inkscape:connector-curvature="0" />
    </g>
  </g>
</svg>
