<?xml version="1.0" encoding="UTF-8" standalone="no"?>
<!-- Created with Inkscape (http://www.inkscape.org/) -->

<svg
   xmlns:dc="http://purl.org/dc/elements/1.1/"
   xmlns:cc="http://creativecommons.org/ns#"
   xmlns:rdf="http://www.w3.org/1999/02/22-rdf-syntax-ns#"
   xmlns:svg="http://www.w3.org/2000/svg"
   xmlns="http://www.w3.org/2000/svg"
   xmlns:sodipodi="http://sodipodi.sourceforge.net/DTD/sodipodi-0.dtd"
   xmlns:inkscape="http://www.inkscape.org/namespaces/inkscape"
   width="19.999996mm"
   height="16.010008mm"
   viewBox="0 0 70.866128 56.728374"
   id="svg22483"
   version="1.1"
   inkscape:version="0.91 r13725"
   sodipodi:docname="4.svg">
  <defs
     id="defs22485" />
  <sodipodi:namedview
     id="base"
     pagecolor="#ffffff"
     bordercolor="#666666"
     borderopacity="1.0"
     inkscape:pageopacity="0.0"
     inkscape:pageshadow="2"
     inkscape:zoom="1.979899"
     inkscape:cx="26.317782"
     inkscape:cy="136.53868"
     inkscape:document-units="px"
     inkscape:current-layer="layer1"
     showgrid="false"
     fit-margin-top="0"
     fit-margin-left="0"
     fit-margin-right="0"
     fit-margin-bottom="0"
     inkscape:window-width="1920"
     inkscape:window-height="1029"
     inkscape:window-x="0"
     inkscape:window-y="25"
     inkscape:window-maximized="1" />
  <metadata
     id="metadata22488">
    <rdf:RDF>
      <cc:Work
         rdf:about="">
        <dc:format>image/svg+xml</dc:format>
        <dc:type
           rdf:resource="http://purl.org/dc/dcmitype/StillImage" />
        <dc:title></dc:title>
      </cc:Work>
    </rdf:RDF>
  </metadata>
  <g
     inkscape:label="Layer 1"
     inkscape:groupmode="layer"
     id="layer1"
     transform="translate(84.004495,-398.2837)">
    <g
       transform="matrix(1.25,0,0,-1.25,-473.21487,1168.7882)"
       id="g406">
      <g
         id="g408">
        <path
           d="m 341.9257,605.2351 c 0,-0.737 -0.6236,-1.3323 -1.3606,-1.3323 -0.737,0 -1.3323,0.5953 -1.3323,1.3323 0,0.737 0.5953,1.3323 1.3323,1.3323 0.737,0 1.3606,-0.5953 1.3606,-1.3323"
           style="fill:#b9b9b9;fill-opacity:1;fill-rule:evenodd;stroke:none"
           id="path410"
           inkscape:connector-curvature="0" />
        <path
           d="m 340.6501,606.3973 c -0.0567,0 -0.1133,0 -0.1417,0 l -0.1134,-0.2551 c -0.0283,-0.0283 -0.085,-0.0283 -0.1134,-0.0567 l -0.2267,0.1984 c -0.0284,-0.0283 -0.0851,-0.0567 -0.1134,-0.085 l 0.0283,-0.2835 c -0.0283,-0.0283 -0.0567,-0.0567 -0.085,-0.085 l -0.2551,0.0567 c -0.0284,-0.0567 -0.0567,-0.0851 -0.0851,-0.1417 l 0.1701,-0.2268 c 0,-0.0284 -0.0283,-0.0567 -0.0283,-0.1134 l -0.2552,-0.085 c 0,-0.0567 0,-0.1134 0,-0.1418 l 0.2552,-0.1134 c 0,-0.0283 0.0283,-0.085 0.0283,-0.1133 l -0.1701,-0.2268 c 0.0284,-0.0284 0.0567,-0.0851 0.0851,-0.1134 l 0.2551,0.0283 c 0.0283,-0.0283 0.0567,-0.0567 0.085,-0.085 l -0.0283,-0.2835 c 0.0283,-0.0283 0.085,-0.0283 0.1134,-0.0567 l 0.2267,0.1701 c 0.0284,-0.0283 0.0851,-0.0283 0.1134,-0.0283 l 0.1134,-0.2551 c 0.0284,0 0.085,0 0.1417,0 l 0.1134,0.2551 c 0.0284,0 0.0567,0 0.1134,0.0283 l 0.1984,-0.1701 c 0.0567,0.0284 0.0851,0.0284 0.1418,0.0567 l -0.0567,0.2835 c 0.0567,0.0283 0.0567,0.0567 0.085,0.085 l 0.2835,-0.0283 c 0.0283,0.0283 0.0567,0.085 0.085,0.1134 l -0.1701,0.2268 c 0,0.0283 0,0.085 0.0284,0.1133 l 0.2551,0.1134 c 0,0.0284 0,0.0851 0,0.1418 l -0.2551,0.085 c -0.0284,0.0567 -0.0284,0.085 -0.0284,0.1134 l 0.1701,0.2268 c -0.0283,0.0566 -0.0567,0.085 -0.085,0.1417 l -0.2835,-0.0567 c -0.0283,0.0283 -0.0283,0.0567 -0.085,0.085 l 0.0567,0.2835 c -0.0567,0.0283 -0.0851,0.0567 -0.1418,0.085 l -0.1984,-0.1984 c -0.0567,0.0284 -0.085,0.0284 -0.1134,0.0567 l -0.1134,0.2551 z m -0.085,-0.6236 c 0.3118,0 0.5386,-0.2268 0.5386,-0.5386 0,-0.2834 -0.2268,-0.5386 -0.5386,-0.5386 -0.2835,0 -0.5102,0.2552 -0.5102,0.5386 0,0.3118 0.2267,0.5386 0.5102,0.5386"
           style="fill:#ffffff;fill-opacity:1;fill-rule:evenodd;stroke:none"
           id="path412"
           inkscape:connector-curvature="0" />
      </g>
      <g
         id="g414">
        <path
           d="m 334.1305,601.2099 c 0,-1.1905 -0.9922,-2.1827 -2.2111,-2.1827 -1.2189,0 -2.1826,0.9922 -2.1826,2.1827 0,1.2189 0.9637,2.211 2.1826,2.211 1.2189,0 2.2111,-0.9921 2.2111,-2.211"
           style="fill:#b9b9b9;fill-opacity:1;fill-rule:evenodd;stroke:none"
           id="path416"
           inkscape:connector-curvature="0" />
        <path
           d="m 332.0612,603.1091 c -0.0851,0 -0.1701,0 -0.2552,0 l -0.17,-0.4252 c -0.0567,0 -0.1418,-0.0283 -0.1985,-0.0567 l -0.3401,0.2835 c -0.0851,-0.0283 -0.1417,-0.085 -0.2268,-0.1134 l 0.0851,-0.4535 c -0.0567,-0.0567 -0.1134,-0.0851 -0.1418,-0.1418 l -0.4535,0.0567 c -0.0567,-0.0567 -0.0851,-0.1417 -0.1418,-0.1984 l 0.2835,-0.3685 c 0,-0.0567 -0.0283,-0.1134 -0.0283,-0.1701 l -0.4252,-0.17 c 0,-0.0851 0,-0.1701 0,-0.2552 l 0.4252,-0.17 c 0,-0.0567 0.0283,-0.1134 0.0283,-0.1701 l -0.2835,-0.3685 c 0.0567,-0.0851 0.0851,-0.1418 0.1418,-0.2268 l 0.4535,0.085 c 0.0284,-0.0567 0.0851,-0.1133 0.1418,-0.1417 l -0.0851,-0.4535 c 0.0851,-0.0567 0.1417,-0.0851 0.2268,-0.1134 l 0.3401,0.2834 c 0.0567,-0.0283 0.1418,-0.0566 0.1985,-0.0566 l 0.17,-0.4252 c 0.0851,0 0.1701,0 0.2552,0 l 0.1417,0.4252 c 0.085,0 0.1417,0.0283 0.1984,0.0566 l 0.3685,-0.2834 c 0.0567,0.0283 0.1418,0.0567 0.1985,0.1134 l -0.0567,0.4535 c 0.0567,0.0284 0.085,0.085 0.1417,0.1417 l 0.4535,-0.085 c 0.0284,0.085 0.0851,0.1417 0.1134,0.2268 l -0.2834,0.3685 c 0.0283,0.0567 0.0283,0.1134 0.0566,0.1701 l 0.4252,0.17 c 0,0.0851 0,0.1701 0,0.2552 l -0.4252,0.17 c -0.0283,0.0567 -0.0283,0.1134 -0.0566,0.1701 l 0.2834,0.3685 c -0.0283,0.0567 -0.085,0.1417 -0.1134,0.1984 l -0.4535,-0.0567 c -0.0567,0.0567 -0.085,0.0851 -0.1417,0.1418 l 0.0567,0.4535 c -0.0567,0.0284 -0.1418,0.0851 -0.1985,0.1134 l -0.3685,-0.2835 c -0.0567,0.0284 -0.1134,0.0567 -0.1984,0.0567 l -0.1417,0.4252 z m -0.1418,-1.0204 c 0.4819,0 0.8788,-0.3969 0.8788,-0.8788 0,-0.4819 -0.3969,-0.8504 -0.8788,-0.8504 -0.4819,0 -0.8787,0.3685 -0.8787,0.8504 0,0.4819 0.3968,0.8788 0.8787,0.8788"
           style="fill:#ffffff;fill-opacity:1;fill-rule:evenodd;stroke:none"
           id="path418"
           inkscape:connector-curvature="0" />
      </g>
      <path
         d="m 313.8344,616.4036 52.6677,0 0,-29.7354 -52.6677,0 0,29.7354 z"
         style="fill:#999999;fill-opacity:1;fill-rule:nonzero;stroke:none"
         id="path420"
         inkscape:connector-curvature="0" />
      <path
         d="m 325.6549,584.7123 28.148,0 0,-5.641 -28.148,0 0,5.641 z"
         style="fill:#4d4d4d;fill-opacity:1;fill-rule:nonzero;stroke:none"
         id="path422"
         inkscape:connector-curvature="0" />
      <path
         d="m 311.3683,577.8524 55.0771,0 1.6158,-6.8315 -55.0772,0 -1.6157,6.8315 z"
         style="fill:#4d4d4d;fill-opacity:1;fill-rule:nonzero;stroke:none"
         id="path424"
         inkscape:connector-curvature="0" />
      <path
         d="m 337.0785,605.5469 c 0.2835,1.0488 1.1055,2.4662 2.8346,2.4662 1.0772,0 1.9559,-0.7937 1.9559,-1.9559 0,-1.7008 -1.3606,-1.7859 -2.8346,-2.7213 -1.0772,-0.6803 -1.1339,-1.559 -1.1339,-2.6079 l 0,-2.6078 3.9685,0 0,1.3322 c 0,0.7937 0.0284,1.4741 0.8221,1.8426 2.3244,0.9637 4.0819,2.4094 4.0819,4.7622 0,3.3732 -3.2315,5.7259 -6.8315,5.7259 -5.3575,0 -6.378,-4.3937 -6.378,-4.5354 l 3.515,-1.7008 z m 2.8063,-8.7874 c -1.5307,0 -2.7496,-1.2189 -2.7496,-2.7496 0,-1.5023 1.2189,-2.7212 2.7496,-2.7212 1.5307,0 2.7496,1.2189 2.7496,2.7212 0,1.5307 -1.2189,2.7496 -2.7496,2.7496"
         style="fill:#2b2a29;fill-opacity:1;fill-rule:nonzero;stroke:none"
         id="path426"
         inkscape:connector-curvature="0" />
    </g>
  </g>
</svg>
