<?xml version="1.0" encoding="UTF-8" standalone="no"?>
<!-- Created with Inkscape (http://www.inkscape.org/) -->

<svg
   xmlns:dc="http://purl.org/dc/elements/1.1/"
   xmlns:cc="http://creativecommons.org/ns#"
   xmlns:rdf="http://www.w3.org/1999/02/22-rdf-syntax-ns#"
   xmlns:svg="http://www.w3.org/2000/svg"
   xmlns="http://www.w3.org/2000/svg"
   xmlns:sodipodi="http://sodipodi.sourceforge.net/DTD/sodipodi-0.dtd"
   xmlns:inkscape="http://www.inkscape.org/namespaces/inkscape"
   width="45.716309mm"
   height="18.92016mm"
   viewBox="0 0 161.98692 67.039938"
   id="svg13293"
   version="1.1"
   inkscape:version="0.91 r13725"
   sodipodi:docname="5-6.svg">
  <defs
     id="defs13295" />
  <sodipodi:namedview
     id="base"
     pagecolor="#ffffff"
     bordercolor="#666666"
     borderopacity="1.0"
     inkscape:pageopacity="0.0"
     inkscape:pageshadow="2"
     inkscape:zoom="15.075291"
     inkscape:cx="28.174264"
     inkscape:cy="37.097024"
     inkscape:document-units="px"
     inkscape:current-layer="layer1"
     showgrid="false"
     fit-margin-top="0"
     fit-margin-left="0"
     fit-margin-right="0"
     fit-margin-bottom="0"
     inkscape:window-width="1920"
     inkscape:window-height="1029"
     inkscape:window-x="0"
     inkscape:window-y="25"
     inkscape:window-maximized="1" />
  <metadata
     id="metadata13298">
    <rdf:RDF>
      <cc:Work
         rdf:about="">
        <dc:format>image/svg+xml</dc:format>
        <dc:type
           rdf:resource="http://purl.org/dc/dcmitype/StillImage" />
        <dc:title></dc:title>
      </cc:Work>
    </rdf:RDF>
  </metadata>
  <g
     inkscape:label="Layer 1"
     inkscape:groupmode="layer"
     id="layer1"
     transform="translate(109.56489,92.58634)">
    <g
       transform="matrix(1.25,0,0,-1.25,-637.89964,683.1696)"
       id="g390">
      <path
         d="m 424.3402,608.1973 38.863,0 c 0.9071,0 1.6441,-0.737 1.6441,-1.6441 l 0,-33.1086 c 0,-0.9071 -0.737,-1.6441 -1.6441,-1.6441 l -38.863,0 c -0.9354,0 -1.6724,0.737 -1.6724,1.6441 l 0,33.1086 c 0,0.9071 0.737,1.6441 1.6724,1.6441"
         style="fill:#00a1e3;fill-opacity:1;fill-rule:evenodd;stroke:none"
         id="path392"
         inkscape:connector-curvature="0" />
      <path
         d="m 427.4867,605.6461 32.5417,0 0,-28.5165 -32.5417,0 0,28.5165 z"
         style="fill:#ffffff;fill-opacity:1;fill-rule:nonzero;stroke:none"
         id="path394"
         inkscape:connector-curvature="0" />
      <path
         d="m 426.5512,610.3233 34.4126,0 0,-6.6898 -34.4126,0 0,6.6898 z"
         style="fill:#ff781f;fill-opacity:1;fill-rule:nonzero;stroke:none"
         id="path396"
         inkscape:connector-curvature="0" />
      <path
         style="fill:#00a1e3;fill-opacity:1;fill-rule:nonzero;stroke:#00a1e3;stroke-width:0.27000001;stroke-linecap:butt;stroke-linejoin:miter;stroke-miterlimit:22.92558479;stroke-dasharray:none;stroke-opacity:1"
         d="M 11.232422 6.2265625 C 10.594672 6.2265625 10.097656 6.757 10.097656 7.359375 L 10.097656 17.246094 C 10.097656 17.919219 10.629703 18.414062 11.267578 18.414062 L 13.642578 18.414062 C 14.315703 18.414062 14.810547 17.919219 14.810547 17.246094 L 14.810547 7.359375 C 14.810547 6.757 14.315141 6.2265625 13.712891 6.2265625 L 11.232422 6.2265625 z M 38.410156 6.2265625 C 37.772406 6.2265625 37.275391 6.757 37.275391 7.359375 L 37.275391 17.246094 C 37.275391 17.919219 37.807437 18.414062 38.445312 18.414062 L 40.853516 18.414062 C 41.491391 18.414062 42.023438 17.919219 42.023438 17.246094 L 42.023438 7.359375 C 42.023438 6.757 41.528375 6.2265625 40.890625 6.2265625 L 38.410156 6.2265625 z "
         transform="matrix(0.8,0,0,-0.8,422.6678,620.60475)"
         id="path398" />
      <path
         style="fill:#000000;fill-opacity:1;fill-rule:nonzero;stroke:none"
         d="M 18.992188 29.929688 L 13.535156 33.4375 L 13.535156 37.761719 L 16.689453 35.707031 L 16.689453 49.029297 L 21.046875 49.029297 L 21.046875 29.929688 L 18.992188 29.929688 z M 31.039062 29.929688 L 21.861328 43.714844 L 21.861328 45.025391 L 31.287109 45.025391 L 31.287109 49.029297 L 35.361328 49.029297 L 35.361328 45.025391 L 37.558594 45.025391 L 37.558594 41.199219 L 35.361328 41.199219 L 35.361328 29.929688 L 31.039062 29.929688 z M 31.216797 35.742188 L 31.287109 35.742188 L 31.287109 41.199219 L 27.814453 41.199219 L 31.216797 35.742188 z "
         transform="matrix(0.8,0,0,-0.8,422.6678,620.60475)"
         id="path402" />
    </g>
    <g
       transform="matrix(1.25,0,0,-1.25,-637.89964,683.1696)"
       id="g442">
      <path
         style="fill:#00a1e3;fill-opacity:1;fill-rule:nonzero;stroke:#00a1e3;stroke-width:0.27000001;stroke-linecap:butt;stroke-linejoin:miter;stroke-miterlimit:22.92558479;stroke-dasharray:none;stroke-opacity:1"
         d="M 126.01758 0.32617188 C 125.96645 0.38242187 125.89387 0.42440625 125.875 0.50390625 C 125.64465 2.9846313 125.51406 5.4963906 125.19336 7.9785156 C 125.23417 8.2893657 124.82985 9.2966674 125.07812 9.2753906 C 125.07233 9.2977539 125.06636 9.3407465 125.06055 9.3613281 C 125.05647 9.3729885 125.05291 9.384773 125.04883 9.3964844 C 125.02738 9.367002 124.99822 9.3421313 124.95508 9.3261719 C 124.78549 9.6036719 124.64954 10.679009 124.17578 10.318359 C 124.10105 10.314457 124.04948 10.321094 124.01758 10.333984 C 124.01252 10.329161 124.00902 10.327314 124.00391 10.322266 C 124.02518 10.30433 124.04659 10.283662 124.06836 10.248047 C 123.94375 10.182985 123.74904 9.7838106 123.58594 9.8710938 C 123.60544 9.8560696 123.62575 9.8477386 123.64453 9.8222656 C 122.86724 9.0742906 121.90528 8.5244625 120.87891 8.21875 C 120.5304 8.2197633 119.94579 7.8116205 119.70898 8.03125 C 119.68551 8.0267426 119.66421 8.0200125 119.64062 8.015625 C 119.62365 8.0127803 119.60681 8.0125354 119.58984 8.0097656 C 119.61975 7.9898116 119.65233 7.9731131 119.67578 7.9433594 C 118.76938 7.7612344 117.83535 7.7674531 116.91406 7.7675781 C 112.03085 7.9751656 107.61532 10.423375 102.8125 11.101562 C 102.3473 11.289894 101.48201 11.036101 101.1875 11.339844 C 101.16136 11.340865 101.13553 11.344818 101.10938 11.345703 C 101.11569 11.316981 101.11625 11.283748 101.10742 11.240234 C 100.91636 11.253734 100.75797 11.083703 100.54102 11.205078 C 100.55609 11.236606 100.59624 11.26348 100.62891 11.292969 C 100.6116 11.299183 100.59188 11.298771 100.57617 11.310547 C 100.57532 11.310972 100.57506 11.312064 100.57422 11.3125 C 100.56582 11.274804 100.56036 11.235681 100.54102 11.205078 C 100.38602 11.272553 100.25237 11.593391 100.32812 11.806641 C 100.37101 11.793822 100.40278 11.763481 100.43555 11.736328 C 100.43723 11.748044 100.43326 11.760018 100.43555 11.771484 L 100.4375 11.792969 C 100.16924 11.903472 100.50802 12.635245 100.43359 12.888672 C 100.59475 13.387507 100.38838 14.293713 100.70508 14.621094 C 100.66116 14.65567 100.62852 14.686771 100.62695 14.712891 C 100.57254 14.720436 100.57416 14.888332 100.71875 14.818359 L 102.5918 14.818359 L 91.595703 44.71875 C 91.400467 44.718433 91.204991 44.719104 91.009766 44.71875 C 90.042553 44.598875 90.868 45.468906 91.242188 45.941406 C 92.54745 47.494156 94.305197 48.574016 96.060547 49.533203 C 96.536697 49.729903 97.558337 50.303588 98.328125 50.515625 C 101.52989 51.563088 105.079 51.575153 108.28125 50.564453 C 109.08435 50.348541 110.2549 49.8927 111.08789 49.351562 C 113.07359 48.203675 114.73984 46.596769 116.36914 45.003906 C 116.36539 44.881156 116.77592 44.814753 116.52734 44.697266 C 116.11096 44.713693 115.69291 44.708902 115.27539 44.712891 L 104.23633 14.818359 L 125.04297 14.818359 L 123.67969 54.148438 L 123.76172 54.148438 L 123.78516 54.148438 C 123.78425 54.172536 123.78759 54.19842 123.78711 54.222656 C 123.75645 54.191992 123.72491 54.163098 123.67969 54.148438 C 123.61989 55.600975 124.28803 57.004306 124.17578 58.449219 C 124.30902 58.90789 123.75911 59.452482 123.83398 59.777344 C 123.81641 59.802247 123.80396 59.82901 123.78516 59.853516 C 123.77025 59.872803 123.74959 59.890951 123.73438 59.910156 C 123.73301 59.867073 123.73468 59.824133 123.71484 59.783203 C 122.83548 60.905766 121.64273 61.695312 120.42383 62.40625 C 116.9265 64.332675 113.0468 65.459509 109.17188 66.341797 C 108.71963 66.596146 107.82067 66.447862 107.5293 66.783203 C 107.527 66.783616 107.45117 66.798828 107.45117 66.798828 L 107.51758 66.798828 C 107.49213 66.831399 107.46484 66.862303 107.45117 66.904297 L 144.58398 66.904297 L 144.58398 66.822266 L 144.58398 66.691406 C 143.60078 66.573306 142.6442 66.255741 141.66406 66.080078 C 137.53241 64.987078 133.27454 63.775594 129.80078 61.183594 C 129.22002 60.935454 128.83327 60.030462 128.33594 59.912109 C 128.3204 59.89232 128.30036 59.873392 128.28516 59.853516 C 128.2695 59.831994 128.25887 59.808898 128.24414 59.787109 C 128.28999 59.79498 128.33751 59.799789 128.39258 59.783203 C 127.55075 58.593166 128.04909 57.059472 128.33008 55.763672 C 128.30354 55.322004 128.68075 54.485194 128.38867 54.21875 C 128.38821 54.195721 128.39344 54.171352 128.39258 54.148438 L 128.38867 54.03125 C 128.42101 54.074911 128.45204 54.118926 128.49805 54.148438 L 127.13281 14.818359 L 147.66211 14.818359 L 136.66211 44.724609 C 136.26758 44.724608 135.87304 44.724611 135.47852 44.724609 C 136.8091 47.074172 139.22967 48.514672 141.54883 49.748047 C 145.77779 51.831397 150.93389 51.794472 155.21484 49.873047 C 157.67643 48.655484 159.70112 46.730503 161.62305 44.814453 C 161.36776 44.591016 160.83373 44.789859 160.46484 44.724609 C 160.42708 44.724609 160.38932 44.724609 160.35156 44.724609 L 149.33984 14.818359 L 149.48633 14.818359 C 149.9886 14.705637 150.89944 15.00273 151.22656 14.714844 C 151.61404 14.883749 151.4094 13.881404 151.5293 13.628906 C 151.46568 13.107693 151.85331 12.24102 151.58984 11.873047 L 151.59961 11.771484 C 151.60088 11.765103 151.59666 11.758419 151.59766 11.751953 C 151.63183 11.774958 151.66321 11.80505 151.70703 11.806641 C 151.72106 11.567766 151.69388 11.391634 151.5293 11.240234 C 151.48574 11.251056 151.46058 11.290461 151.44531 11.337891 C 151.43596 11.331477 151.4339 11.31559 151.42383 11.310547 C 151.41685 11.305313 151.4077 11.306811 151.40039 11.302734 C 151.43884 11.27071 151.48483 11.239858 151.49414 11.205078 C 151.34423 11.096591 151.10737 11.227734 150.92773 11.240234 C 150.90802 11.283178 150.90187 11.315152 150.90234 11.34375 C 150.89921 11.343836 150.89569 11.345703 150.89258 11.345703 C 150.87821 11.343721 150.86398 11.339899 150.84961 11.337891 C 150.87898 11.310034 150.90978 11.28407 150.92773 11.240234 C 149.70413 11.090247 148.49269 10.815878 147.29883 10.517578 C 142.93963 9.4252406 138.63248 7.6977344 134.06836 7.8027344 C 133.61994 7.8566427 132.76802 7.7451852 132.47852 8.0039062 C 132.4387 8.0087277 132.39921 8.0104773 132.35938 8.015625 C 132.35212 8.0166612 132.34514 8.0184799 132.33789 8.0195312 C 132.34702 7.9952664 132.35863 7.9735542 132.35938 7.9433594 C 131.28569 8.0595219 130.19232 8.3994719 129.29297 9.0136719 C 129.06847 9.2700633 128.41257 9.5586013 128.45898 9.8613281 C 128.44886 9.8723018 128.43778 9.8814895 128.42773 9.8925781 C 128.28598 10.034203 128.03711 10.318359 128.03711 10.318359 C 127.43473 10.885359 127.22261 10.069953 126.97461 9.3613281 C 126.96934 9.3440192 126.96422 9.3076344 126.95898 9.2890625 C 126.99511 9.3078648 127.03224 9.3247272 127.08008 9.3261719 C 126.52317 6.7754594 126.49024 4.1266406 126.23047 1.5332031 C 126.20437 1.164286 126.20626 0.44995948 126.0332 0.41210938 C 126.02626 0.38583904 126.0282 0.34750774 126.01758 0.32617188 z M 151.42383 14.712891 C 151.02262 14.707891 151.48345 15.081928 151.42383 14.712891 z M 103.42188 16.203125 L 113.95508 44.728516 C 113.20429 44.724878 112.45283 44.716505 111.70312 44.724609 C 105.4431 44.721206 99.180563 44.726412 92.921875 44.71875 L 103.42188 16.203125 z M 148.50781 16.246094 L 159.02344 44.724609 C 152.01247 44.724602 145.00119 44.724623 137.99023 44.724609 L 148.50781 16.246094 z "
         transform="matrix(0.8,0,0,-0.8,422.6678,620.60475)"
         id="path446" />
    </g>
  </g>
</svg>
