<?xml version="1.0" encoding="UTF-8" standalone="no"?>
<!-- Created with Inkscape (http://www.inkscape.org/) -->

<svg
   xmlns:dc="http://purl.org/dc/elements/1.1/"
   xmlns:cc="http://creativecommons.org/ns#"
   xmlns:rdf="http://www.w3.org/1999/02/22-rdf-syntax-ns#"
   xmlns:svg="http://www.w3.org/2000/svg"
   xmlns="http://www.w3.org/2000/svg"
   xmlns:sodipodi="http://sodipodi.sourceforge.net/DTD/sodipodi-0.dtd"
   xmlns:inkscape="http://www.inkscape.org/namespaces/inkscape"
   width="14.879991mm"
   height="15.498093mm"
   viewBox="0 0 52.724376 54.914501"
   id="svg27024"
   version="1.1"
   inkscape:version="0.91 r13725"
   sodipodi:docname="5.svg">
  <defs
     id="defs27026" />
  <sodipodi:namedview
     id="base"
     pagecolor="#ffffff"
     bordercolor="#666666"
     borderopacity="1.0"
     inkscape:pageopacity="0.0"
     inkscape:pageshadow="2"
     inkscape:zoom="5.6"
     inkscape:cx="-20.189858"
     inkscape:cy="31.931689"
     inkscape:document-units="px"
     inkscape:current-layer="layer1"
     showgrid="false"
     fit-margin-top="0"
     fit-margin-left="0"
     fit-margin-right="0"
     fit-margin-bottom="0"
     inkscape:window-width="1920"
     inkscape:window-height="1029"
     inkscape:window-x="0"
     inkscape:window-y="25"
     inkscape:window-maximized="1" />
  <metadata
     id="metadata27029">
    <rdf:RDF>
      <cc:Work
         rdf:about="">
        <dc:format>image/svg+xml</dc:format>
        <dc:type
           rdf:resource="http://purl.org/dc/dcmitype/StillImage" />
        <dc:title></dc:title>
      </cc:Work>
    </rdf:RDF>
  </metadata>
  <g
     inkscape:label="Layer 1"
     inkscape:groupmode="layer"
     id="layer1"
     transform="translate(-305.06638,-362.04777)">
    <g
       transform="matrix(1.25,0,0,-1.25,-223.26837,1131.7129)"
       id="g390">
      <path
         d="m 424.3402,608.1973 38.863,0 c 0.9071,0 1.6441,-0.737 1.6441,-1.6441 l 0,-33.1086 c 0,-0.9071 -0.737,-1.6441 -1.6441,-1.6441 l -38.863,0 c -0.9354,0 -1.6724,0.737 -1.6724,1.6441 l 0,33.1086 c 0,0.9071 0.737,1.6441 1.6724,1.6441"
         style="fill:#00a1e3;fill-opacity:1;fill-rule:evenodd;stroke:none"
         id="path392"
         inkscape:connector-curvature="0" />
      <path
         d="m 427.4867,605.6461 32.5417,0 0,-28.5165 -32.5417,0 0,28.5165 z"
         style="fill:#ffffff;fill-opacity:1;fill-rule:nonzero;stroke:none"
         id="path394"
         inkscape:connector-curvature="0" />
      <path
         d="m 426.5512,610.3233 34.4126,0 0,-6.6898 -34.4126,0 0,6.6898 z"
         style="fill:#ff781f;fill-opacity:1;fill-rule:nonzero;stroke:none"
         id="path396"
         inkscape:connector-curvature="0" />
      <path
         d="m 433.6379,615.6241 c 0.4818,0 0.8787,-0.4252 0.8787,-0.9071 l 0,-7.9087 c 0,-0.5385 -0.3969,-0.9354 -0.9354,-0.9354 l -1.8992,0 c -0.5103,0 -0.9355,0.3969 -0.9355,0.9354 l 0,7.9087 c 0,0.4819 0.3969,0.9071 0.9071,0.9071 l 1.9843,0 z"
         style="fill:#00a1e3;fill-opacity:1;fill-rule:nonzero;stroke:#00a1e3;stroke-width:0.21600001;stroke-linecap:butt;stroke-linejoin:miter;stroke-miterlimit:22.92558479;stroke-dasharray:none;stroke-opacity:1"
         id="path398"
         inkscape:connector-curvature="0" />
      <path
         d="m 455.3796,615.6241 c 0.5102,0 0.9071,-0.4252 0.9071,-0.9071 l 0,-7.9087 c 0,-0.5385 -0.4252,-0.9354 -0.9355,-0.9354 l -1.9275,0 c -0.5103,0 -0.9354,0.3969 -0.9354,0.9354 l 0,7.9087 c 0,0.4819 0.3968,0.9071 0.907,0.9071 l 1.9843,0 z"
         style="fill:#00a1e3;fill-opacity:1;fill-rule:nonzero;stroke:none"
         id="path400"
         inkscape:connector-curvature="0" />
      <path
         d="m 433.4961,590.3957 2.5229,1.6441 0,-10.6582 3.4866,0 0,15.2787 -1.6441,0 -4.3654,-2.8063 0,-3.4583 z"
         style="fill:#000000;fill-opacity:1;fill-rule:nonzero;stroke:none"
         id="path402"
         inkscape:connector-curvature="0" />
      <path
         d="m 450.9575,587.6461 0,9.0142 -3.4582,0 -7.3418,-11.0268 0,-1.0488 7.5402,0 0,-3.2031 3.2598,0 0,3.2031 1.7575,0 0,3.0614 -1.7575,0 z m -3.2598,4.3654 0,-4.3654 -2.778,0 2.7213,4.3654 0.0567,0 z"
         style="fill:#000000;fill-opacity:1;fill-rule:nonzero;stroke:none"
         id="path404"
         inkscape:connector-curvature="0" />
    </g>
  </g>
</svg>
