<?xml version="1.0" encoding="UTF-8" standalone="no"?>
<!-- Created with Inkscape (http://www.inkscape.org/) -->

<svg
   xmlns:dc="http://purl.org/dc/elements/1.1/"
   xmlns:cc="http://creativecommons.org/ns#"
   xmlns:rdf="http://www.w3.org/1999/02/22-rdf-syntax-ns#"
   xmlns:svg="http://www.w3.org/2000/svg"
   xmlns="http://www.w3.org/2000/svg"
   xmlns:sodipodi="http://sodipodi.sourceforge.net/DTD/sodipodi-0.dtd"
   xmlns:inkscape="http://www.inkscape.org/namespaces/inkscape"
   width="20.274538mm"
   height="18.92016mm"
   viewBox="0 0 71.838914 67.039938"
   id="svg31576"
   version="1.1"
   inkscape:version="0.91 r13725"
   sodipodi:docname="6.svg">
  <defs
     id="defs31578" />
  <sodipodi:namedview
     id="base"
     pagecolor="#ffffff"
     bordercolor="#666666"
     borderopacity="1.0"
     inkscape:pageopacity="0.0"
     inkscape:pageshadow="2"
     inkscape:zoom="6.2052565"
     inkscape:cx="52.238953"
     inkscape:cy="18.062928"
     inkscape:document-units="px"
     inkscape:current-layer="layer1"
     showgrid="false"
     fit-margin-top="0"
     fit-margin-left="0"
     fit-margin-right="0"
     fit-margin-bottom="0"
     inkscape:window-width="1920"
     inkscape:window-height="1029"
     inkscape:window-x="0"
     inkscape:window-y="25"
     inkscape:window-maximized="1" />
  <metadata
     id="metadata31581">
    <rdf:RDF>
      <cc:Work
         rdf:about="">
        <dc:format>image/svg+xml</dc:format>
        <dc:type
           rdf:resource="http://purl.org/dc/dcmitype/StillImage" />
        <dc:title></dc:title>
      </cc:Work>
    </rdf:RDF>
  </metadata>
  <g
     inkscape:label="Layer 1"
     inkscape:groupmode="layer"
     id="layer1"
     transform="translate(-484.08054,-355.98506)">
    <path
       style="fill:#00a1e3;fill-opacity:1;fill-rule:nonzero;stroke:#00a1e3;stroke-width:0.27000001;stroke-linecap:butt;stroke-linejoin:miter;stroke-miterlimit:22.92558479;stroke-dasharray:none;stroke-opacity:1"
       d="m 26.410156,44.615234 c -0.02035,-0.02202 -0.0721,-3e-5 -0.177734,0.109375 1.12e-4,0.0087 0.0016,0.0096 0.002,0.01758 -0.05417,-0.07024 -0.132279,-0.115086 -0.199219,-0.01758 -7.744051,0.10102 -15.496884,-0.198469 -23.2343748,0.105469 l -2.3632812,0 c 0.0242302,0.03481 0.0516058,0.06701 0.0761719,0.101563 -0.0254014,0.0014 -0.0507709,0.0025 -0.0761719,0.0039 l 0.078125,0 c 0.27649108,0.388661 0.5762712,0.757822 0.8925781,1.113281 C 0.97805811,45.640841 0.60177825,45.243044 0.4375,44.935547 c 0.55849,0.99781 1.3561769,1.843541 2.2480469,2.550781 0.6129226,0.384467 0.652117,0.397789 0.9003906,0.546875 0.8160463,0.602962 1.6917879,1.127747 2.6074219,1.560547 0.6985215,0.369631 1.4198286,0.65859 2.1523437,0.900391 -0.185989,-0.04322 -0.3700713,-0.08648 -0.546875,-0.136719 2.7517029,1.002852 5.7907369,1.212825 8.6523439,0.595703 2.79761,-0.611266 5.335312,-1.823746 7.699219,-3.976563 0.719381,-0.623538 1.388391,-1.304268 1.990234,-2.041015 l 0.0918,0 c 0.04481,0.01141 0.06456,-0.01187 0.06641,-0.04687 0.06631,-0.02351 0.151345,-0.230149 0.111328,-0.273438 z M 7.7988281,50.357422 C 7.1841747,50.133413 6.5802456,49.882649 6,49.578125 c 0.4774562,0.326913 1.0998759,0.580707 1.7988281,0.779297 z M 0.4375,44.724609 c -0.12209,0.18438 0.19563,-0.009 0,0 z"
       transform="translate(484.08054,355.98506)"
       id="path446"
       inkscape:connector-curvature="0"
       sodipodi:nodetypes="ccccccccccccccccccccccccccc" />
    <path
       d="m 486.04079,401.06325 12.01175,-32.563 -12.01175,32.563 z"
       style="fill:#00a1e3;fill-opacity:1;fill-rule:nonzero;stroke:#00a1e3;stroke-width:0.27000001;stroke-linecap:butt;stroke-linejoin:miter;stroke-miterlimit:22.92558479;stroke-dasharray:none;stroke-opacity:1"
       id="path452"
       inkscape:connector-curvature="0" />
    <path
       d="m 498.61954,368.74825 -11.97637,32.52763 -1.16925,-0.42525 11.97637,-32.563 1.16925,0.46062 z m -13.14562,32.10238 11.97637,-32.563 1.16925,0.46062 -11.97637,32.52763 -1.16925,-0.42525 z"
       style="fill:#00a1e3;fill-opacity:1;fill-rule:nonzero;stroke:#00a1e3;stroke-width:0.27000001;stroke-linecap:butt;stroke-linejoin:miter;stroke-miterlimit:22.92558479;stroke-dasharray:none;stroke-opacity:1"
       id="path454"
       inkscape:connector-curvature="0" />
    <path
       d="m 508.75342,401.31125 -11.97638,-32.5275 11.97638,32.5275 z"
       style="fill:#00a1e3;fill-opacity:1;fill-rule:nonzero;stroke:#00a1e3;stroke-width:0.27000001;stroke-linecap:butt;stroke-linejoin:miter;stroke-miterlimit:22.92558479;stroke-dasharray:none;stroke-opacity:1"
       id="path458"
       inkscape:connector-curvature="0" />
    <path
       d="m 497.34392,368.57113 12.01187,32.5275 -1.16938,0.42525 -12.01175,-32.52751 1.16925,-0.42524 z m 10.8425,32.95275 -12.01175,-32.52751 1.16925,-0.42524 12.01187,32.5275 -1.16937,0.42525 z"
       style="fill:#00a1e3;fill-opacity:1;fill-rule:nonzero;stroke:#00a1e3;stroke-width:0.27000001;stroke-linecap:butt;stroke-linejoin:miter;stroke-miterlimit:22.92558479;stroke-dasharray:none;stroke-opacity:1"
       id="path460"
       inkscape:connector-curvature="0" />
    <path
       style="fill:#00a1e3;fill-opacity:1;fill-rule:nonzero;stroke:#00a1e3;stroke-width:0.27000001;stroke-linecap:butt;stroke-linejoin:miter;stroke-miterlimit:22.92558479;stroke-dasharray:none;stroke-opacity:1"
       d="m 555.52781,400.67451 c -1.11788,0.0806 -2.25354,0.0128 -3.3784,0.0352 -7.39628,-0.007 -14.79681,0.0136 -22.19041,-0.0102 -1.05016,-0.19081 -0.0471,0.71163 0.31986,1.26593 1.30199,1.53025 3.05164,2.58569 4.77906,3.55648 0.54695,0.25567 1.59336,0.78159 2.40482,1.02482 3.16905,0.99501 6.66455,1.00376 9.82211,9.6e-4 0.59719,-0.15326 1.57245,-0.51671 2.2554,-0.89017 2.2044,-1.16554 4.00593,-2.91714 5.80692,-4.60735 -0.0437,-0.14822 0.4578,-0.27191 0.18064,-0.37562 z"
       id="path464"
       inkscape:connector-curvature="0" />
    <path
       d="m 531.11167,401.06325 12.01175,-32.563 -12.01175,32.563 z"
       style="fill:#00a1e3;fill-opacity:1;fill-rule:nonzero;stroke:#00a1e3;stroke-width:0.27000001;stroke-linecap:butt;stroke-linejoin:miter;stroke-miterlimit:22.92558479;stroke-dasharray:none;stroke-opacity:1"
       id="path470"
       inkscape:connector-curvature="0" />
    <path
       d="m 543.72579,368.74825 -12.01175,32.52763 -1.16938,-0.42525 11.97638,-32.563 1.20475,0.46062 z m -13.18113,32.10238 11.97638,-32.563 1.20475,0.46062 -12.01175,32.52763 -1.16938,-0.42525 z"
       style="fill:#00a1e3;fill-opacity:1;fill-rule:nonzero;stroke:#00a1e3;stroke-width:0.27000001;stroke-linecap:butt;stroke-linejoin:miter;stroke-miterlimit:22.92558479;stroke-dasharray:none;stroke-opacity:1"
       id="path472"
       inkscape:connector-curvature="0" />
    <path
       d="m 553.82429,401.31125 -11.97637,-32.5275 11.97637,32.5275 z"
       style="fill:#00a1e3;fill-opacity:1;fill-rule:nonzero;stroke:#00a1e3;stroke-width:0.27000001;stroke-linecap:butt;stroke-linejoin:miter;stroke-miterlimit:22.92558479;stroke-dasharray:none;stroke-opacity:1"
       id="path476"
       inkscape:connector-curvature="0" />
    <path
       d="m 542.45029,368.57113 11.97637,32.5275 -1.16937,0.42525 -12.01175,-32.52751 1.20475,-0.42524 z m 10.807,32.95275 -12.01175,-32.52751 1.20475,-0.42524 11.97637,32.5275 -1.16937,0.42525 z"
       style="fill:#00a1e3;fill-opacity:1;fill-rule:nonzero;stroke:#00a1e3;stroke-width:0.27000001;stroke-linecap:butt;stroke-linejoin:miter;stroke-miterlimit:22.92558479;stroke-dasharray:none;stroke-opacity:1"
       id="path478"
       inkscape:connector-curvature="0" />
    <path
       style="fill:#00a1e3;fill-opacity:1;fill-rule:nonzero;stroke:#00a1e3;stroke-width:0.27000001;stroke-linecap:butt;stroke-linejoin:miter;stroke-miterlimit:22.92558479;stroke-dasharray:none;stroke-opacity:1"
       d="m 518.99265,370.16475 c -0.44671,13.50023 -0.95861,26.99934 -1.38086,40.5 0.10558,1.71065 1.139,3.67602 -0.0477,5.20332 -2.23775,2.5399 -5.54363,3.72915 -8.63913,4.87232 -2.47508,0.77861 -4.99273,1.48912 -7.54167,1.93608 0.32226,0.48385 1.53176,0.0804 2.20543,0.21289 11.64312,0 23.28623,0 34.92934,0 -0.17596,-0.48729 -1.21334,-0.28077 -1.72163,-0.56245 -4.11209,-0.93734 -8.25282,-2.13575 -11.88684,-4.33241 -1.41849,-0.94912 -3.2968,-2.17923 -3.04583,-4.1403 0.24079,-1.66967 0.76135,-3.30672 0.52149,-5.01724 -0.44407,-12.89076 -0.89807,-25.78135 -1.33594,-38.67221 -0.68555,0 -1.37109,0 -2.05664,0 z"
       id="path482"
       inkscape:connector-curvature="0" />
    <path
       style="fill:#00a1e3;fill-opacity:1;fill-rule:nonzero;stroke:#00a1e3;stroke-width:0.27000001;stroke-linecap:butt;stroke-linejoin:miter;stroke-miterlimit:22.92558479;stroke-dasharray:none;stroke-opacity:1"
       d="M 35.876953 0.72265625 C 35.760222 0.70970516 35.649612 2.8765469 35.585938 3.5371094 C 35.272677 5.7900994 35.494013 8.2235894 34.501953 10.318359 C 33.184783 10.370029 32.018362 8.203415 30.326172 8.203125 C 25.185752 6.917145 20.218538 9.4260963 15.335938 10.660156 C 13.721677 11.132986 11.942277 11.285819 10.341797 11.386719 C 10.246257 12.478089 10.515112 13.606961 10.570312 14.712891 L 61.167969 14.712891 L 61.169922 14.712891 L 61.257812 13.792969 C 61.243212 12.972409 61.643601 12.046477 61.275391 11.310547 C 58.956441 11.272237 56.660823 10.454601 54.408203 9.8691406 C 49.962483 8.6263806 45.188034 7.0506069 40.583984 8.4042969 C 39.147794 8.2462169 37.930279 11.519475 37.011719 9.890625 C 36.199089 7.216035 36.296571 4.3588863 35.994141 1.5976562 C 35.955788 0.97192625 35.915864 0.72697328 35.876953 0.72265625 z "
       transform="translate(484.08054,355.98506)"
       id="path488" />
    <path
       style="fill:#00a1e3;fill-opacity:1;fill-rule:nonzero;stroke:#00a1e3;stroke-width:0.27000001;stroke-linecap:butt;stroke-linejoin:miter;stroke-miterlimit:22.92558479;stroke-dasharray:none;stroke-opacity:1"
       d="m 494.65104,370.59075 c 16.86612,0 33.73225,0 50.59837,0 -0.86915,0.49188 -2.05005,0.0918 -3.05962,0.21262 -15.84625,0 -31.6925,0 -47.53875,0 l -0.0947,-0.10727 0.0947,-0.10535 0,0 z m 0,0.21262 c -0.2315,0.10972 -0.0746,-0.32048 0,0 z m -0.21262,-3.04725 c 0.10629,0.98033 0.21258,1.96067 0.31887,2.941 -0.45159,-0.63692 -0.51097,-2.30155 -0.31887,-2.941 z m 0.0355,-0.56687 c 0.23767,0.79287 -0.67491,0.69581 0,0 z m 0.10624,0.17713 0.0354,-0.0354 -0.0354,0.0354 z m 0.46063,-0.14175 c -0.18148,0.62577 -0.97221,-0.3825 0,0 z m 18.56687,-3.29525 c -1.92571,0.14918 -4.08653,-0.11708 -6.05136,0.48057 -4.18387,0.94348 -8.16978,2.89422 -12.51554,3.02733 1.21894,-0.52146 2.82789,-0.34146 4.1619,-0.83942 4.72851,-1.17775 9.40719,-3.52448 14.405,-2.66848 z m 3.9685,1.87799 c -0.88917,-0.5663 -3.33815,-1.5688 -3.79287,-1.86032 1.39784,0.26522 2.76466,0.84737 3.79287,1.86032 z m 0.42525,0.42513 c -0.64547,0.40124 -0.62694,-1.02586 0,0 z m 0.88588,-0.92125 c 0.71979,0.67123 -1.12762,1.75266 -0.77993,0.99255 0.54527,0.33191 0.58312,-0.74128 0.77993,-0.99255 z m 0.17712,0.0355 0,0.0354 0,-0.0354 z m 0.88588,-9.0355 c -0.09,2.80618 -0.35294,5.64197 -0.73742,8.43576 -0.54511,1.16849 0.2137,-2.35188 0.16768,-3.12099 0.15802,-1.7112 0.26904,-3.42636 0.42789,-5.13749 l 0.14183,-0.17728 2e-5,0 z m 1.06287,9 c -0.78016,-1.18823 -0.54752,-3.02305 -0.79942,-4.48369 -0.11661,-1.45872 -0.20389,-2.92031 -0.37018,-4.37461 0.62427,0.92212 0.32829,2.93014 0.57589,4.26281 0.11779,1.54032 0.26171,3.0842 0.59371,4.59549 z m -0.2125,0.0355 0,0.0354 0,-0.0354 z m 1.06301,0.88575 c -0.23042,1.54457 -1.6042,-2.04155 -0.63126,-0.29768 0.0682,0.2678 0.37483,0.68606 0.63126,0.29768 z m 0.42512,-0.42512 c 0.31816,0.58762 -0.98866,0.8021 0,0 z m 4.004,-1.878 c -1.15261,0.28381 -3.3182,1.48679 -3.87729,1.76763 0.99966,-1.06576 2.44388,-1.61395 3.87729,-1.76763 z m 18.56687,3.29525 c -1.29286,0.36199 -2.81004,-0.43403 -4.16401,-0.64833 -4.68798,-1.24831 -9.43025,-3.0576 -14.36751,-2.46983 1.9083,-0.75913 4.28268,-0.13494 6.31307,0.12469 4.11875,0.80451 8.04599,2.4419 12.21845,2.99347 z m 0.56698,-0.0354 c -0.59643,0.6722 -0.9346,-0.22104 0,0 z m -0.10638,0.17713 -0.0981,-0.0655 0.0981,0.0655 z m 0.31888,0.42525 c -0.64281,-0.31265 0.087,-0.91096 0,0 z m -0.496,2.9055 c 0.0945,-0.98033 0.189,-1.96067 0.2835,-2.941 0.32468,0.65109 0.0608,2.53539 -0.2835,2.941 z m 0.21262,0 c 0.089,0.38633 -0.41565,-0.0518 0,0 z m -0.0709,-0.10638 -0.11307,0.17293 0.11307,-0.17293 z m -0.0355,0 0.0355,0 -0.0355,0 z"
       id="path490"
       inkscape:connector-curvature="0" />
  </g>
</svg>
