<?xml version="1.0" encoding="UTF-8" standalone="no"?>
<!-- Created with Inkscape (http://www.inkscape.org/) -->

<svg
   xmlns:dc="http://purl.org/dc/elements/1.1/"
   xmlns:cc="http://creativecommons.org/ns#"
   xmlns:rdf="http://www.w3.org/1999/02/22-rdf-syntax-ns#"
   xmlns:svg="http://www.w3.org/2000/svg"
   xmlns="http://www.w3.org/2000/svg"
   xmlns:sodipodi="http://sodipodi.sourceforge.net/DTD/sodipodi-0.dtd"
   xmlns:inkscape="http://www.inkscape.org/namespaces/inkscape"
   width="20.372786mm"
   height="8.7500181mm"
   viewBox="0 0 72.187035 31.004001"
   id="svg36158"
   version="1.1"
   inkscape:version="0.91 r13725"
   sodipodi:docname="7.svg">
  <defs
     id="defs36160" />
  <sodipodi:namedview
     id="base"
     pagecolor="#ffffff"
     bordercolor="#666666"
     borderopacity="1.0"
     inkscape:pageopacity="0.0"
     inkscape:pageshadow="2"
     inkscape:zoom="2.8"
     inkscape:cx="98.374399"
     inkscape:cy="43.862379"
     inkscape:document-units="px"
     inkscape:current-layer="layer1"
     showgrid="false"
     fit-margin-top="0"
     fit-margin-left="0"
     fit-margin-right="0"
     fit-margin-bottom="0"
     inkscape:window-width="1920"
     inkscape:window-height="1029"
     inkscape:window-x="0"
     inkscape:window-y="25"
     inkscape:window-maximized="1" />
  <metadata
     id="metadata36163">
    <rdf:RDF>
      <cc:Work
         rdf:about="">
        <dc:format>image/svg+xml</dc:format>
        <dc:type
           rdf:resource="http://purl.org/dc/dcmitype/StillImage" />
        <dc:title></dc:title>
      </cc:Work>
    </rdf:RDF>
  </metadata>
  <g
     inkscape:label="Layer 1"
     inkscape:groupmode="layer"
     id="layer1"
     transform="translate(896.09352,-322.57449)">
    <g
       transform="matrix(1.25,0,0,-1.25,-1165.2226,886.75474)"
       id="g178">
      <path
         d="m 215.6332,448.3959 25.1575,0 0,-18.4961 -25.1575,0 0,18.4961 z"
         style="fill:#00a1e3;fill-opacity:1;fill-rule:nonzero;stroke:#ffffff;stroke-width:0.21600001;stroke-linecap:butt;stroke-linejoin:miter;stroke-miterlimit:22.92558479;stroke-dasharray:none;stroke-opacity:1"
         id="path180"
         inkscape:connector-curvature="0" />
      <path
         d="m 240.7907,448.2187 -25.1575,0 0,0.3543 25.1575,0 0.1771,-0.1771 -0.1771,-0.1772 z m 0,0.3543 0.1771,0 0,-0.1771 -0.1771,0.1771 z m -0.1772,-18.6732 0,18.4961 0.3543,0 0,-18.4961 -0.1771,-0.1772 -0.1772,0.1772 z m 0.3543,0 0,-0.1772 -0.1771,0 0.1771,0.1772 z m -25.3346,0.1772 25.1575,0 0,-0.3544 -25.1575,0 -0.1772,0.1772 0.1772,0.1772 z m 0,-0.3544 -0.1772,0 0,0.1772 0.1772,-0.1772 z m 0.1772,18.6733 0,-18.4961 -0.3544,0 0,18.4961 0.1772,0.1771 0.1772,-0.1771 z m -0.3544,0 0,0.1771 0.1772,0 -0.1772,-0.1771 z"
         style="fill:#00a1e3;fill-opacity:1;fill-rule:nonzero;stroke:#ffffff;stroke-width:0.21600001;stroke-linecap:butt;stroke-linejoin:miter;stroke-miterlimit:22.92558479;stroke-dasharray:none;stroke-opacity:1"
         id="path182"
         inkscape:connector-curvature="0" />
    </g>
    <g
       transform="matrix(1.25,0,0,-1.25,-1165.2226,886.75474)"
       id="g184">
      <path
         d="m 226.5111,437.3408 -10.9842,10.6653 0.248,0.248 10.9843,-10.6653 -0.2481,-0.248 z m 0,0 0,0 0,0 z m 3.0827,0.248 0.2835,-0.248 0,0 -0.1063,-0.0709 -0.0709,-0.0709 -0.1063,-0.0708 -0.1063,-0.0709 -0.0708,-0.0354 -0.1063,-0.0709 -0.1063,-0.0354 -0.1063,-0.0355 -0.1063,-0.0354 -0.1063,-0.0354 -0.1063,-0.0355 -0.1418,-0.0354 -0.1063,0 -0.1063,0 -0.1063,-0.0354 -0.1417,0 -0.1063,0 -0.1063,0 -0.1063,0.0354 -0.1063,0 -0.1417,0.0354 -0.1063,0.0355 -0.1063,0.0354 -0.1063,0.0354 -0.1063,0.0355 -0.1063,0.0354 -0.1063,0.0709 -0.1063,0.0354 -0.0709,0.0709 -0.1063,0.0708 -0.1063,0.0709 -0.0709,0.0709 0.2481,0.248 0.0708,-0.0709 0.0709,-0.0708 0.0709,-0.0355 0.1063,-0.0708 0.0708,-0.0355 0.1063,-0.0354 0.0709,-0.0354 0.1063,-0.0355 0.0709,-0.0354 0.1063,-0.0354 0.1063,-0.0355 0.0708,0 0.1063,-0.0354 0.1063,0 0.1063,0 0.0709,0 0.1063,0 0.1063,0 0.1063,0 0.1063,0.0354 0.0709,0 0.1063,0.0355 0.1063,0.0354 0.0708,0.0354 0.1063,0.0355 0.0709,0.0354 0.1063,0.0354 0.0709,0.0355 0.0708,0.0708 0.0709,0.0355 0.0709,0.0708 0.0708,0.0709 z m 11.2677,10.3464 -10.9842,-10.5944 -0.2835,0.248 11.0197,10.5945 0.248,-0.2481 z"
         style="fill:#00a1e3;fill-opacity:1;fill-rule:nonzero;stroke:#ffffff;stroke-width:0.21600001;stroke-linecap:butt;stroke-linejoin:miter;stroke-miterlimit:22.92558479;stroke-dasharray:none;stroke-opacity:1"
         id="path186"
         inkscape:connector-curvature="0" />
    </g>
    <g
       transform="matrix(1.25,0,0,-1.25,-1165.2226,886.75474)"
       id="g188">
      <path
         d="m 224.9167,439.1478 -9,-9.2126 -0.2835,0.2835 9.0354,9.2126 0.2481,-0.2835 z"
         style="fill:#00a1e3;fill-opacity:1;fill-rule:nonzero;stroke:#ffffff;stroke-width:0.21600001;stroke-linecap:butt;stroke-linejoin:miter;stroke-miterlimit:22.92558479;stroke-dasharray:none;stroke-opacity:1"
         id="path190"
         inkscape:connector-curvature="0" />
    </g>
    <g
       transform="matrix(1.25,0,0,-1.25,-1165.2226,886.75474)"
       id="g192">
      <path
         d="m 231.9678,439.3604 8.9646,-9.1417 -0.2835,-0.2835 -8.9645,9.1772 0.2834,0.248 z"
         style="fill:#00a1e3;fill-opacity:1;fill-rule:nonzero;stroke:#ffffff;stroke-width:0.21600001;stroke-linecap:butt;stroke-linejoin:miter;stroke-miterlimit:22.92558479;stroke-dasharray:none;stroke-opacity:1"
         id="path194"
         inkscape:connector-curvature="0" />
    </g>
    <path
       d="m -830.50585,340.55674 c -1.72738,0 -1.816,-1.55012 -1.816,-1.55012 l 0,-7.57388 -4.3405,0 0,1.32875 c -1.10725,-1.063 -2.6575,-1.72737 -4.562,-1.72737 -3.98625,0 -6.86513,3.27762 -6.86513,7.35237 0,4.07488 2.87888,7.30813 6.86513,7.30813 1.9045,0 3.54325,-0.84163 4.562,-1.94888 l 0.35437,-0.48712 c 1.19575,1.01862 3.056,1.683 5.00488,1.683 3.58762,0 7.39662,-2.30313 7.39662,-7.97238 0,-8.54825 -6.998,-14.39475 -15.45762,-14.39475 -8.85825,0 -16.3435,6.24513 -16.3435,15.45775 0,9.2125 7.48525,15.54625 16.3435,15.54625 7.8395,0 10.98425,-4.82775 10.98425,-4.82775 l -4.20775,-2.79037 c 0,0 -1.99313,2.436 -6.7765,2.436 -6.068,0 -11.02863,-4.42913 -11.02863,-10.36413 0,-5.89075 4.87213,-10.71862 11.02863,-10.71862 6.28937,0 11.11712,3.98625 11.11712,9.65562 0,2.70175 -0.66437,3.5875 -2.25887,3.5875 z m -11.95863,-2.2145 c 0,-1.72737 1.32863,-2.9675 2.92313,-2.9675 1.5945,0 2.879,1.24013 2.879,2.9675 0,1.63875 -1.24013,2.87888 -2.879,2.87888 -1.72738,0 -2.92313,-1.24013 -2.92313,-2.87888"
       style="fill:#00a1e3;fill-opacity:1;fill-rule:nonzero;stroke:none"
       id="path196"
       inkscape:connector-curvature="0" />
  </g>
</svg>
