<?xml version="1.0" encoding="UTF-8" standalone="no"?>
<!-- Created with Inkscape (http://www.inkscape.org/) -->

<svg
   xmlns:dc="http://purl.org/dc/elements/1.1/"
   xmlns:cc="http://creativecommons.org/ns#"
   xmlns:rdf="http://www.w3.org/1999/02/22-rdf-syntax-ns#"
   xmlns:svg="http://www.w3.org/2000/svg"
   xmlns="http://www.w3.org/2000/svg"
   xmlns:xlink="http://www.w3.org/1999/xlink"
   xmlns:sodipodi="http://sodipodi.sourceforge.net/DTD/sodipodi-0.dtd"
   xmlns:inkscape="http://www.inkscape.org/namespaces/inkscape"
   width="27.790195mm"
   height="16.076586mm"
   viewBox="0 0 98.469197 56.96428"
   id="svg40721"
   version="1.1"
   inkscape:version="0.91 r13725"
   sodipodi:docname="8.svg">
  <defs
     id="defs40723">
    <clipPath
       clipPathUnits="userSpaceOnUse"
       id="clipPath304">
      <path
         d="m 347.7869,416.9826 28.3465,0 0,16.7244 -28.3465,0 0,-16.7244 z"
         id="path306"
         inkscape:connector-curvature="0"
         style="clip-rule:evenodd" />
    </clipPath>
    <clipPath
       clipPathUnits="userSpaceOnUse"
       id="clipPath262">
      <path
         d="m 318.8852,426.2363 c 0,0.0284 0,0.0567 0,0.0567 -0.0567,0.3969 -0.3118,0.737 -0.6237,1.0205 -0.0283,0.0283 -0.0566,0.0283 -0.085,0.0567 -0.4252,0.3401 -0.9354,0.5669 -1.4457,0.7086 -0.7086,0.2268 -1.4456,0.3118 -2.211,0.3402 -0.7653,0 -1.5307,-0.0567 -2.2961,-0.2268 -0.7937,-0.1984 -1.559,-0.4819 -2.1826,-0.9354 -0.1418,-0.1134 -0.2551,-0.2268 -0.3685,-0.3402 -0.1134,-0.1134 -0.1985,-0.2267 -0.2552,-0.3401 -0.1417,-0.1985 -0.2267,-0.4252 -0.2551,-0.652 0,-0.0283 0,-0.085 0,-0.1417 0,-0.3969 0.2268,-0.7654 0.5103,-1.0772 0.1134,-0.085 0.2267,-0.1701 0.3401,-0.2551 0.1701,-0.1417 0.3969,-0.2551 0.5953,-0.3685 0.2551,-0.1134 0.5386,-0.1984 0.822,-0.2835 0.1701,-0.0567 0.3119,-0.085 0.4819,-0.1417 0.1701,-0.0284 0.3118,-0.0284 0.4536,-0.0851 1.0205,-0.1417 2.0693,-0.1133 3.0614,0.0567 0.1417,0.0284 0.3118,0.0567 0.4819,0.1134 0.737,0.1701 1.4457,0.4536 2.0409,0.8504 0.1134,0.0851 0.1985,0.1984 0.3118,0.2551 0.0284,0.0284 0.0567,0.0567 0.0851,0.0851 0.1984,0.1984 0.3685,0.4535 0.4819,0.6803 0.0567,0.1984 0.085,0.4252 0.0567,0.6236"
         id="path264"
         inkscape:connector-curvature="0" />
    </clipPath>
    <clipPath
       clipPathUnits="userSpaceOnUse"
       id="clipPath282">
      <path
         d="m 321.1529,423.6568 c -0.0284,0.2268 -0.0567,0.4535 -0.1134,0.652 -0.085,0.2834 -0.1984,0.5669 -0.3118,0.822 -0.1417,0.2835 -0.3118,0.5669 -0.4819,0.8221 -0.1701,0.2267 -0.3402,0.4251 -0.5102,0.6519 -0.1701,0.1701 -0.3685,0.3402 -0.5386,0.4819 -0.1984,0.1701 -0.3969,0.3118 -0.5953,0.4536 -0.8787,0.5952 -1.9276,0.9921 -3.0331,1.1622 -1.1055,0.17 -2.2393,0.1417 -3.3165,-0.1418 -0.9921,-0.2267 -1.9276,-0.6803 -2.7213,-1.2756 -0.17,-0.1417 -0.3401,-0.2834 -0.5102,-0.4535 -0.3685,-0.3402 -0.6803,-0.7087 -0.9354,-1.1055 -0.0284,-0.0851 -0.0851,-0.1701 -0.1418,-0.2268 -0.1134,-0.2551 -0.2267,-0.4819 -0.3118,-0.737 -0.1417,-0.3685 -0.2551,-0.737 -0.2834,-1.1339 -0.0284,0 -0.0284,0 -0.0284,0 -0.0283,-0.3118 -0.0283,-0.6236 0,-0.9354 0,-0.0567 0,-0.1417 0,-0.1984 0.0284,-0.2551 0.0851,-0.5103 0.1417,-0.7654 0.0284,-0.085 0.0567,-0.1701 0.0851,-0.2551 0.1134,-0.3401 0.2834,-0.652 0.4535,-0.9638 0.0284,-0.085 0.0851,-0.1417 0.1134,-0.1984 0.1701,-0.2551 0.3685,-0.5102 0.5669,-0.737 0.3402,-0.3685 0.7087,-0.7087 1.1339,-0.9921 0.2268,-0.1418 0.4252,-0.2835 0.652,-0.3969 1.0771,-0.5669 2.296,-0.8787 3.5433,-0.9354 1.3039,-0.0284 2.6362,0.2551 3.7701,0.822 0.2834,0.1418 0.5385,0.2835 0.7937,0.4536 0.1133,0.085 0.2267,0.1417 0.3401,0.2268 0.4536,0.3401 0.8504,0.737 1.1906,1.1622 0.0283,0.0566 0.0567,0.1133 0.1133,0.17 0.2552,0.3685 0.4819,0.7654 0.6237,1.1622 0.17,0.3685 0.2551,0.7654 0.3118,1.1622 l 0,0 c 0.0567,0.4252 0.0567,0.8504 0,1.2473 z m -2.3244,1.9559 c -0.1134,-0.2268 -0.2835,-0.4819 -0.4819,-0.6803 -0.0284,-0.0284 -0.0567,-0.0567 -0.0851,-0.0851 -0.1133,-0.0567 -0.1984,-0.17 -0.3118,-0.2551 -0.5952,-0.3968 -1.3039,-0.6803 -2.0409,-0.8504 -0.1701,-0.0567 -0.3402,-0.085 -0.4819,-0.1134 -0.9921,-0.17 -2.0409,-0.1984 -3.0614,-0.0567 -0.1418,0.0567 -0.2835,0.0567 -0.4536,0.0851 -0.17,0.0567 -0.3118,0.085 -0.4819,0.1417 -0.2834,0.0851 -0.5669,0.1701 -0.822,0.2835 -0.1984,0.1134 -0.4252,0.2268 -0.5953,0.3685 -0.1134,0.085 -0.2267,0.1701 -0.3401,0.2551 -0.2835,0.3118 -0.5103,0.6803 -0.5103,1.0772 0,0.0567 0,0.1134 0,0.1417 0.0284,0.2268 0.1134,0.4535 0.2551,0.652 0.0567,0.1134 0.1418,0.2267 0.2552,0.3401 0.1134,0.1134 0.2267,0.2268 0.3685,0.3402 0.6236,0.4535 1.3889,0.737 2.1826,0.9354 0.7654,0.1701 1.5308,0.2268 2.2961,0.2268 0.7654,-0.0284 1.5024,-0.1134 2.211,-0.3402 0.5103,-0.1417 1.0205,-0.3685 1.4457,-0.7086 0.0284,-0.0284 0.0567,-0.0284 0.085,-0.0567 0.3119,-0.2835 0.567,-0.6236 0.6237,-1.0205 0,0 0,-0.0283 0,-0.0567 0.0283,-0.1984 0,-0.4252 -0.0567,-0.6236"
         id="path284"
         inkscape:connector-curvature="0" />
    </clipPath>
    <linearGradient
       gradientTransform="matrix(0.1251474,0,0,0.1251474,185.94807,191.43793)"
       x1="384.267"
       y1="618.80798"
       x2="623.04901"
       y2="618.80798"
       id="linearGradient2405"
       xlink:href="#id0"
       gradientUnits="userSpaceOnUse" />
    <linearGradient
       x1="384.267"
       y1="618.80798"
       x2="623.04901"
       y2="618.80798"
       id="id0"
       gradientUnits="userSpaceOnUse">
      <stop
         style="stop-color:#da251d;stop-opacity:1"
         offset="0"
         id="stop9" />
      <stop
         style="stop-color:#89211b;stop-opacity:1"
         offset="0.50196099"
         id="stop11" />
    </linearGradient>
  </defs>
  <sodipodi:namedview
     id="base"
     pagecolor="#ffffff"
     bordercolor="#666666"
     borderopacity="1.0"
     inkscape:pageopacity="0.0"
     inkscape:pageshadow="2"
     inkscape:zoom="22.627417"
     inkscape:cx="68.377497"
     inkscape:cy="39.599619"
     inkscape:document-units="px"
     inkscape:current-layer="layer1"
     showgrid="false"
     fit-margin-top="0"
     fit-margin-left="0"
     fit-margin-right="0"
     fit-margin-bottom="0"
     objecttolerance="10000"
     inkscape:snap-perpendicular="true"
     inkscape:snap-tangential="false"
     inkscape:snap-path-mask="true"
     inkscape:snap-path-clip="true"
     inkscape:window-width="1920"
     inkscape:window-height="1029"
     inkscape:window-x="0"
     inkscape:window-y="25"
     inkscape:window-maximized="1" />
  <metadata
     id="metadata40726">
    <rdf:RDF>
      <cc:Work
         rdf:about="">
        <dc:format>image/svg+xml</dc:format>
        <dc:type
           rdf:resource="http://purl.org/dc/dcmitype/StillImage" />
        <dc:title></dc:title>
      </cc:Work>
    </rdf:RDF>
  </metadata>
  <g
     inkscape:label="Layer 1"
     inkscape:groupmode="layer"
     id="layer1"
     transform="translate(-130.7654,-258.16578)">
    <path
       d="m 185.04672,258.50245 c -0.60237,-0.38987 -1.3465,-0.21262 -1.70075,0.42513 l -16.9725,30.75587 c -0.38975,0.70875 -0.17712,1.63 0.46063,2.126 l 20.33862,16.05125 c 0.60238,0.496 1.41725,0.31888 1.807,-0.35437 l 14.17325,-25.689 -1.8425,-10.45275 -16.1575,-12.75588 c -0.0354,-0.0355 -0.0709,-0.0709 -0.10625,-0.10625 z"
       style="fill:#00a1e3;fill-opacity:1;fill-rule:nonzero;stroke:#cccccc;stroke-width:0.27000001;stroke-linecap:butt;stroke-linejoin:miter;stroke-miterlimit:22.92558479;stroke-dasharray:none;stroke-opacity:1"
       id="path248"
       inkscape:connector-curvature="0" />
    <path
       d="m 170.09397,258.8922 c -0.60237,-0.38975 -1.311,-0.21262 -1.66537,0.42513 l -16.9725,30.75587 c -0.38975,0.70875 -0.17713,1.63 0.42525,2.126 l 20.33862,16.05125 c 0.63775,0.496 1.45275,0.31888 1.807,-0.35437 l 14.17325,-25.689 -1.807,-10.45275 -16.1575,-12.75588 c -0.0355,-0.0354 -0.0709,-0.0709 -0.14175,-0.10625 z"
       style="fill:#336666;fill-opacity:1;fill-rule:nonzero;stroke:#336666;stroke-width:0.27000001;stroke-linecap:butt;stroke-linejoin:miter;stroke-miterlimit:22.92558479;stroke-dasharray:none;stroke-opacity:1"
       id="path250"
       inkscape:connector-curvature="0" />
    <path
       d="m 154.04272,265.37645 c -0.60237,-0.38975 -1.34637,-0.21262 -1.70075,0.42513 l -16.97237,30.756 c -0.35438,0.67312 -0.17725,1.62987 0.46062,2.12587 l 20.3385,16.01575 c 0.63788,0.49613 1.41738,0.35438 1.80713,-0.31887 l 14.17325,-25.689 -1.80713,-10.48813 -16.19287,-12.7205 c -0.0355,-0.0354 -0.0709,-0.0709 -0.10638,-0.10625 z"
       style="fill:#e6e6e6;fill-opacity:1;fill-rule:nonzero;stroke:#cccccc;stroke-width:0.27000001;stroke-linecap:butt;stroke-linejoin:miter;stroke-miterlimit:22.92558479;stroke-dasharray:none;stroke-opacity:1"
       id="path252"
       inkscape:connector-curvature="0" />
    <g
       transform="matrix(1.25,0,0,-1.25,-240.93215,820.98645)"
       id="g254">
      <path
         style="fill:#00a1e3;fill-opacity:1;fill-rule:nonzero;stroke:none"
         d="M 21.310547 24.126953 C 17.706363 24.074733 14.066825 25.368603 11.603516 28.050781 C 9.2838281 30.458356 8.4909312 34.283353 9.8945312 37.353516 C 11.562269 41.216041 15.694403 43.514594 19.767578 43.871094 C 24.209528 44.322731 29.075766 42.552056 31.595703 38.738281 C 32.833878 36.822756 33.345034 34.423875 32.826172 32.1875 C 31.951947 28.378225 28.550488 25.562353 24.859375 24.626953 C 23.710763 24.312141 22.511942 24.14436 21.310547 24.126953 z M 21.140625 26.806641 C 23.131035 26.811262 25.119893 27.385311 26.740234 28.529297 C 28.742209 29.899472 30.116178 32.339731 29.744141 34.808594 C 29.406928 37.426869 27.37215 39.528578 24.984375 40.478516 C 21.3144 42.039941 16.596697 41.223725 13.966797 38.132812 C 12.822584 36.805475 12.267463 35.026331 12.453125 33.285156 C 12.691175 31.983794 13.245069 30.577409 14.246094 29.607422 C 16.021098 27.735858 18.581526 26.800698 21.140625 26.806641 z M 9.4414062 40.478516 C 9.2641562 40.513891 9.0499531 40.620313 8.9082031 40.726562 C 6.2860781 42.958813 3.6649688 45.191578 1.0429688 47.423828 C 0.79484375 47.636453 0.54682812 47.848047 0.29882812 48.060547 C -0.020046875 48.308672 -0.09140625 48.733859 0.12109375 49.052734 C 0.15659375 49.159109 0.29804687 49.264719 0.40429688 49.371094 C 0.54604688 49.477344 0.72348438 49.620312 0.86523438 49.726562 C 1.0778594 49.939188 1.3264375 50.115719 1.5390625 50.292969 C 1.7516875 50.470094 1.928 50.612156 2.140625 50.753906 C 2.31775 50.931031 2.5315156 51.107906 2.7441406 51.285156 C 2.9212656 51.426781 3.0981406 51.569187 3.2753906 51.710938 C 3.3816406 51.781813 3.4875 51.888109 3.59375 51.958984 C 3.7 52.065359 3.842625 52.171312 3.984375 52.242188 C 4.30325 52.419312 4.7631563 52.419312 5.0820312 52.242188 C 5.2237813 52.171312 5.3309063 52.065016 5.4726562 51.994141 C 8.2364063 49.620141 10.999922 47.281984 13.763672 44.943359 C 13.870047 44.837109 13.975781 44.764797 14.082031 44.623047 C 14.259281 44.339672 14.2595 43.951125 14.046875 43.703125 C 13.976 43.596875 13.870047 43.524344 13.763672 43.417969 C 13.551172 43.240844 13.337625 43.100953 13.125 42.923828 C 13.01875 42.817578 12.912891 42.745047 12.806641 42.638672 C 12.664891 42.496922 12.487797 42.39175 12.310547 42.25 C 12.097922 42.072875 11.8845 41.895875 11.671875 41.71875 C 11.530125 41.6125 11.354641 41.469875 11.212891 41.328125 C 11.000266 41.186375 10.786844 41.009156 10.574219 40.832031 C 10.467969 40.725656 10.362453 40.654859 10.220703 40.583984 C 10.008078 40.477734 9.7247812 40.443016 9.4414062 40.478516 z "
         transform="matrix(0.8,0,0,-0.8,297.35804,450.25654)"
         id="path296" />
    </g>
    <g
       id="g49902"
       transform="matrix(0.71666193,0,0,0.71666193,28.826124,88.116384)">
      <rect
         y="245.08229"
         x="228.23564"
         height="24.280352"
         width="41.495251"
         id="rect49900"
         style="color:#000000;clip-rule:nonzero;display:inline;overflow:visible;visibility:visible;opacity:0.98999999;isolation:auto;mix-blend-mode:normal;color-interpolation:sRGB;color-interpolation-filters:linearRGB;solid-color:#000000;solid-opacity:1;fill:#ffffff;fill-opacity:1;fill-rule:nonzero;stroke:none;stroke-width:2;stroke-linecap:butt;stroke-linejoin:miter;stroke-miterlimit:4;stroke-dasharray:none;stroke-dashoffset:0;stroke-opacity:1;color-rendering:auto;image-rendering:auto;shape-rendering:auto;text-rendering:auto;enable-background:accumulate" />
      <path
         id="path2345"
         style="fill:url(#linearGradient2405);fill-rule:evenodd"
         d="m 228.22749,284.57926 32.99949,0 8.50487,8.63318 0,-27.70776 -41.50439,0 0,19.07459 3e-5,-1e-5 z m 21.57028,-34.07539 c -0.48782,0 -0.88355,0.39573 -0.88355,0.88385 l 0,5.27132 c 0,0.004 0.001,0.007 0.001,0.0102 0.006,1.99077 1.62609,3.60887 3.61892,3.60887 1.99624,0 3.6204,-1.62357 3.6204,-3.61907 0,-1.99639 -1.62416,-3.61966 -3.6204,-3.61966 -0.67734,0 -1.30988,0.1904 -1.85226,0.51532 l 0,-2.16698 c 0,-0.48812 -0.39528,-0.88385 -0.88414,-0.88385 l 0,0 z m 2.73641,4.30322 c 1.02163,0 1.85167,0.83108 1.85167,1.85197 0,1.02133 -0.83004,1.85137 -1.85167,1.85137 -1.02059,0 -1.85226,-0.83005 -1.85226,-1.85137 0,-1.02089 0.83167,-1.85197 1.85226,-1.85197 l 0,0 z m 5.43852,-1.7612 c -0.48886,0 -0.88415,0.39632 -0.88415,0.884 l 0,3.02201 c 0,1.07174 0.15078,2.57203 1.45299,3.22793 0.43594,0.21907 0.96767,0.0432 1.18719,-0.39263 0.21893,-0.43668 0.0432,-0.96737 -0.39277,-1.18689 -0.11856,-0.0593 -0.4797,-0.24214 -0.4797,-1.64841 l 0,-3.02201 c 0,-0.48768 -0.39514,-0.884 -0.88356,-0.884 l 0,0 z m 5e-4,-2.53846 c -0.53779,0 -0.97269,0.4352 -0.97269,0.97269 0,0.5369 0.4349,0.97151 0.97269,0.97151 0.53631,0 0.97225,-0.43461 0.97225,-0.97151 0,-0.53749 -0.43594,-0.97269 -0.97225,-0.97269 z m 4.55762,11.2015 0,-1.95056 c 0.54237,0.32507 1.17477,0.51518 1.85167,0.51518 1.9958,0 3.61937,-1.62328 3.61937,-3.61938 0,-1.99565 -1.62357,-3.61938 -3.61937,-3.61938 -1.9958,0 -3.61997,1.62373 -3.61997,3.61938 l 0,5.05477 c 0,0.48841 0.39573,0.88355 0.88415,0.88355 0.48842,0 0.88415,-0.39514 0.88415,-0.88355 l 0,-10e-6 z m 1.85167,-6.90628 c 1.02059,0 1.85167,0.83048 1.85167,1.85152 0,1.02103 -0.83108,1.85151 -1.85167,1.85151 -1.02163,0 -1.85167,-0.83048 -1.85167,-1.85151 0,-1.02104 0.83004,-1.85152 1.85167,-1.85152 l 0,0 z m -36.15496,-10.25498 0,1.80156 41.50438,0 0,-1.80156 -41.50438,0 z"
         inkscape:connector-curvature="0" />
    </g>
  </g>
</svg>
