<?xml version="1.0" encoding="UTF-8" standalone="no"?>
<!-- Created with Inkscape (http://www.inkscape.org/) -->
<svg xmlns:svg="http://www.w3.org/2000/svg" xmlns="http://www.w3.org/2000/svg" xmlns:xlink="http://www.w3.org/1999/xlink" version="1.0" width="1094.7753" height="388.66501" viewBox="0 0 1771 1237.62" id="svg2" xml:space="preserve">
 <defs id="defs4">
  <style type="text/css" id="style6"/>
  <linearGradient x1="384.267" y1="618.80798" x2="623.04901" y2="618.80798" id="id0" gradientUnits="userSpaceOnUse">
   <stop style="stop-color:#da251d;stop-opacity:1" offset="0" id="stop9"/>
   <stop style="stop-color:#89211b;stop-opacity:1" offset="0.50196099" id="stop11"/>
  </linearGradient>
 <linearGradient x1="384.267" y1="618.80798" x2="623.04901" y2="618.80798" id="linearGradient2335" xlink:href="#id0" gradientUnits="userSpaceOnUse"/><linearGradient x1="384.267" y1="618.80798" x2="623.04901" y2="618.80798" id="linearGradient2405" xlink:href="#id0" gradientUnits="userSpaceOnUse"/></defs>
 
<g transform="matrix(3.1826893,0,0,3.1826893,-856.12546,-2701.34)" style="fill-rule:evenodd" id="g2337"><rect width="1095.3237" height="388.8598" x="-0.44382375" y="848.76019" style="opacity:1;fill:#ffffff;fill-opacity:1;fill-rule:nonzero;stroke:none;stroke-width:5.5;stroke-linecap:round;stroke-miterlimit:4;stroke-dasharray:none;stroke-dashoffset:0;stroke-opacity:1" id="rect2339"/><g transform="translate(-338.28062,424.3829)" id="g2341">
  
  <path d="M 337.837,744.253 L 601.522,744.253 L 669.4808,813.2371 L 669.4808,591.8361 L 337.8368,591.8361 L 337.8368,744.2531 L 337.837,744.253 z M 510.196,471.971 C 506.29799,471.971 503.13588,475.13311 503.13588,479.03348 L 503.13588,521.15438 C 503.13588,521.18273 503.14415,521.20753 503.14415,521.23588 C 503.18903,537.14328 516.13755,550.07288 532.06145,550.07288 C 548.01255,550.07288 560.99055,537.09958 560.99055,521.15438 C 560.99055,505.20208 548.01255,492.23118 532.06145,492.23118 C 526.64912,492.23118 521.59475,493.75258 517.26085,496.34889 L 517.26085,479.03349 C 517.26085,475.13312 514.10228,471.97101 510.196,471.97101 L 510.196,471.971 z M 532.0615,506.3562 C 540.22488,506.3562 546.8574,512.99699 546.8574,521.1545 C 546.8574,529.31551 540.22488,535.948 532.0615,535.948 C 523.90639,535.948 517.2609,529.31548 517.2609,521.1545 C 517.2609,512.99703 523.90641,506.3562 532.0615,506.3562 L 532.0615,506.3562 z M 575.5184,492.2832 C 571.61212,492.2832 568.45355,495.45004 568.45355,499.34686 L 568.45355,523.49446 C 568.45355,532.05827 569.65839,544.04646 580.06375,549.28746 C 583.54715,551.03802 587.79598,549.63238 589.55009,546.15015 C 591.29947,542.66084 589.89501,538.42028 586.4116,536.66618 C 585.46427,536.19251 582.57856,534.73135 582.57856,523.49448 L 582.57856,499.34688 C 582.57856,495.45005 579.42117,492.28322 575.51844,492.28322 L 575.5184,492.2832 z M 575.52194,471.9994 C 571.22468,471.9994 567.74955,475.4769 567.74955,479.77179 C 567.74955,484.06196 571.22468,487.53473 575.52194,487.53473 C 579.80739,487.53473 583.29079,484.06196 583.29079,479.77179 C 583.29079,475.47689 579.80739,471.9994 575.52194,471.9994 z M 611.93994,561.5059 L 611.93994,545.9198 C 616.27382,548.51729 621.32705,550.03633 626.73584,550.03633 C 642.68344,550.03633 655.65674,537.06543 655.65674,521.11543 C 655.65674,505.16903 642.68344,492.19453 626.73584,492.19453 C 610.78824,492.19453 597.81024,505.16903 597.81024,521.11543 L 597.81024,561.50593 C 597.81024,565.40866 600.97235,568.56605 604.87509,568.56605 C 608.77782,568.56605 611.93994,565.40866 611.93994,561.50593 L 611.93994,561.5059 z M 626.73584,506.3207 C 634.89095,506.3207 641.53174,512.95676 641.53174,521.1154 C 641.53174,529.27405 634.89095,535.9101 626.73584,535.9101 C 618.57246,535.9101 611.93994,529.27404 611.93994,521.1154 C 611.93994,512.95675 618.57246,506.3207 626.73584,506.3207 L 626.73584,506.3207 z M 337.83684,424.3775 L 337.83684,438.773 L 669.48084,438.773 L 669.48084,424.3775 L 337.83684,424.3775 z " style="fill:url(#linearGradient2405)" id="path2345"/>
  <g id="g2347">
   <path d="M 707.518,502.866 C 695.6267,502.866 691.4677,495.57672 691.4677,484.817 L 691.4677,442.0334 L 699.27317,442.0334 L 699.27317,466.2459 L 699.45153,466.2459 C 701.35683,461.99353 705.61275,459.64882 710.21123,459.64882 C 722.27263,459.64882 724.26653,472.23352 724.26653,481.69142 C 724.26653,493.14682 720.36025,502.86592 707.51813,502.86592 L 707.518,502.866 z M 708.03892,465.7251 C 701.44538,465.7251 699.27313,476.0513 699.27313,481.1718 C 699.27313,486.81328 699.10185,496.7934 707.08568,496.7934 C 714.71987,496.7934 715.59161,487.07318 715.59161,481.4317 C 715.59161,476.57218 714.89941,465.7251 708.03892,465.7251 L 708.03892,465.7251 z " style="fill:#000000" id="path2349"/>
   <path d="M 735.026,450.886 L 735.026,442.0328 L 744.39421,442.0328 L 744.39421,450.886 L 735.026,450.886 z M 735.80796,501.9121 L 735.80796,460.6027 L 743.62051,460.6027 L 743.62051,501.9121 L 735.80796,501.9121 z " style="fill:#000000" id="path2351"/>
   <path d="M 782.232,501.912 L 782.232,493.06116 L 782.06072,493.06116 C 779.97706,498.87392 775.46009,502.86524 768.95632,502.86524 C 760.62285,502.86524 757.84702,496.44416 757.84702,489.24114 L 757.84702,460.60254 L 765.66076,460.60254 L 765.66076,483.16724 C 765.66076,484.90126 765.66076,486.55142 765.74227,488.28781 C 766.00213,492.19172 766.87387,495.05617 771.30107,495.05617 C 778.93526,495.05617 782.23207,484.20787 782.23207,478.13407 L 782.23207,460.60247 L 790.04462,460.60247 L 790.04462,501.91187 L 782.23207,501.91187 L 782.232,501.912 z " style="fill:#000000" id="path2353"/>
   <polygon points="805.06,501.912 805.06,442.033 812.874,442.033 812.874,501.912 805.06,501.912 " style="fill:#000000" id="polygon2355"/>
   <path d="M 832.391,478.22 C 832.391,487.50671 837.16783,496.7934 847.5779,496.7934 C 850.36084,496.7934 852.87565,496.27248 855.39045,495.31806 L 855.39045,501.47928 C 851.91532,502.26006 848.61973,502.86603 845.06305,502.86603 C 830.30735,502.86603 824.58555,492.80093 824.58555,479.26183 C 824.58555,467.98123 829.53366,459.64893 841.41665,459.64893 C 851.48415,459.64893 856.34245,466.76693 856.34245,476.22373 L 856.34245,478.21998 L 832.39095,478.21998 L 832.391,478.22 z M 848.5382,473.01321 C 848.5382,468.58838 845.32293,465.72511 840.98551,465.72511 C 837.59897,465.72511 834.73452,467.3729 833.35132,470.4984 C 833.00168,471.278 832.74063,472.2336 832.74063,473.01321 L 848.53823,473.01321 L 848.5382,473.01321 z " style="fill:#000000" id="path2357"/>
   <path d="M 878.123,466.679 L 878.123,488.7205 C 878.123,493.32133 879.25342,496.79292 884.72363,496.79292 C 886.10683,496.79292 887.57981,496.6181 888.88151,496.18459 L 888.88151,502.25958 C 886.88762,502.69309 884.80396,502.86555 882.72148,502.86555 C 875.43693,502.86555 870.31758,500.69684 870.31758,492.80045 L 870.31758,466.67905 L 862.93617,466.67905 L 862.93617,460.60288 L 870.31758,460.60288 L 870.31758,450.88621 L 878.12305,446.02433 L 878.12305,460.60293 L 889.58205,460.60293 L 889.58205,466.6791 L 878.12305,466.6791 L 878.123,466.679 z " style="fill:#000000" id="path2359"/>
   <polygon points="909.71,519.701 902.075,519.701 907.886,502.172 892.179,460.603 900.855,460.603 911.704,490.457 911.882,490.457 921.6,460.603 930.276,460.603 909.71,519.701 " style="fill:#000000" id="polygon2361"/>
   <path d="M 962.123,501.912 L 962.123,479.3484 C 962.123,477.70061 962.123,475.9654 962.04268,474.22665 C 961.78163,470.41015 960.91108,467.45947 956.4827,467.45947 C 948.84851,467.45947 945.5529,478.30657 945.5529,484.38277 L 945.5529,501.91197 L 937.73916,501.91197 L 937.73916,460.60257 L 945.5529,460.60257 L 945.5529,469.45577 L 945.72299,469.45577 C 948.0677,463.55324 952.32362,459.64814 958.82739,459.64814 C 967.07227,459.64814 969.93669,466.0704 969.93669,473.27344 L 969.93669,501.91204 L 962.12295,501.91204 L 962.123,501.912 z " style="fill:#000000" id="path2363"/>
   <path d="M 692.42,540.193 L 692.42,531.3398 L 701.78821,531.3398 L 701.78821,540.193 L 692.42,540.193 z M 693.20196,591.2179 L 693.20196,549.9108 L 701.01451,549.9108 L 701.01451,591.2179 L 693.20196,591.2179 z " style="fill:#000000" id="path2365"/>
   <path d="M 740.057,591.218 L 740.057,568.6556 C 740.057,567.00781 740.057,565.2726 739.97432,563.53503 C 739.71445,559.71734 738.8439,556.76785 734.4167,556.76785 C 726.78133,556.76785 723.48569,567.61375 723.48569,573.68995 L 723.48569,591.21795 L 715.67195,591.21795 L 715.67195,549.91085 L 723.48569,549.91085 L 723.48569,558.76287 L 723.65697,558.76287 C 726.0005,552.86034 730.2576,548.95524 736.76017,548.95524 C 745.00505,548.95524 747.86947,555.3775 747.86947,562.58054 L 747.86947,591.21794 L 740.05692,591.21794 L 740.057,591.218 z " style="fill:#000000" id="path2367"/>
   <path d="M 788.913,537.676 C 786.2281,536.89404 783.53375,536.46053 780.67639,536.46053 C 775.11759,536.46053 772.60279,540.53808 772.60279,545.65983 L 772.60279,549.91102 L 784.92519,549.91102 L 784.92519,555.98601 L 772.60279,555.98601 L 772.60279,591.21811 L 764.79024,591.21811 L 764.79024,555.98601 L 757.32614,555.98601 L 757.32614,549.91102 L 764.79024,549.91102 L 764.79024,545.13891 C 764.79024,534.81041 770.69041,530.38551 780.58664,530.38551 C 783.36249,530.38551 786.22812,530.55797 788.91302,531.16629 L 788.91302,537.67596 L 788.913,537.676 z " style="fill:#000000" id="path2369"/>
   <path d="M 808.357,592.172 C 795.0825,592.172 790.0446,582.71283 790.0446,570.564 C 790.0446,558.5026 795.08248,548.9549 808.357,548.9549 C 821.55,548.9549 826.5796,558.50266 826.5796,570.564 C 826.5796,582.6277 821.54999,592.172 808.357,592.172 z M 808.357,555.0311 C 799.76248,555.0311 798.72892,563.88194 798.72892,570.5641 C 798.72892,577.16118 799.76248,586.0994 808.357,586.0994 C 816.86175,586.0994 817.90358,577.07256 817.90358,570.5641 C 817.90358,564.05561 816.95152,555.0311 808.357,555.0311 z " style="fill:#000000" id="path2371"/>
   <path d="M 857.995,557.461 C 848.01728,557.461 845.0631,564.66405 845.0631,573.6897 L 845.0631,591.2177 L 837.25763,591.2177 L 837.25763,549.9106 L 845.0631,549.9106 L 845.0631,558.24171 L 845.24146,558.24171 C 847.23535,552.42659 851.83382,548.955 857.99506,548.955 L 857.99506,557.46093 L 857.995,557.461 z " style="fill:#000000" id="path2373"/>
   <path d="M 912.403,591.218 L 912.403,568.6556 C 912.403,567.18144 912.403,565.53129 912.3215,563.88231 C 912.06163,559.89099 911.45094,556.76785 906.6812,556.76785 C 900.60149,556.76785 897.56577,566.74793 897.56577,571.43385 L 897.56577,591.21805 L 889.75322,591.21805 L 889.75322,568.65565 C 889.75322,567.18149 889.75322,565.53134 889.67171,563.88236 C 889.41066,560.06349 888.97125,556.7679 884.29246,556.7679 C 877.43078,556.7679 874.91598,568.5682 874.91598,573.69 L 874.91598,591.218 L 867.10224,591.218 L 867.10224,549.9109 L 874.91598,549.9109 L 874.91598,558.1546 L 875.08726,558.1546 C 876.90987,552.94781 880.64606,548.9553 886.63596,548.9553 C 892.27626,548.9553 896.35381,552.08079 897.13456,557.72109 L 897.30583,557.72109 C 899.38949,552.60171 903.37727,548.9553 909.01753,548.9553 C 917.351,548.9553 920.21663,555.37756 920.21663,562.5806 L 920.21663,591.218 L 912.40289,591.218 L 912.403,591.218 z " style="fill:#000000" id="path2375"/>
   <path d="M 953.627,591.218 L 953.627,586.0998 L 953.44864,586.0998 C 951.62484,590.00371 947.02638,592.17243 942.77754,592.17243 C 935.83554,592.17243 931.05754,588.18111 931.05754,581.06543 C 931.05754,569.43753 944.68164,567.52633 953.62704,567.52633 L 953.62704,560.32446 C 953.62704,559.89095 953.36599,559.37004 953.2774,558.93653 C 952.32416,556.15949 950.06213,555.03143 947.28628,555.03143 C 943.20873,555.03143 940.69392,557.28873 940.69392,561.3651 L 932.45022,561.3651 C 932.45022,552.16698 939.65209,548.9553 947.89692,548.9553 C 956.92258,548.9553 961.43242,553.38131 961.43242,562.2345 L 961.43242,591.218 L 953.62695,591.218 L 953.627,591.218 z M 953.627,572.7332 L 952.06425,572.7332 C 947.19765,572.7332 939.73355,574.90427 939.73355,580.80562 C 939.73355,583.32161 941.38607,586.09982 944.25052,586.09982 C 949.63095,586.09982 953.627,579.93624 953.627,575.07792 L 953.627,572.73321 L 953.627,572.7332 z " style="fill:#000000" id="path2377"/>
   <path d="M 995.191,563.361 C 995.191,559.10863 993.97789,555.03107 988.85969,555.03107 C 982.25906,555.03107 980.43527,562.40657 980.43527,567.61337 C 980.43527,578.02697 985.55465,586.09937 996.84357,586.09937 C 999.17883,586.09937 1001.2625,585.92337 1003.4359,585.23 L 1003.4359,590.60925 C 999.69975,591.73849 995.88324,592.172 991.97693,592.172 C 978.09173,592.172 971.75923,581.847 971.75923,569.0887 C 971.75923,557.6333 976.96839,548.9549 989.38063,548.9549 C 998.74766,548.9549 1004.1281,553.98924 1004.1281,563.361 L 995.19106,563.361 L 995.191,563.361 z " style="fill:#000000" id="path2379"/>
   <path d="M 1021.92,594.777 C 1021.92,605.8851 1013.4956,609.7891 1003.6076,609.7891 C 1002.8256,609.7891 1002.1346,609.70405 1001.3527,609.61664 L 1001.3527,603.45542 C 1002.3945,603.62906 1003.4363,603.71647 1004.4699,603.71647 C 1013.1542,603.71647 1014.1062,598.76954 1014.1062,591.47907 L 1014.1062,549.91097 L 1021.92,549.91097 L 1021.92,594.77707 L 1021.92,594.777 z M 1013.3255,540.1931 L 1013.3255,531.3399 L 1022.7008,531.3399 L 1022.7008,540.1931 L 1013.3255,540.1931 z " style="fill:#000000" id="path2381"/>
   <path d="M 1036.06,540.193 L 1036.06,531.3398 L 1045.4353,531.3398 L 1045.4353,540.193 L 1036.06,540.193 z M 1036.8408,591.2179 L 1036.8408,549.9108 L 1044.6545,549.9108 L 1044.6545,591.2179 L 1036.8408,591.2179 z " style="fill:#000000" id="path2383"/>
   <path d="M 1104.88,592.172 C 1100.1929,592.172 1095.7646,590.0907 1093.8604,585.57846 L 1093.6809,585.57846 L 1093.6809,609.78866 L 1085.8766,609.78866 L 1085.8766,549.91056 L 1093.6809,549.91056 L 1093.6809,556.15919 L 1093.8604,556.15919 C 1095.683,551.73318 1100.624,548.95496 1105.3111,548.95496 C 1116.6815,548.95496 1119.4561,560.58406 1119.4561,569.87076 C 1119.4561,579.24252 1116.6814,592.17206 1104.8799,592.17206 L 1104.88,592.172 z M 1102.5365,555.0311 C 1095.5047,555.0311 1093.6809,565.3573 1093.6809,570.6515 C 1093.6809,576.46426 1094.9838,586.0994 1102.7077,586.0994 C 1110.0892,586.0994 1110.7813,575.9457 1110.7813,570.5641 C 1110.7813,565.01121 1110.1707,555.0311 1102.5365,555.0311 L 1102.5365,555.0311 z " style="fill:#000000" id="path2385"/>
   <path d="M 1154.08,591.218 L 1154.08,582.36716 L 1153.9016,582.36716 C 1151.818,588.1811 1147.3093,592.17242 1140.7984,592.17242 C 1132.4721,592.17242 1129.6891,585.75134 1129.6891,578.54832 L 1129.6891,549.91092 L 1137.5017,549.91092 L 1137.5017,572.47562 C 1137.5017,574.20846 1137.5017,575.85862 1137.5915,577.59382 C 1137.8513,581.49892 1138.7148,584.36336 1143.142,584.36336 C 1150.7762,584.36336 1154.08,573.51506 1154.08,567.44126 L 1154.08,549.91086 L 1161.8855,549.91086 L 1161.8855,591.21796 L 1154.08,591.21796 L 1154.08,591.218 z " style="fill:#000000" id="path2387"/>
   <path d="M 1191.22,592.172 C 1179.3299,592.172 1175.1708,584.88272 1175.1708,574.123 L 1175.1708,531.3394 L 1182.9763,531.3394 L 1182.9763,555.5519 L 1183.1546,555.5519 C 1185.0588,551.29953 1189.3159,548.95482 1193.9143,548.95482 C 1205.9757,548.95482 1207.9696,561.54062 1207.9696,570.99742 C 1207.9696,582.45282 1204.0634,592.17192 1191.22,592.17192 L 1191.22,592.172 z M 1191.7409,555.0311 C 1185.1486,555.0311 1182.9763,565.3573 1182.9763,570.479 C 1182.9763,576.1193 1182.805,586.0994 1190.7889,586.0994 C 1198.423,586.0994 1199.2936,576.37918 1199.2936,570.7365 C 1199.2936,565.87816 1198.6026,555.0311 1191.7409,555.0311 L 1191.7409,555.0311 z " style="fill:#000000" id="path2389"/>
   <polygon points="1219.51,591.218 1219.51,531.34 1227.33,531.34 1227.33,591.218 1219.51,591.218 " style="fill:#000000" id="polygon2391"/>
   <path d="M 1242.07,540.193 L 1242.07,531.3398 L 1251.4465,531.3398 L 1251.4465,540.193 L 1242.07,540.193 z M 1242.852,591.2179 L 1242.852,549.9108 L 1250.6645,549.9108 L 1250.6645,591.2179 L 1242.852,591.2179 z " style="fill:#000000" id="path2393"/>
   <path d="M 1285.72,563.361 C 1285.72,559.10863 1284.5081,555.03107 1279.3887,555.03107 C 1272.7963,555.03107 1270.9725,562.40657 1270.9725,567.61337 C 1270.9725,578.02697 1276.0919,586.09937 1287.3725,586.09937 C 1289.7161,586.09937 1291.7997,585.92337 1293.9649,585.23 L 1293.9649,590.60925 C 1290.237,591.73849 1286.4205,592.172 1282.5142,592.172 C 1268.629,592.172 1262.2965,581.847 1262.2965,569.0887 C 1262.2965,557.6333 1267.4974,548.9549 1279.9096,548.9549 C 1289.2849,548.9549 1294.6653,553.98924 1294.6653,563.361 L 1285.72,563.361 L 1285.72,563.361 z " style="fill:#000000" id="path2395"/>
   <polygon points="1298.39,591.218 1298.39,585.143 1318.44,555.986 1299.7,555.986 1299.7,549.911 1327.9,549.911 1327.9,555.814 1307.85,585.143 1328.68,585.143 1328.68,591.218 1298.39,591.218 " style="fill:#000000" id="polygon2397"/>
   <path d="M 1362.17,591.218 L 1362.17,568.6556 C 1362.17,567.00781 1362.17,565.2726 1362.0885,563.53503 C 1361.8274,559.71734 1360.9569,556.76785 1356.5297,556.76785 C 1348.8955,556.76785 1345.5999,567.61375 1345.5999,573.68995 L 1345.5999,591.21795 L 1337.7862,591.21795 L 1337.7862,549.91085 L 1345.5999,549.91085 L 1345.5999,558.76287 L 1345.77,558.76287 C 1348.1147,552.86034 1352.3706,548.95524 1358.8732,548.95524 C 1367.1181,548.95524 1369.9825,555.3775 1369.9825,562.58054 L 1369.9825,591.21794 L 1362.1699,591.21794 L 1362.17,591.218 z " style="fill:#000000" id="path2399"/>
   <path d="M 1388.56,567.526 C 1388.56,576.81271 1393.338,586.0994 1403.7469,586.0994 C 1406.5298,586.0994 1409.0458,585.57848 1411.5606,584.62406 L 1411.5606,590.78528 C 1408.0843,591.56606 1404.7887,592.17203 1401.2321,592.17203 C 1386.4764,592.17203 1380.7546,582.10693 1380.7546,568.56783 C 1380.7546,557.28843 1385.7027,548.95493 1397.5857,548.95493 C 1407.6532,548.95493 1412.5127,556.07293 1412.5127,565.53093 L 1412.5127,567.526 L 1388.56,567.526 L 1388.56,567.526 z M 1404.7072,562.31921 C 1404.7072,557.89438 1401.4919,555.03111 1397.1545,555.03111 C 1393.7692,555.03111 1390.9035,556.68009 1389.5203,559.8044 C 1389.1707,560.584 1388.9096,561.54079 1388.9096,562.31921 L 1404.7072,562.31921 L 1404.7072,562.31921 z " style="fill:#000000" id="path2401"/>
   <path d="M 1432.38,594.777 C 1432.38,605.8851 1423.9556,609.7891 1414.0676,609.7891 C 1413.2856,609.7891 1412.5934,609.70405 1411.8127,609.61664 L 1411.8127,603.45542 C 1412.8545,603.62906 1413.8963,603.71647 1414.9299,603.71647 C 1423.6142,603.71647 1424.5662,598.76954 1424.5662,591.47907 L 1424.5662,549.91097 L 1432.38,549.91097 L 1432.38,594.77707 L 1432.38,594.777 z M 1423.7855,540.1931 L 1423.7855,531.3399 L 1433.1608,531.3399 L 1433.1608,540.1931 L 1423.7855,540.1931 z " style="fill:#000000" id="path2403"/>
  </g>
 </g></g></svg>